<svg width="1096" height="581" viewBox="0 0 1096 581" fill="none" xmlns="http://www.w3.org/2000/svg">
<path opacity="0.5" d="M485.808 285.184C487.27 282.854 488.026 280.21 487.999 277.525C487.999 270.607 483.304 265 477.514 265C471.723 265 467.001 270.624 467.001 277.542C466.974 280.227 467.73 282.87 469.192 285.2C467.756 287.538 467.001 290.174 467.001 292.854C467.001 295.535 467.756 298.171 469.192 300.508C467.756 302.846 467.001 305.482 467.001 308.162C467.001 310.843 467.756 313.479 469.192 315.816C467.728 318.145 466.971 320.789 467.001 323.475C467.001 330.385 471.696 336 477.477 336C483.258 336 487.963 330.385 487.963 323.475C487.992 320.789 487.236 318.145 485.772 315.816C487.208 313.479 487.962 310.843 487.962 308.162C487.962 305.482 487.208 302.846 485.772 300.508C487.208 298.171 487.962 295.535 487.962 292.854C487.962 290.174 487.208 287.538 485.772 285.2L485.808 285.184Z" fill="#3F3D56"/>
<path opacity="0.4" d="M436.82 111.588C435.261 109.611 433.844 107.526 432.58 105.348L462.48 100.438L430.14 100.678C427.044 93.9242 425.358 86.6094 425.186 79.1814C425.014 71.7534 426.36 64.3685 429.14 57.4783L472.53 79.9883L432.53 50.5683C436.249 44.0308 441.28 38.3333 447.307 33.8338C453.334 29.3344 460.226 26.1304 467.551 24.4233C474.876 22.7161 482.475 22.5427 489.87 23.9139C497.265 25.2851 504.297 28.1713 510.522 32.3911C516.748 36.6109 522.034 42.073 526.047 48.434C530.06 54.7951 532.714 61.9175 533.842 69.3537C534.97 76.7899 534.547 84.3789 532.6 91.6438C530.653 98.9087 527.225 105.692 522.53 111.568C524.955 114.648 527.04 117.981 528.75 121.508L489.92 141.728L531.31 127.838C534.219 136.43 534.939 145.612 533.404 154.552C531.869 163.493 528.128 171.909 522.52 179.038C528.846 187.08 532.782 196.74 533.877 206.913C534.972 217.086 533.182 227.362 528.712 236.566C524.242 245.769 517.272 253.53 508.6 258.959C499.927 264.388 489.902 267.267 479.67 267.267C469.438 267.267 459.413 264.388 450.74 258.959C442.068 253.53 435.098 245.769 430.628 236.566C426.158 227.362 424.368 217.086 425.463 206.913C426.558 196.74 430.494 187.08 436.82 179.038C429.26 169.428 425.149 157.556 425.149 145.328C425.149 133.101 429.26 121.228 436.82 111.618V111.588Z" fill="#47BAFF"/>
<path opacity="0.1" d="M534.19 145.298C534.21 157.529 530.098 169.408 522.52 179.008C528.846 187.05 532.782 196.71 533.877 206.883C534.972 217.056 533.182 227.332 528.712 236.536C524.242 245.739 517.272 253.5 508.6 258.929C499.927 264.358 489.902 267.237 479.67 267.237C469.438 267.237 459.413 264.358 450.74 258.929C442.068 253.5 435.098 245.739 430.628 236.536C426.158 227.332 424.368 217.056 425.463 206.883C426.558 196.71 430.494 187.05 436.82 179.008C429.51 169.728 534.19 139.178 534.19 145.298Z" fill="black"/>
<path opacity="0.4" d="M619 292.988C620.183 290.919 620.794 288.572 620.77 286.188C620.77 280.038 616.96 275.048 612.27 275.048C607.58 275.048 603.76 280.048 603.76 286.188C603.734 288.573 604.349 290.922 605.54 292.988C604.373 295.067 603.76 297.41 603.76 299.793C603.76 302.177 604.373 304.52 605.54 306.598C604.373 308.677 603.76 311.02 603.76 313.403C603.76 315.787 604.373 318.13 605.54 320.208C604.349 322.275 603.734 324.623 603.76 327.008C603.76 333.158 607.57 338.148 612.27 338.148C616.97 338.148 620.77 333.148 620.77 327.008C620.794 324.625 620.183 322.278 619 320.208C620.158 318.127 620.765 315.785 620.765 313.403C620.765 311.022 620.158 308.68 619 306.598C620.158 304.517 620.765 302.175 620.765 299.793C620.765 297.412 620.158 295.07 619 292.988Z" fill="#3F3D56"/>
<path opacity="0.4" d="M580.44 160.838C579.272 159.363 578.213 157.806 577.27 156.178L599.62 152.508L575.45 152.688C573.131 147.642 571.866 142.176 571.732 136.624C571.598 131.072 572.598 125.551 574.67 120.398L607.1 137.228L577.19 115.228C579.987 110.377 583.754 106.153 588.257 102.822C592.759 99.4915 597.899 97.1244 603.357 95.8688C608.815 94.6132 614.473 94.4961 619.978 95.5248C625.483 96.5535 630.717 98.7059 635.353 101.848C639.989 104.989 643.928 109.053 646.924 113.785C649.919 118.517 651.907 123.815 652.764 129.35C653.62 134.885 653.327 140.536 651.901 145.952C650.476 151.368 647.95 156.432 644.48 160.828C646.29 163.133 647.849 165.623 649.13 168.258L620.13 183.328L651.06 172.948C653.233 179.369 653.77 186.23 652.622 192.911C651.475 199.591 648.68 205.88 644.49 211.208C649.224 217.216 652.171 224.435 652.993 232.039C653.816 239.643 652.482 247.325 649.144 254.206C645.805 261.087 640.597 266.89 634.114 270.95C627.632 275.009 620.138 277.162 612.49 277.162C604.842 277.162 597.348 275.009 590.866 270.95C584.383 266.89 579.175 261.087 575.836 254.206C572.498 247.325 571.164 239.643 571.987 232.039C572.809 224.435 575.756 217.216 580.49 211.208C574.84 204.027 571.769 195.155 571.769 186.018C571.769 176.881 574.84 168.009 580.49 160.828L580.44 160.838Z" fill="#47BAFF"/>
<path opacity="0.1" d="M653.2 186.028C653.214 195.167 650.141 204.043 644.48 211.218C649.214 217.226 652.16 224.445 652.983 232.049C653.806 239.653 652.472 247.335 649.134 254.216C645.795 261.097 640.587 266.9 634.104 270.96C627.622 275.019 620.128 277.172 612.48 277.172C604.832 277.172 597.338 275.019 590.856 270.96C584.373 266.9 579.165 261.097 575.826 254.216C572.488 247.335 571.154 239.653 571.976 232.049C572.799 224.445 575.746 217.226 580.48 211.218C575 204.288 653.2 181.458 653.2 186.028Z" fill="black"/>
<path opacity="0.5" d="M1029.4 269.646C1027.8 266.265 1026.97 262.429 1027 258.533C1027 248.494 1032.15 240.358 1038.51 240.358C1044.86 240.358 1050 248.494 1050 258.533C1050.03 262.429 1049.2 266.265 1047.6 269.646C1049.17 273.038 1050 276.862 1050 280.752C1050 284.642 1049.17 288.466 1047.6 291.858C1049.17 295.251 1050 299.075 1050 302.965C1050 306.854 1049.17 310.679 1047.6 314.071C1049.2 317.451 1050.03 321.287 1050 325.183C1050 335.21 1044.85 343.358 1038.51 343.358C1032.16 343.358 1027 335.21 1027 325.183C1026.97 321.287 1027.8 317.451 1029.4 314.071C1027.83 310.679 1027 306.854 1027 302.965C1027 299.075 1027.83 295.251 1029.4 291.858C1027.83 288.466 1027 284.642 1027 280.752C1027 276.862 1027.83 273.038 1029.4 269.646Z" fill="#3F3D56"/>
<path opacity="0.4" d="M1081.64 88.5883C1083.2 86.6115 1084.61 84.5262 1085.88 82.3483L1055.98 77.4383L1088.32 77.6783C1091.41 70.9242 1093.1 63.6094 1093.27 56.1814C1093.44 48.7534 1092.1 41.3685 1089.32 34.4783L1045.93 56.9883L1085.93 27.5683C1082.21 21.0308 1077.18 15.3333 1071.15 10.8338C1065.12 6.33443 1058.23 3.13044 1050.91 1.42327C1043.58 -0.28389 1035.98 -0.457313 1028.59 0.913906C1021.19 2.28512 1014.16 5.17134 1007.94 9.39111C1001.71 13.6109 996.424 19.073 992.411 25.434C988.398 31.7951 985.744 38.9175 984.616 46.3537C983.489 53.7899 983.911 61.3789 985.858 68.6438C987.805 75.9087 991.233 82.6923 995.928 88.5683C993.504 91.6485 991.418 94.9811 989.708 98.5083L1028.54 118.728L987.148 104.838C984.239 113.43 983.519 122.612 985.054 131.552C986.589 140.493 990.33 148.909 995.938 156.038C989.612 164.08 985.676 173.74 984.581 183.913C983.486 194.086 985.276 204.362 989.746 213.566C994.216 222.769 1001.19 230.53 1009.86 235.959C1018.53 241.388 1028.56 244.267 1038.79 244.267C1049.02 244.267 1059.05 241.388 1067.72 235.959C1076.39 230.53 1083.36 222.769 1087.83 213.566C1092.3 204.362 1094.09 194.086 1093 183.913C1091.9 173.74 1087.96 164.08 1081.64 156.038C1089.2 146.428 1093.31 134.556 1093.31 122.328C1093.31 110.101 1089.2 98.2283 1081.64 88.6183V88.5883Z" fill="#47BAFF"/>
<path opacity="0.1" d="M983 122.804C982.98 135.034 987.093 146.913 994.67 156.514C988.344 164.555 984.408 174.215 983.313 184.388C982.218 194.561 984.008 204.837 988.478 214.041C992.948 223.245 999.918 231.005 1008.59 236.434C1017.26 241.863 1027.29 244.743 1037.52 244.743C1047.75 244.743 1057.78 241.863 1066.45 236.434C1075.12 231.005 1082.09 223.245 1086.56 214.041C1091.03 204.837 1092.82 194.561 1091.73 184.388C1090.63 174.215 1086.7 164.555 1080.37 156.514C1087.68 147.234 983 116.684 983 122.804Z" fill="black"/>
<path opacity="0.5" d="M921.978 286.461C920.656 283.87 919.974 280.931 920.001 277.947C920.001 270.247 924.256 264 929.494 264C934.733 264 938.999 270.26 938.999 277.947C939.028 280.933 938.341 283.873 937.011 286.461C938.314 289.062 938.999 291.996 938.999 294.98C938.999 297.964 938.314 300.898 937.011 303.5C938.314 306.102 938.999 309.036 938.999 312.02C938.999 315.004 938.314 317.938 937.011 320.539C938.341 323.127 939.028 326.067 938.999 329.053C938.999 336.753 934.744 343 929.494 343C924.245 343 920.001 336.74 920.001 329.053C919.974 326.069 920.656 323.13 921.978 320.539C920.685 317.934 920.006 315.001 920.006 312.02C920.006 309.038 920.685 306.106 921.978 303.5C920.685 300.894 920.006 297.962 920.006 294.98C920.006 291.999 920.685 289.066 921.978 286.461Z" fill="#3F3D56"/>
<path opacity="0.4" d="M960.803 152.007C961.971 150.532 963.03 148.975 963.973 147.347L941.623 143.677L965.793 143.857C968.112 138.81 969.377 133.344 969.511 127.792C969.645 122.24 968.645 116.719 966.573 111.567L934.143 128.397L964.053 106.397C961.256 101.545 957.489 97.3219 952.986 93.991C948.484 90.6601 943.344 88.2929 937.886 87.0373C932.428 85.7817 926.77 85.6646 921.265 86.6933C915.76 87.722 910.526 89.8744 905.89 93.0161C901.254 96.1579 897.315 100.222 894.319 104.953C891.324 109.685 889.336 114.984 888.479 120.519C887.623 126.053 887.916 131.705 889.342 137.121C890.767 142.537 893.293 147.601 896.763 151.997C894.953 154.301 893.395 156.792 892.113 159.427L921.113 174.497L890.243 164.127C888.071 170.548 887.534 177.409 888.681 184.089C889.828 190.77 892.623 197.059 896.813 202.387C892.08 208.394 889.133 215.613 888.31 223.217C887.487 230.821 888.821 238.503 892.16 245.385C895.498 252.266 900.707 258.068 907.189 262.128C913.671 266.188 921.165 268.341 928.813 268.341C936.462 268.341 943.956 266.188 950.438 262.128C956.92 258.068 962.128 252.266 965.467 245.385C968.805 238.503 970.14 230.821 969.317 223.217C968.494 215.613 965.547 208.394 960.813 202.387C966.463 195.206 969.534 186.334 969.534 177.197C969.534 168.06 966.463 159.188 960.813 152.007H960.803Z" fill="#47BAFF"/>
<path opacity="0.1" d="M888.8 178.028C888.786 187.167 891.859 196.043 897.52 203.218C892.786 209.226 889.839 216.445 889.017 224.049C888.194 231.653 889.528 239.335 892.866 246.216C896.205 253.097 901.413 258.9 907.895 262.96C914.378 267.019 921.872 269.172 929.52 269.172C937.168 269.172 944.662 267.019 951.144 262.96C957.627 258.9 962.835 253.097 966.174 246.216C969.512 239.335 970.846 231.653 970.023 224.049C969.201 216.445 966.254 209.226 961.52 203.218C967 196.288 888.8 173.458 888.8 178.028Z" fill="black"/>
<path opacity="0.4" d="M178.23 287.186C179.413 284.858 180.023 282.217 179.999 279.535C179.999 272.615 176.202 267 171.505 267C166.808 267 163.001 272.626 163.001 279.535C162.98 282.218 163.594 284.859 164.779 287.186C163.613 289.524 163.001 292.161 163.001 294.843C163.001 297.525 163.613 300.162 164.779 302.5C163.613 304.838 163.001 307.475 163.001 310.157C163.001 312.839 163.613 315.476 164.779 317.814C163.594 320.141 162.98 322.782 163.001 325.465C163.001 332.385 166.808 338 171.505 338C176.202 338 179.999 332.374 179.999 325.465C180.023 322.783 179.413 320.142 178.23 317.814C179.387 315.472 179.994 312.837 179.994 310.157C179.994 307.477 179.387 304.842 178.23 302.5C179.387 300.158 179.994 297.523 179.994 294.843C179.994 292.163 179.387 289.528 178.23 287.186Z" fill="#3F3D56"/>
<path opacity="0.4" d="M139.6 151.838C138.436 150.361 137.376 148.804 136.43 147.178L158.78 143.508L134.61 143.688C132.291 138.642 131.026 133.176 130.892 127.624C130.758 122.072 131.758 116.551 133.83 111.398L166.26 128.228L136.35 106.228C139.147 101.377 142.914 97.1533 147.417 93.8224C151.919 90.4915 157.059 88.1244 162.517 86.8688C167.975 85.6132 173.633 85.4961 179.138 86.5248C184.643 87.5535 189.877 89.7059 194.513 92.8476C199.149 95.9894 203.088 100.053 206.084 104.785C209.079 109.517 211.067 114.815 211.924 120.35C212.78 125.885 212.487 131.536 211.061 136.952C209.636 142.368 207.11 147.432 203.64 151.828C205.457 154.128 207.016 156.619 208.29 159.258L179.29 174.328L210.22 163.948C212.392 170.369 212.929 177.23 211.782 183.911C210.635 190.591 207.84 196.88 203.65 202.208C208.384 208.216 211.33 215.435 212.153 223.039C212.976 230.643 211.642 238.325 208.304 245.206C204.965 252.087 199.757 257.89 193.274 261.95C186.792 266.009 179.298 268.162 171.65 268.162C164.002 268.162 156.508 266.009 150.025 261.95C143.543 257.89 138.335 252.087 134.996 245.206C131.658 238.325 130.324 230.643 131.146 223.039C131.969 215.435 134.916 208.216 139.65 202.208C134 195.027 130.929 186.155 130.929 177.018C130.929 167.881 134 159.009 139.65 151.828L139.6 151.838Z" fill="#47BAFF"/>
<path opacity="0.05" d="M212.36 178.028C212.373 187.167 209.301 196.043 203.64 203.218C208.374 209.226 211.32 216.445 212.143 224.049C212.966 231.653 211.632 239.335 208.293 246.216C204.955 253.097 199.746 258.9 193.264 262.96C186.782 267.019 179.288 269.172 171.64 269.172C163.991 269.172 156.498 267.019 150.015 262.96C143.533 258.9 138.325 253.097 134.986 246.216C131.648 239.335 130.313 231.653 131.136 224.049C131.959 216.445 134.906 209.226 139.64 203.218C134.14 196.288 212.36 173.458 212.36 178.028Z" fill="black"/>
<path opacity="0.4" d="M548 507.348C850.652 507.348 1096 503.382 1096 498.488C1096 493.595 850.652 489.628 548 489.628C245.348 489.628 0 493.595 0 498.488C0 503.382 245.348 507.348 548 507.348Z" fill="#47BAFF"/>
<path opacity="0.4" d="M548 580.098C850.652 580.098 1096 576.132 1096 571.238C1096 566.345 850.652 562.378 548 562.378C245.348 562.378 0 566.345 0 571.238C0 576.132 245.348 580.098 548 580.098Z" fill="#47BAFF"/>
<path opacity="0.4" d="M548 355.518C850.652 355.518 1096 351.552 1096 346.658C1096 341.765 850.652 337.798 548 337.798C245.348 337.798 0 341.765 0 346.658C0 351.552 245.348 355.518 548 355.518Z" fill="#47BAFF"/>
<path opacity="0.4" d="M548 431.428C850.652 431.428 1096 427.462 1096 422.568C1096 417.675 850.652 413.708 548 413.708C245.348 413.708 0 417.675 0 422.568C0 427.462 245.348 431.428 548 431.428Z" fill="#47BAFF"/>
<path opacity="0.1" d="M808.79 115.728C805.22 115.054 801.53 115.458 798.19 116.888C796.185 117.782 794.015 118.243 791.82 118.243C789.625 118.243 787.455 117.782 785.45 116.888C783.078 115.847 780.508 115.334 777.918 115.384C775.328 115.434 772.78 116.046 770.45 117.178C769.123 117.884 767.643 118.254 766.14 118.258C760.06 118.258 755.01 112.138 753.96 104.068C755.157 103.176 756.174 102.067 756.96 100.798C760.52 95.0583 766.03 91.3683 772.23 91.3683C778.43 91.3683 783.87 95.0083 787.43 100.688C788.49 102.404 789.977 103.817 791.745 104.788C793.513 105.758 795.503 106.255 797.52 106.228H797.68C802.57 106.178 806.76 110.058 808.79 115.728Z" fill="#47BAFF"/>
<path opacity="0.4" d="M827.3 90.3783L817.48 96.5983L823.48 85.7583C821.79 84.4133 819.7 83.6707 817.54 83.6483H817.38C816.71 83.6574 816.041 83.6072 815.38 83.4983L812 85.6083L813.43 83.0083C811.067 82.1905 809.025 80.6426 807.6 78.5883L801.6 82.3683L805.36 75.5283C801.88 71.3483 797.18 68.7883 792.02 68.7883C785.82 68.7883 780.31 72.4683 776.74 78.2083C775.688 79.9246 774.2 81.332 772.428 82.2874C770.656 83.2428 768.662 83.7124 766.65 83.6483H766.32C759.48 83.6483 753.94 91.3983 753.94 100.958C753.94 110.518 759.48 118.278 766.32 118.278C767.822 118.268 769.3 117.898 770.63 117.198C772.959 116.063 775.507 115.449 778.097 115.397C780.687 115.345 783.258 115.857 785.63 116.898C787.633 117.798 789.804 118.263 792 118.263C794.196 118.263 796.367 117.798 798.37 116.898C800.723 115.881 803.268 115.38 805.831 115.43C808.395 115.48 810.918 116.08 813.23 117.188C814.545 117.877 816.006 118.24 817.49 118.248C824.33 118.248 829.87 110.488 829.87 100.928C829.911 97.2518 829.028 93.6239 827.3 90.3783Z" fill="#47BAFF"/>
<path opacity="0.1" d="M391.26 110.318C388.758 109.846 386.172 110.128 383.83 111.128C382.428 111.755 380.91 112.078 379.375 112.078C377.84 112.078 376.322 111.755 374.92 111.128C373.261 110.4 371.463 110.041 369.652 110.077C367.84 110.114 366.058 110.544 364.43 111.338C363.503 111.822 362.475 112.079 361.43 112.088C357.18 112.088 353.64 107.808 352.9 102.158C353.748 101.536 354.471 100.759 355.03 99.8683C357.52 95.8683 361.38 93.2683 365.72 93.2683C370.06 93.2683 373.87 95.8183 376.36 99.7883C377.104 100.99 378.145 101.979 379.384 102.659C380.623 103.339 382.017 103.687 383.43 103.668H383.54C386.9 103.648 389.83 106.368 391.26 110.318Z" fill="#47BAFF"/>
<path opacity="0.5" d="M404.21 92.5883L397.34 96.9483L401.51 89.3583C400.331 88.4147 398.87 87.8936 397.36 87.8783H397.24C396.764 87.8868 396.289 87.85 395.82 87.7683L393.49 89.2483L394.49 87.4283C392.838 86.8538 391.411 85.7724 390.41 84.3383L386.24 86.9783L388.88 82.1983C387.771 80.7667 386.358 79.5995 384.743 78.7815C383.127 77.9634 381.35 77.5148 379.54 77.4683C375.2 77.4683 371.34 80.0483 368.85 84.0683C368.112 85.2702 367.069 86.2557 365.828 86.9248C364.586 87.5939 363.19 87.9228 361.78 87.8783H361.55C356.76 87.8783 352.88 93.2983 352.88 99.9983C352.88 106.698 356.76 112.118 361.55 112.118C362.597 112.11 363.626 111.849 364.55 111.358C366.178 110.568 367.959 110.141 369.768 110.107C371.577 110.072 373.373 110.431 375.03 111.158C376.44 111.802 377.97 112.142 379.52 112.158C381.046 112.156 382.555 111.836 383.95 111.218C385.597 110.506 387.378 110.155 389.172 110.189C390.966 110.224 392.732 110.643 394.35 111.418C395.276 111.903 396.305 112.157 397.35 112.158C402.13 112.158 406.01 106.728 406.01 100.038C406.05 97.4426 405.431 94.8792 404.21 92.5883Z" fill="#47BAFF"/>
<path opacity="0.1" d="M269.59 188.728C272.089 188.256 274.672 188.538 277.01 189.538C278.413 190.165 279.933 190.489 281.47 190.489C283.007 190.489 284.527 190.165 285.93 189.538C287.589 188.811 289.386 188.452 291.197 188.486C293.008 188.521 294.79 188.948 296.42 189.738C297.344 190.231 298.373 190.491 299.42 190.498C303.67 190.498 307.21 186.208 307.94 180.558C307.092 179.939 306.373 179.161 305.82 178.268C303.32 174.268 299.46 171.678 295.13 171.678C290.8 171.678 286.98 174.218 284.48 178.198C283.737 179.399 282.697 180.387 281.46 181.066C280.223 181.746 278.831 182.095 277.42 182.078H277.31C273.94 182.098 271 184.808 269.59 188.728Z" fill="#47BAFF"/>
<path opacity="0.4" d="M256.63 171.028L263.51 175.388L259.33 167.808C260.512 166.862 261.976 166.337 263.49 166.318H263.6C264.079 166.325 264.557 166.292 265.03 166.218L267.36 167.688L266.36 165.878C268.008 165.303 269.432 164.221 270.43 162.788L274.6 165.428L272 160.638C273.109 159.208 274.523 158.042 276.138 157.226C277.754 156.41 279.53 155.963 281.34 155.918C285.67 155.918 289.54 158.498 292.03 162.518C292.767 163.719 293.808 164.703 295.048 165.372C296.288 166.041 297.682 166.371 299.09 166.328H299.33C304.11 166.328 307.99 171.758 307.99 178.448C307.99 185.138 304.11 190.568 299.33 190.568C298.284 190.564 297.255 190.306 296.33 189.818C294.701 189.024 292.92 188.594 291.108 188.557C289.297 188.521 287.499 188.88 285.84 189.608C284.435 190.257 282.907 190.598 281.36 190.608C279.831 190.607 278.319 190.287 276.92 189.668C275.275 188.956 273.496 188.605 271.703 188.639C269.911 188.674 268.146 189.093 266.53 189.868C265.604 190.353 264.575 190.607 263.53 190.608C258.74 190.608 254.86 185.188 254.86 178.488C254.813 175.892 255.422 173.327 256.63 171.028Z" fill="#47BAFF"/>
<path d="M664.31 495.618C666.92 490.778 663.96 484.858 660.56 480.548C657.16 476.238 653 471.748 653.09 466.258C653.22 458.368 661.6 453.698 668.29 449.518C673.258 446.403 677.84 442.711 681.94 438.518C683.655 436.904 685.073 435.002 686.13 432.898C687.52 429.818 687.48 426.298 687.39 422.898C687.103 411.638 686.547 400.385 685.72 389.138" stroke="#3F3D56" stroke-width="4" stroke-miterlimit="10"/>
<path d="M698.45 388.578C698.353 386.516 697.74 384.51 696.665 382.747C695.59 380.984 694.089 379.519 692.3 378.488L689.54 383.938L689.63 377.338C687.127 376.601 684.454 376.679 681.998 377.559C679.542 378.44 677.429 380.079 675.965 382.238C674.5 384.398 673.76 386.967 673.851 389.574C673.941 392.182 674.858 394.694 676.469 396.746C678.08 398.799 680.301 400.287 682.812 400.995C685.324 401.703 687.995 401.595 690.441 400.686C692.887 399.777 694.981 398.115 696.42 395.938C697.86 393.762 698.571 391.185 698.45 388.578Z" fill="#47BAFF"/>
<path d="M676.49 471.898C675.252 474.305 673.255 476.237 670.808 477.394C668.361 478.552 665.601 478.871 662.955 478.301C660.308 477.732 657.924 476.306 656.169 474.245C654.415 472.184 653.389 469.602 653.25 466.898C653.158 465.194 653.431 463.489 654.05 461.898C654.957 459.578 656.545 457.587 658.606 456.189C660.667 454.79 663.104 454.048 665.595 454.063C668.086 454.077 670.514 454.845 672.559 456.267C674.604 457.69 676.17 459.698 677.05 462.028L669.36 468.288L677.82 466.288C677.83 468.238 677.374 470.161 676.49 471.898Z" fill="#47BAFF"/>
<path d="M670.41 447.998C667.389 448.141 664.421 447.166 662.073 445.26C659.725 443.354 658.16 440.65 657.678 437.665C657.196 434.679 657.83 431.62 659.459 429.072C661.088 426.524 663.598 424.664 666.51 423.848L666.44 428.918L669.23 423.398C672.492 423.246 675.681 424.396 678.096 426.594C680.51 428.793 681.952 431.861 682.105 435.123C682.257 438.386 681.108 441.575 678.909 443.989C676.71 446.404 673.642 447.846 670.38 447.998H670.41Z" fill="#47BAFF"/>
<path d="M700.3 428.108C698.391 428.207 696.486 427.86 694.735 427.094C692.984 426.329 691.435 425.166 690.211 423.699C688.987 422.231 688.121 420.498 687.683 418.638C687.245 416.778 687.245 414.841 687.685 412.981C688.125 411.121 688.992 409.39 690.217 407.923C691.443 406.456 692.992 405.295 694.744 404.531C696.496 403.767 698.402 403.421 700.31 403.522C702.219 403.622 704.078 404.165 705.74 405.108L703.57 411.108L708 406.728C709.792 408.371 711.057 410.507 711.636 412.868C712.216 415.229 712.083 417.708 711.255 419.994C710.427 422.28 708.942 424.269 706.985 425.711C705.028 427.153 702.688 427.984 700.26 428.098L700.3 428.108Z" fill="#47BAFF"/>
<path opacity="0.1" d="M696.79 391.858C693.95 392.168 691.19 393.048 688.33 393.228C685.47 393.408 682.33 392.718 680.55 390.508C679.713 389.221 678.952 387.885 678.27 386.508C677.493 385.295 676.428 384.292 675.17 383.588C674.374 385.148 673.919 386.861 673.838 388.61C673.756 390.36 674.048 392.107 674.696 393.735C675.343 395.362 676.33 396.833 677.591 398.049C678.853 399.264 680.359 400.197 682.009 400.784C683.659 401.371 685.416 401.598 687.162 401.452C688.907 401.306 690.601 400.789 692.131 399.936C693.661 399.082 694.991 397.912 696.032 396.504C697.074 395.095 697.802 393.481 698.17 391.768C697.72 391.778 697.25 391.808 696.79 391.858Z" fill="black"/>
<path opacity="0.1" d="M700.3 428.108C698.177 428.209 696.065 427.758 694.168 426.8C692.272 425.842 690.655 424.41 689.476 422.642C688.297 420.874 687.596 418.831 687.441 416.712C687.285 414.593 687.681 412.469 688.59 410.548C689.566 411.208 690.405 412.05 691.06 413.028C691.795 414.43 692.61 415.789 693.5 417.098C695.42 419.348 698.7 420.098 701.67 419.948C704.64 419.798 707.51 418.948 710.47 418.698C710.88 418.698 711.29 418.638 711.71 418.628C711.098 421.234 709.652 423.569 707.593 425.28C705.534 426.991 702.974 427.984 700.3 428.108Z" fill="black"/>
<path opacity="0.1" d="M670.41 447.998C668.309 448.097 666.219 447.655 664.337 446.716C662.455 445.777 660.846 444.372 659.661 442.634C658.477 440.896 657.758 438.884 657.572 436.789C657.386 434.695 657.74 432.587 658.6 430.668C659.615 431.336 660.499 432.183 661.21 433.168C662.016 434.604 662.908 435.99 663.88 437.318C665.95 439.628 669.45 440.448 672.59 440.318C675.73 440.188 678.59 439.508 681.59 439.318C680.843 441.738 679.37 443.869 677.37 445.422C675.369 446.975 672.939 447.875 670.41 447.998Z" fill="black"/>
<path opacity="0.1" d="M676.49 471.898C675.252 474.305 673.255 476.237 670.808 477.394C668.361 478.552 665.601 478.871 662.955 478.301C660.308 477.732 657.924 476.306 656.169 474.245C654.415 472.184 653.389 469.602 653.25 466.898C653.158 465.194 653.431 463.489 654.05 461.898C655.064 462.564 655.974 463.376 656.75 464.308C657.92 465.728 658.69 467.308 660.05 468.678C662.56 471.148 666.63 472.168 670.24 472.258C672.329 472.265 674.416 472.144 676.49 471.898Z" fill="black"/>
<path d="M68.3101 423.618C70.9201 418.778 67.9601 412.858 64.5601 408.548C61.1601 404.238 57.0001 399.728 57.0901 394.258C57.2201 386.368 65.6001 381.698 72.2901 377.518C77.2582 374.403 81.8401 370.711 85.9401 366.518C87.6547 364.904 89.0728 363.002 90.1301 360.898C91.5201 357.818 91.4801 354.298 91.3901 350.898C91.0967 339.638 90.5401 328.385 89.7201 317.138" stroke="#3F3D56" stroke-width="4" stroke-miterlimit="10"/>
<path d="M102.45 316.578C102.353 314.516 101.74 312.51 100.665 310.747C99.5901 308.984 98.0891 307.519 96.3 306.488L93.54 311.938L93.63 305.338C91.1269 304.601 88.4545 304.679 85.9983 305.559C83.5421 306.44 81.4293 308.079 79.9648 310.238C78.5004 312.398 77.76 314.967 77.8506 317.574C77.9411 320.182 78.858 322.694 80.4688 324.746C82.0796 326.799 84.301 328.287 86.8123 328.995C89.3237 329.703 91.9951 329.595 94.441 328.686C96.8869 327.777 98.9807 326.115 100.42 323.938C101.86 321.762 102.571 319.185 102.45 316.578Z" fill="#47BAFF"/>
<path d="M81.2574 399.836C80.0191 402.243 78.022 404.175 75.5752 405.332C73.1284 406.49 70.3682 406.808 67.722 406.239C65.0758 405.67 62.691 404.244 60.9367 402.183C59.1824 400.121 58.1564 397.539 58.0174 394.836C57.9254 393.131 58.1982 391.427 58.8174 389.836C59.724 387.516 61.3126 385.525 63.3736 384.126C65.4346 382.727 67.8712 381.986 70.3621 382C72.853 382.014 75.2811 382.783 77.3261 384.205C79.3712 385.627 80.9371 387.636 81.8174 389.966L74.1274 396.226L82.5874 394.226C82.5971 396.175 82.1412 398.099 81.2574 399.836Z" fill="#47BAFF"/>
<path d="M69.41 375.998C66.389 376.141 63.4213 375.166 61.0731 373.26C58.7248 371.354 57.1604 368.65 56.6782 365.664C56.1961 362.679 56.8299 359.62 58.4588 357.072C60.0878 354.524 62.5978 352.664 65.51 351.848L65.44 356.918L68.23 351.398C69.8453 351.323 71.4596 351.566 72.9808 352.115C74.502 352.663 75.9003 353.506 77.0959 354.594C78.2914 355.683 79.2608 356.997 79.9487 358.46C80.6366 359.923 81.0295 361.508 81.105 363.123C81.1805 364.739 80.9372 366.353 80.3888 367.874C79.8404 369.395 78.9978 370.794 77.909 371.989C76.8203 373.185 75.5067 374.154 74.0433 374.842C72.5799 375.53 70.9953 375.923 69.38 375.998H69.41Z" fill="#47BAFF"/>
<path d="M104.3 356.108C102.391 356.207 100.486 355.86 98.7348 355.094C96.9836 354.329 95.4347 353.166 94.2107 351.699C92.9867 350.231 92.1212 348.498 91.6829 346.638C91.2446 344.778 91.2454 342.841 91.6853 340.981C92.1252 339.121 92.9921 337.39 94.2173 335.923C95.4425 334.456 96.9924 333.295 98.7443 332.531C100.496 331.767 102.402 331.421 104.31 331.522C106.219 331.622 108.078 332.165 109.74 333.108L107.57 339.108L112 334.728C113.792 336.371 115.057 338.507 115.636 340.868C116.216 343.229 116.083 345.708 115.255 347.994C114.427 350.28 112.942 352.269 110.985 353.711C109.028 355.153 106.688 355.984 104.26 356.098L104.3 356.108Z" fill="#47BAFF"/>
<path opacity="0.1" d="M100.79 319.858C97.95 320.168 95.19 321.048 92.33 321.228C89.47 321.408 86.33 320.718 84.55 318.508C83.7129 317.22 82.9516 315.885 82.27 314.508C81.4926 313.295 80.4278 312.292 79.17 311.588C78.3736 313.148 77.9193 314.861 77.8375 316.61C77.7557 318.36 78.0483 320.107 78.6956 321.735C79.343 323.362 80.3302 324.833 81.5915 326.049C82.8527 327.264 84.3588 328.197 86.0091 328.784C87.6595 329.37 89.4161 329.598 91.1617 329.452C92.9072 329.306 94.6014 328.789 96.1311 327.936C97.6609 327.082 98.9908 325.912 100.032 324.504C101.074 323.095 101.802 321.481 102.17 319.768C101.72 319.778 101.25 319.808 100.79 319.858Z" fill="black"/>
<path opacity="0.1" d="M103.892 355.56C101.77 355.66 99.6572 355.21 97.7605 354.252C95.8638 353.294 94.2473 351.861 93.0684 350.093C91.8894 348.326 91.1882 346.283 91.0329 344.163C90.8776 342.044 91.2736 339.921 92.1822 338C93.1581 338.659 93.9969 339.501 94.6522 340.48C95.3876 341.882 96.2023 343.241 97.0922 344.55C99.0122 346.8 102.292 347.55 105.262 347.4C108.232 347.25 111.102 346.4 114.062 346.15C114.472 346.15 114.882 346.09 115.302 346.08C114.69 348.686 113.244 351.021 111.186 352.732C109.127 354.442 106.566 355.435 103.892 355.56Z" fill="black"/>
<path opacity="0.1" d="M69.41 375.998C67.3094 376.097 65.2186 375.655 63.337 374.716C61.4554 373.777 59.8457 372.372 58.6615 370.634C57.4772 368.896 56.7579 366.884 56.5721 364.789C56.3863 362.695 56.7402 360.587 57.6 358.668C58.6147 359.336 59.4991 360.183 60.21 361.168C61.0164 362.604 61.908 363.99 62.88 365.318C64.95 367.628 68.45 368.448 71.59 368.318C74.73 368.188 77.59 367.508 80.59 367.318C79.8434 369.738 78.3698 371.869 76.3696 373.422C74.3693 374.975 71.9394 375.875 69.41 375.998Z" fill="black"/>
<path opacity="0.1" d="M81.2574 400C80.0191 402.407 78.022 404.339 75.5752 405.496C73.1284 406.653 70.3682 406.972 67.722 406.403C65.0758 405.834 62.691 404.408 60.9367 402.347C59.1824 400.285 58.1564 397.703 58.0174 395C57.9254 393.295 58.1982 391.591 58.8174 390C59.8314 390.666 60.7413 391.478 61.5174 392.41C62.6874 393.83 63.4574 395.41 64.8174 396.78C67.3274 399.25 71.3974 400.27 75.0074 400.36C77.0961 400.366 79.1833 400.246 81.2574 400Z" fill="black"/>
<path d="M379.52 341.248C376.91 336.418 379.87 330.498 383.28 326.188C386.69 321.878 390.83 317.388 390.74 311.898C390.62 303.998 382.24 299.338 375.54 295.158C370.574 292.045 365.995 288.352 361.9 284.158C360.177 282.553 358.755 280.653 357.7 278.548C356.32 275.458 356.36 271.948 356.44 268.548C356.74 257.288 357.297 246.035 358.11 234.788" stroke="#3F3D56" stroke-width="4" stroke-miterlimit="10"/>
<path d="M346.39 234.218C346.485 232.156 347.097 230.151 348.17 228.388C349.243 226.625 350.742 225.16 352.53 224.128L355.29 229.578L355.21 222.978C356.524 222.596 357.892 222.431 359.26 222.488C361.692 222.602 364.035 223.433 365.994 224.879C367.954 226.324 369.44 228.317 370.266 230.607C371.093 232.897 371.221 235.381 370.636 237.744C370.051 240.107 368.778 242.243 366.979 243.883C365.18 245.523 362.935 246.592 360.528 246.957C358.121 247.321 355.66 246.963 353.456 245.928C351.252 244.894 349.405 243.229 348.147 241.145C346.889 239.061 346.278 236.65 346.39 234.218Z" fill="#47BAFF"/>
<path d="M367.34 317.538C368.631 320.051 370.746 322.043 373.331 323.181C375.916 324.319 378.813 324.533 381.538 323.788C384.262 323.043 386.647 321.383 388.293 319.088C389.939 316.793 390.746 314.002 390.578 311.182C390.41 308.363 389.278 305.687 387.371 303.603C385.465 301.52 382.899 300.155 380.106 299.739C377.312 299.322 374.461 299.878 372.029 301.315C369.597 302.752 367.733 304.981 366.75 307.628L374.44 313.888L365.98 311.888C365.973 313.854 366.44 315.791 367.34 317.538Z" fill="#47BAFF"/>
<path d="M378.42 293.638C381.442 293.784 384.412 292.811 386.762 290.906C389.113 289.001 390.679 286.297 391.163 283.31C391.647 280.323 391.013 277.263 389.384 274.714C387.755 272.164 385.244 270.304 382.33 269.488L382.39 274.558L379.6 269.038C376.339 268.878 373.148 270.019 370.729 272.212C368.31 274.404 366.861 277.467 366.7 280.728C366.63 282.149 366.809 283.57 367.23 284.928C367.968 287.358 369.44 289.499 371.444 291.058C373.447 292.618 375.884 293.519 378.42 293.638Z" fill="#47BAFF"/>
<path d="M342.54 273.728C344.448 273.826 346.353 273.477 348.104 272.711C349.854 271.944 351.402 270.781 352.625 269.313C353.848 267.845 354.712 266.112 355.149 264.252C355.587 262.392 355.585 260.455 355.144 258.596C354.704 256.737 353.836 255.005 352.611 253.539C351.385 252.073 349.836 250.913 348.084 250.149C346.332 249.386 344.427 249.041 342.519 249.141C340.61 249.242 338.752 249.785 337.09 250.728L339.27 256.728L334.79 252.438C333.595 253.521 332.626 254.829 331.94 256.288C331.253 257.747 330.863 259.328 330.79 260.938C330.731 262.077 330.835 263.219 331.1 264.328C331.728 266.925 333.183 269.247 335.247 270.943C337.311 272.638 339.871 273.616 342.54 273.728Z" fill="#47BAFF"/>
<path opacity="0.1" d="M366.996 232.395C367.635 231.41 368.474 230.573 369.458 229.939C370.079 231.303 370.436 232.775 370.507 234.276C370.586 235.956 370.305 237.633 369.684 239.196C369.063 240.758 368.115 242.17 366.904 243.337C365.693 244.504 364.247 245.398 362.663 245.961C361.078 246.524 359.392 246.742 357.716 246.601C356.041 246.459 354.415 245.961 352.947 245.141C351.479 244.32 350.203 243.196 349.205 241.843C348.337 240.666 347.696 239.339 347.314 237.932C347.536 237.949 347.764 237.971 347.996 237.995C349.249 238.132 350.486 238.382 351.748 238.637C351.889 238.665 352.031 238.694 352.173 238.722C353.574 239.004 355.006 239.275 356.469 239.367C359.388 239.552 362.74 238.857 364.679 236.463L364.695 236.442L364.71 236.42C365.549 235.124 366.312 233.78 366.996 232.395Z" fill="black" stroke="black"/>
<path opacity="0.1" d="M342.54 273.728C344.662 273.826 346.772 273.373 348.667 272.415C350.563 271.456 352.178 270.024 353.356 268.257C354.534 266.49 355.236 264.448 355.392 262.33C355.549 260.212 355.156 258.089 354.25 256.168C353.271 256.827 352.429 257.669 351.77 258.648C351.035 260.05 350.22 261.409 349.33 262.718C347.42 264.968 344.14 265.718 341.17 265.568C338.2 265.418 335.33 264.568 332.37 264.318C331.96 264.318 331.54 264.258 331.13 264.248C331.741 266.855 333.186 269.191 335.245 270.902C337.304 272.613 339.866 273.605 342.54 273.728Z" fill="black"/>
<path opacity="0.1" d="M378.42 293.638C380.522 293.74 382.614 293.3 384.497 292.362C386.38 291.423 387.991 290.018 389.176 288.279C390.361 286.541 391.08 284.527 391.265 282.431C391.449 280.335 391.093 278.227 390.23 276.308C389.217 276.974 388.335 277.822 387.63 278.808C386.824 280.244 385.932 281.63 384.96 282.958C382.88 285.268 379.39 286.088 376.24 285.958C373.09 285.828 370.24 285.148 367.24 284.958C367.983 287.38 369.455 289.514 371.456 291.068C373.457 292.621 375.889 293.519 378.42 293.638Z" fill="black"/>
<path opacity="0.1" d="M367.34 317.538C368.785 320.324 371.239 322.453 374.201 323.489C377.163 324.526 380.409 324.392 383.276 323.115C386.143 321.838 388.413 319.514 389.624 316.619C390.835 313.724 390.894 310.476 389.79 307.538C388.772 308.198 387.861 309.011 387.09 309.948C385.92 311.368 385.09 312.948 383.79 314.318C381.27 316.788 377.21 317.808 373.59 317.898C371.501 317.899 369.415 317.779 367.34 317.538Z" fill="black"/>
<path d="M788.93 446.608C788.023 444.395 787.093 442.188 786.14 439.988C785.355 437.842 784.201 435.848 782.73 434.098C782.171 433.469 781.491 432.958 780.73 432.598C779.893 432.29 779.012 432.114 778.12 432.078C776.76 431.907 775.387 431.87 774.02 431.968C773.49 431.808 772.89 431.598 772.3 431.358C775.259 430.581 777.89 428.874 779.805 426.488C781.721 424.103 782.82 421.165 782.94 418.108C782.94 417.908 782.94 417.698 782.94 417.498C782.948 415.627 782.587 413.772 781.878 412.041C781.169 410.309 780.126 408.733 778.809 407.405C777.491 406.076 775.925 405.019 774.199 404.296C772.473 403.573 770.621 403.196 768.75 403.188C766.116 403.183 763.534 403.922 761.3 405.318C758.351 404.649 755.261 405 752.537 406.313C749.813 407.626 747.614 409.824 746.3 412.548C744.644 414.133 743.335 416.045 742.457 418.162C741.579 420.28 741.151 422.557 741.2 424.848C741.2 425.058 741.2 425.278 741.2 425.478C741.46 433.248 746.48 439.478 752.82 440.108C752.142 440.413 751.52 440.829 750.98 441.338C749.04 443.208 748.72 446.178 748.51 448.878L748.36 450.878L745 452.078C744.893 452.116 744.799 452.183 744.727 452.271C744.656 452.359 744.61 452.465 744.594 452.578C744.579 452.69 744.594 452.805 744.639 452.909C744.685 453.013 744.757 453.103 744.85 453.168L748.06 455.458C748.06 455.648 748.06 455.838 748.06 456.028C748.06 456.218 748.06 456.458 748.12 456.678C747.572 457.161 747.147 457.768 746.88 458.448C746.567 459.498 746.469 460.6 746.59 461.688L746.71 464.478C746.694 466.578 746.981 468.67 747.56 470.688C747.98 471.928 749.8 474.918 751.11 474.938C749.9 480.438 749.58 492.038 749.58 492.038C749.43 492.188 749.85 492.328 750.58 492.448C751.3 497.968 753.65 513.448 757.82 520.258C758.476 522.479 759.001 524.736 759.39 527.018C759.39 527.018 760.58 541.728 762.15 546.098C763.49 549.818 764.55 558.998 764.84 561.658C764.568 561.728 764.321 561.872 764.125 562.073C763.929 562.274 763.793 562.525 763.73 562.798C762.94 565.178 757.82 568.798 757.82 568.798C756.251 569.582 754.769 570.531 753.4 571.628C751.79 573.078 751.85 574.388 759 573.568C772.8 571.978 775.16 567.568 775.16 567.568C775.16 567.568 774.94 566.828 774.61 565.868C774.189 564.375 773.58 562.94 772.8 561.598C772.6 561.408 772.4 561.728 772.16 562.228C771.119 555.848 770.803 549.37 771.22 542.918C771.22 542.918 771.61 536.158 769.64 531.388C769.202 528.891 769.202 526.336 769.64 523.838C770.43 520.658 766.49 505.148 766.49 505.148L764.23 493.728C764.538 494.118 764.753 494.573 764.86 495.058L764.92 495.288L764.98 495.618C765.003 495.735 765.058 495.842 765.14 495.928C766.68 502.328 770.9 520.058 770.9 522.658C770.9 525.838 774.84 533.788 774.84 533.788C774.84 533.788 776.41 546.908 779.17 552.068C781.27 555.998 781.32 561.758 781.22 564.298C781.22 564.298 780.75 567.568 779.96 568.358C779.332 569.139 778.829 570.013 778.47 570.948L778.38 571.138C778.38 571.138 777.2 573.528 777.99 573.928C780.995 575.107 784.247 575.516 787.45 575.118C787.45 575.118 789.03 573.118 789.03 572.338C788.997 571.862 788.937 571.388 788.85 570.918C788.56 569.038 788.02 566.078 788.01 566.048C788.34 564.768 787.01 561.208 787.01 561.208L786.61 550.078C787.342 542.542 786.4 534.938 783.85 527.808C783.85 527.808 781.85 520.658 782.28 518.668C782.71 516.678 781.49 495.608 781.49 495.608L781.37 495.308C781.263 493.818 781.304 492.321 781.49 490.838C781.88 486.068 780.31 476.128 779.91 475.738C779.584 474.67 779.396 473.564 779.35 472.448C779.44 471.618 779.71 469.188 780.08 466.168C783.968 466.035 787.847 465.702 791.7 465.168C792.072 465.168 792.43 465.025 792.7 464.768C792.858 464.528 792.938 464.246 792.93 463.958C793.39 457.968 791.2 452.148 788.93 446.608ZM781 459.218C781.41 456.368 781.85 453.608 782.29 451.558L782.35 451.738C783.107 453.799 783.742 455.903 784.25 458.038C783.2 458.519 782.113 458.913 781 459.218Z" fill="url(#paint0_linear)"/>
<path d="M750.37 491.408C750.37 491.408 752.73 512.638 757.84 520.888C758.497 523.082 759.021 525.312 759.41 527.568C759.41 527.568 760.59 542.108 762.16 546.428C763.73 550.748 764.91 562.548 764.91 562.548C764.91 562.548 770.41 568.828 772.38 563.728C771.143 556.99 770.746 550.124 771.2 543.288C771.2 543.288 771.59 536.608 769.63 531.888C769.192 529.421 769.192 526.896 769.63 524.428C770.41 521.278 766.48 505.958 766.48 505.958L763.34 490.628L750.37 491.408Z" fill="#BE6F72"/>
<path d="M775.13 567.658C775.13 567.658 772.77 571.978 759.02 573.548C751.88 574.358 751.83 573.068 753.44 571.628C754.805 570.544 756.279 569.605 757.84 568.828C757.84 568.828 762.95 565.298 763.73 562.938C764.51 560.578 767.27 562.548 767.27 562.548C771.2 568.438 771.99 560.968 772.77 561.758C773.553 563.078 774.161 564.493 774.58 565.968C774.91 566.918 775.13 567.658 775.13 567.658Z" fill="#FF6F61"/>
<path opacity="0.1" d="M775.13 567.658C775.13 567.658 772.77 571.978 759.02 573.548C751.88 574.358 751.83 573.068 753.44 571.628C754.56 572.338 756.82 572.628 761.37 570.798C767.92 568.118 772.67 566.568 774.58 565.968C774.91 566.918 775.13 567.658 775.13 567.658Z" fill="black"/>
<path opacity="0.1" d="M771.2 543.288C771.2 543.288 771.59 536.608 769.63 531.888C769.192 529.421 769.192 526.896 769.63 524.428C770.41 521.278 766.48 505.958 766.48 505.958L763.34 490.628L760.62 490.788L763.73 505.958C763.73 505.958 767.66 521.278 766.88 524.428C766.442 526.896 766.442 529.421 766.88 531.888C768.88 536.608 768.45 543.288 768.45 543.288C767.996 550.124 768.393 556.99 769.63 563.728C769.417 564.368 769.021 564.932 768.49 565.348C769.95 566.008 771.49 565.978 772.38 563.728C771.143 556.99 770.746 550.124 771.2 543.288Z" fill="black"/>
<path d="M768.64 405.148C766.018 405.143 763.447 405.874 761.22 407.258C758.28 406.579 755.196 406.917 752.472 408.215C749.748 409.514 747.544 411.697 746.22 414.408C744.571 415.968 743.266 417.856 742.389 419.95C741.513 422.044 741.084 424.299 741.13 426.568C741.13 434.928 746.76 441.698 753.7 441.698C758.7 441.698 763.08 438.138 765.09 432.988C766.245 433.294 767.435 433.449 768.63 433.448C772.383 433.448 775.982 431.958 778.636 429.304C781.289 426.65 782.78 423.051 782.78 419.298C782.78 415.546 781.289 411.946 778.636 409.293C775.982 406.639 772.383 405.148 768.63 405.148H768.64Z" fill="#3F3D56"/>
<path d="M780.24 493.378L781.42 496.518C781.42 496.518 782.6 517.348 782.2 519.318C781.8 521.288 783.78 528.318 783.78 528.318C786.321 535.356 787.261 542.872 786.53 550.318L786.92 561.318C786.92 561.318 788.49 565.638 787.71 566.428C786.93 567.218 781 565.728 781 565.728C781 565.728 781.79 557.478 779 552.368C776.21 547.258 774.68 534.288 774.68 534.288C774.68 534.288 770.75 526.428 770.75 523.288C770.75 520.148 764.46 494.598 764.46 494.598L780.24 493.378Z" fill="#BE6F72"/>
<path d="M749.58 492.988C749.58 492.988 749.98 478.838 751.58 474.518C752.394 472.5 752.981 470.397 753.33 468.248C753.33 468.248 777.12 472.548 779.09 470.978C779.09 470.978 779.48 476.478 779.88 476.868C780.28 477.258 781.88 487.088 781.45 491.808C781.02 496.528 781.45 496.518 781.45 496.518C781.45 496.518 765.33 498.878 764.94 496.518C764.55 494.158 763.37 494.168 763.37 494.168C763.37 494.168 748.8 493.728 749.58 492.988Z" fill="#3F3D56"/>
<g opacity="0.1">
<path opacity="0.1" d="M762.55 492.988C762.55 492.988 752.61 492.718 749.61 492.178C749.61 492.688 749.61 492.988 749.61 492.988C748.83 493.768 763.37 494.168 763.37 494.168C763.568 494.186 763.756 494.263 763.91 494.388C763.38 492.988 762.55 492.988 762.55 492.988Z" fill="black"/>
<path opacity="0.1" d="M779.85 476.868C779.45 476.478 779.06 470.978 779.06 470.978C778.856 471.105 778.628 471.187 778.39 471.218C778.53 472.878 778.8 475.428 779.06 475.688C779.32 475.948 781.06 485.908 780.63 490.628C780.2 495.348 780.63 495.338 780.63 495.338C780.63 495.338 767.88 497.208 764.79 495.958C764.79 496.128 764.88 496.318 764.91 496.518C765.3 498.878 781.42 496.518 781.42 496.518C781.42 496.518 781.02 496.518 781.42 491.808C781.82 487.098 780.24 477.268 779.85 476.868Z" fill="black"/>
</g>
<path d="M766.9 429.908C767.239 430.665 767.753 431.33 768.4 431.848C768.817 432.158 769.299 432.367 769.81 432.458C768.93 432.968 767.97 433.348 767.09 433.858C765.706 434.789 764.371 435.79 763.09 436.858C761.78 437.911 760.177 438.533 758.5 438.638C759.089 437.845 759.458 436.911 759.57 435.929C759.682 434.948 759.534 433.954 759.14 433.048C758.78 432.455 758.542 431.795 758.44 431.108C758.44 429.978 759.44 429.108 760.37 428.508C761.12 427.998 761.89 427.508 762.67 427.018C763.28 426.638 764.2 425.838 764.97 425.868C765.74 425.898 765.83 426.578 765.97 427.278C766.168 428.191 766.481 429.074 766.9 429.908Z" fill="#BE6F72"/>
<path opacity="0.1" d="M766.9 429.908C767.239 430.665 767.753 431.33 768.4 431.848C768.817 432.158 769.299 432.367 769.81 432.458C768.93 432.968 767.97 433.348 767.09 433.858C765.706 434.789 764.371 435.79 763.09 436.858C761.78 437.911 760.177 438.533 758.5 438.638C759.089 437.845 759.458 436.911 759.57 435.929C759.682 434.948 759.534 433.954 759.14 433.048C758.78 432.455 758.542 431.795 758.44 431.108C758.44 429.978 759.44 429.108 760.37 428.508C761.12 427.998 761.89 427.508 762.67 427.018C763.28 426.638 764.2 425.838 764.97 425.868C765.74 425.898 765.83 426.578 765.97 427.278C766.168 428.191 766.481 429.074 766.9 429.908Z" fill="black"/>
<path d="M776.11 453.098C781.103 453.098 785.15 449.051 785.15 444.058C785.15 439.066 781.103 435.018 776.11 435.018C771.117 435.018 767.07 439.066 767.07 444.058C767.07 449.051 771.117 453.098 776.11 453.098Z" fill="#BE6F72"/>
<path d="M788.88 572.368C788.88 573.158 787.31 575.118 787.31 575.118C784.117 575.51 780.878 575.105 777.88 573.938C777.09 573.548 778.27 571.188 778.27 571.188L778.36 570.998C778.72 570.073 779.223 569.209 779.85 568.438C780.63 567.658 781.1 564.438 781.1 564.438C783.54 560.438 787.87 566.168 787.87 566.168C787.87 566.168 788.42 569.168 788.71 570.988C788.81 571.638 788.88 572.168 788.88 572.368Z" fill="#FF6F61"/>
<path opacity="0.1" d="M788.88 572.368C788.88 573.158 787.31 575.118 787.31 575.118C784.117 575.51 780.878 575.105 777.88 573.938C777.09 573.548 778.27 571.188 778.27 571.188L778.36 570.998C781.038 572.242 783.969 572.845 786.92 572.758L788.71 570.968C788.81 571.638 788.88 572.168 788.88 572.368Z" fill="black"/>
<path d="M758.03 434.028C762.912 434.028 766.87 430.071 766.87 425.188C766.87 420.306 762.912 416.348 758.03 416.348C753.148 416.348 749.19 420.306 749.19 425.188C749.19 430.071 753.148 434.028 758.03 434.028Z" fill="#BE6F72"/>
<path d="M750.9 442.868C748.96 444.718 748.64 447.648 748.44 450.318L748.14 454.228C748.032 455.281 748.008 456.341 748.07 457.398C748.07 458.048 748.23 458.708 748.29 459.398C748.35 460.088 748.37 460.958 748.38 461.748V467.528C748.285 468.721 748.506 469.918 749.02 470.998C749.294 471.521 749.755 471.922 750.31 472.122C750.865 472.321 751.475 472.306 752.02 472.078C752.641 471.599 753.079 470.922 753.26 470.158C754.235 467.813 754.907 465.353 755.26 462.838C755.34 461.968 755.35 461.098 755.43 460.228C755.51 459.358 755.66 458.448 755.79 457.568C756.35 453.888 756.6 450.168 756.85 446.458C756.92 445.358 757.91 441.028 756.47 440.548C755.77 440.318 754.32 441.038 753.65 441.278C752.636 441.618 751.7 442.159 750.9 442.868Z" fill="#BE6F72"/>
<path opacity="0.1" d="M750.9 442.868C748.96 444.718 748.64 447.648 748.44 450.318L748.14 454.228C748.032 455.281 748.008 456.341 748.07 457.398C748.07 458.048 748.23 458.708 748.29 459.398C748.35 460.088 748.37 460.958 748.38 461.748V467.528C748.285 468.721 748.506 469.918 749.02 470.998C749.294 471.521 749.755 471.922 750.31 472.122C750.865 472.321 751.475 472.306 752.02 472.078C752.641 471.599 753.079 470.922 753.26 470.158C754.235 467.813 754.907 465.353 755.26 462.838C755.34 461.968 755.35 461.098 755.43 460.228C755.51 459.358 755.66 458.448 755.79 457.568C756.35 453.888 756.6 450.168 756.85 446.458C756.92 445.358 757.91 441.028 756.47 440.548C755.77 440.318 754.32 441.038 753.65 441.278C752.636 441.618 751.7 442.159 750.9 442.868Z" fill="black"/>
<path d="M769.23 430.888C769.23 430.888 762.55 435.998 758.62 437.178C758.62 437.178 756.29 439.838 755.89 440.478C755.49 441.118 754.69 448.178 753.89 449.758C753.09 451.338 751.14 454.868 753.89 458.398C753.89 458.398 754.67 461.938 754.28 463.118C753.89 464.298 752.46 468.618 753.76 468.818C755.06 469.018 759 471.758 762.53 470.978C766.06 470.198 779.24 473.978 779.24 473.978C779.24 473.978 781.42 453.728 783 450.148L779.46 448.968C779.46 448.968 769.64 443.078 775.53 434.038C775.52 434.038 770 432.858 769.23 430.888Z" fill="#FF6F61"/>
<path d="M744.84 454.558L752.96 460.308C753.063 460.384 753.187 460.425 753.315 460.425C753.443 460.425 753.567 460.384 753.67 460.308L755.87 458.658C755.938 458.6 755.992 458.528 756.029 458.447C756.066 458.366 756.086 458.278 756.086 458.188C756.086 458.099 756.066 458.011 756.029 457.93C755.992 457.849 755.938 457.777 755.87 457.718L749.62 452.168C749.539 452.095 749.439 452.044 749.332 452.023C749.224 452.002 749.113 452.011 749.01 452.048L745 453.488C744.895 453.525 744.801 453.589 744.73 453.675C744.658 453.761 744.612 453.864 744.596 453.975C744.579 454.085 744.593 454.198 744.636 454.301C744.679 454.404 744.75 454.493 744.84 454.558Z" fill="#3F3D56"/>
<path d="M747.57 471.878C746.996 469.886 746.71 467.822 746.72 465.748L746.6 462.978C746.479 461.903 746.578 460.814 746.89 459.778C747.198 459.068 747.66 458.434 748.243 457.924C748.826 457.414 749.515 457.04 750.26 456.828C751.753 456.414 753.313 456.302 754.85 456.498C755.057 456.499 755.261 456.554 755.44 456.658C755.597 456.803 755.708 456.991 755.76 457.198C755.987 457.642 756.121 458.127 756.152 458.625C756.183 459.122 756.111 459.62 755.94 460.088C755.708 460.469 755.394 460.794 755.02 461.038C753.93 461.818 752.66 462.338 751.63 463.188C751.421 463.33 751.26 463.532 751.17 463.768C751.12 463.975 751.12 464.191 751.17 464.398C751.298 464.949 751.472 465.487 751.69 466.008C751.778 466.27 751.933 466.505 752.14 466.688C752.33 466.848 752.58 466.908 752.78 467.058C753.21 467.408 754.11 467.868 754.06 468.418C753.91 470.418 752.71 472.658 752.24 474.638C751.34 478.508 748.15 473.568 747.57 471.878Z" fill="#BE6F72"/>
<g opacity="0.1">
<path opacity="0.1" d="M760.2 470.978H759.98C760.829 471.143 761.701 471.143 762.55 470.978H762.8C761.938 470.853 761.062 470.853 760.2 470.978Z" fill="black"/>
<path opacity="0.1" d="M780.83 449.558C779.42 452.728 777.34 469.898 776.97 473.308C778.35 473.668 779.26 473.928 779.26 473.928C779.26 473.928 781.42 453.728 783 450.148L780.83 449.558Z" fill="black"/>
</g>
<path d="M776.42 444.338C776.494 444.733 776.646 445.109 776.867 445.444C777.089 445.779 777.375 446.066 777.71 446.288C778.545 446.988 779.311 447.765 780 448.608C780.988 449.998 781.754 451.533 782.27 453.158C783.02 455.193 783.651 457.27 784.16 459.378C779.16 461.698 773.48 461.588 768.16 463.118C765.869 463.722 763.792 464.951 762.16 466.668C761.346 467.531 760.728 468.56 760.346 469.683C759.965 470.806 759.83 471.998 759.95 473.178C759.958 473.316 759.999 473.45 760.07 473.568C760.157 473.666 760.265 473.743 760.387 473.791C760.508 473.84 760.64 473.859 760.77 473.848C762.099 473.846 763.39 473.403 764.44 472.588C765.478 471.777 766.42 470.851 767.25 469.828C767.765 469.158 768.458 468.645 769.25 468.348C772.14 467.468 775.25 467.518 778.25 467.468C782.737 467.381 787.215 467.027 791.66 466.408C791.822 466.428 791.987 466.41 792.141 466.356C792.295 466.303 792.436 466.215 792.551 466.1C792.667 465.984 792.755 465.844 792.808 465.689C792.862 465.535 792.879 465.371 792.86 465.208C793.3 459.308 791.11 453.548 788.86 448.078C787.96 445.885 787.033 443.702 786.08 441.528C785.295 439.405 784.144 437.435 782.68 435.708C782.124 435.081 781.443 434.576 780.68 434.228C779.82 433.918 778.914 433.749 778 433.728C776.545 433.532 775.071 433.505 773.61 433.648C773.377 434.385 773.236 435.147 773.19 435.918C773.27 438.618 774.45 441.148 775.61 443.588C775.76 443.958 776.19 443.978 776.42 444.338Z" fill="#BE6F72"/>
<path opacity="0.1" d="M760.41 449.398C759.733 450.556 759.388 451.877 759.41 453.218C759.412 453.748 759.497 454.274 759.66 454.778C759.933 455.485 760.361 456.122 760.914 456.641C761.466 457.161 762.127 457.549 762.85 457.778" stroke="black" stroke-miterlimit="10"/>
<path d="M765.5 416.548C765.007 416.547 764.518 416.624 764.05 416.778C762.74 414.778 759.66 413.398 756.05 413.398C751.27 413.398 747.4 415.868 747.4 418.908C747.4 421.948 751.27 424.408 756.05 424.408C757.84 424.428 759.612 424.052 761.24 423.308C761.606 424.066 762.169 424.711 762.869 425.178C763.569 425.645 764.382 425.915 765.222 425.961C766.062 426.007 766.899 425.828 767.646 425.441C768.394 425.054 769.023 424.474 769.471 423.761C769.918 423.048 770.166 422.229 770.189 421.387C770.212 420.546 770.009 419.714 769.602 418.978C769.194 418.242 768.597 417.628 767.872 417.201C767.148 416.774 766.321 416.548 765.48 416.548H765.5Z" fill="#3F3D56"/>
<path opacity="0.1" d="M765.89 424.798C765.003 424.799 764.135 424.548 763.385 424.076C762.634 423.603 762.033 422.928 761.65 422.128C760.022 422.872 758.25 423.248 756.46 423.228C751.69 423.228 747.82 420.768 747.82 417.728C747.805 417.545 747.805 417.361 747.82 417.178C747.535 417.711 747.384 418.305 747.38 418.908C747.38 421.908 751.25 424.408 756.03 424.408C757.82 424.428 759.592 424.052 761.22 423.308C761.651 424.201 762.352 424.935 763.224 425.406C764.097 425.877 765.095 426.061 766.078 425.932C767.061 425.802 767.978 425.365 768.698 424.684C769.419 424.003 769.906 423.112 770.09 422.138C769.71 422.931 769.114 423.6 768.371 424.071C767.629 424.541 766.769 424.793 765.89 424.798Z" fill="black"/>
<path opacity="0.1" d="M746.23 416.728C747.554 414.017 749.758 411.834 752.482 410.535C755.206 409.237 758.29 408.899 761.23 409.578C763.287 408.308 765.636 407.586 768.052 407.483C770.468 407.379 772.87 407.897 775.029 408.986C777.188 410.076 779.031 411.7 780.383 413.705C781.735 415.71 782.55 418.029 782.75 420.438C782.75 420.048 782.75 419.658 782.75 419.258C782.745 416.743 782.068 414.275 780.791 412.109C779.514 409.942 777.682 408.155 775.484 406.932C773.286 405.71 770.802 405.095 768.288 405.153C765.773 405.21 763.32 405.937 761.18 407.258C758.24 406.579 755.156 406.917 752.432 408.215C749.708 409.514 747.504 411.697 746.18 414.408C744.531 415.968 743.226 417.856 742.349 419.95C741.473 422.044 741.044 424.299 741.09 426.568C741.09 426.968 741.09 427.358 741.09 427.748C741.286 423.542 743.133 419.582 746.23 416.728Z" fill="black"/>
<path d="M836.39 419.728C839 414.898 836.04 408.968 832.63 404.658C829.22 400.348 825.08 395.868 825.17 390.368C825.29 382.478 833.67 377.818 840.37 373.628C845.337 370.516 849.916 366.823 854.01 362.628C855.73 361.021 857.152 359.122 858.21 357.018C859.59 353.928 859.55 350.418 859.47 347.018C859.177 335.752 858.62 324.498 857.8 313.258" stroke="#3F3D56" stroke-width="4" stroke-miterlimit="10"/>
<path d="M870.52 312.658C870.425 310.598 869.812 308.595 868.739 306.833C867.666 305.071 866.167 303.608 864.38 302.578L861.62 308.028L861.7 301.428C860.388 301.037 859.018 300.871 857.65 300.938C855.218 301.052 852.874 301.884 850.915 303.33C848.955 304.775 847.469 306.769 846.643 309.06C845.817 311.35 845.689 313.834 846.275 316.198C846.861 318.561 848.135 320.697 849.935 322.337C851.735 323.976 853.981 325.045 856.389 325.407C858.797 325.77 861.258 325.411 863.461 324.375C865.665 323.339 867.511 321.673 868.768 319.587C870.024 317.502 870.634 315.09 870.52 312.658Z" fill="#47BAFF"/>
<path d="M848.57 395.988C847.279 398.5 845.163 400.491 842.578 401.628C839.994 402.765 837.096 402.978 834.373 402.233C831.649 401.488 829.264 399.828 827.619 397.533C825.973 395.239 825.166 392.448 825.334 389.629C825.502 386.81 826.633 384.134 828.539 382.051C830.445 379.967 833.01 378.602 835.803 378.185C838.596 377.768 841.447 378.323 843.879 379.758C846.311 381.194 848.176 383.422 849.16 386.068L841.47 392.328L849.93 390.328C849.938 392.297 849.472 394.239 848.57 395.988Z" fill="#47BAFF"/>
<path d="M842.49 372.078C839.468 372.224 836.498 371.251 834.148 369.346C831.797 367.441 830.231 364.737 829.747 361.75C829.263 358.763 829.897 355.703 831.526 353.154C833.155 350.604 835.666 348.744 838.58 347.928L838.52 352.998L841.31 347.488C844.572 347.339 847.759 348.49 850.172 350.69C852.586 352.889 854.027 355.957 854.18 359.218C854.257 360.833 854.014 362.447 853.466 363.968C852.919 365.489 852.077 366.888 850.988 368.083C849.9 369.278 848.586 370.247 847.123 370.935C845.659 371.622 844.075 372.014 842.46 372.088L842.49 372.078Z" fill="#47BAFF"/>
<path d="M872.37 352.198C870.462 352.296 868.557 351.947 866.807 351.181C865.056 350.414 863.508 349.251 862.285 347.783C861.062 346.315 860.198 344.582 859.761 342.722C859.323 340.862 859.325 338.925 859.766 337.066C860.206 335.207 861.074 333.475 862.299 332.009C863.525 330.543 865.074 329.383 866.826 328.619C868.578 327.856 870.483 327.511 872.391 327.611C874.3 327.712 876.158 328.255 877.82 329.198L875.64 335.198L880.12 330.898C881.314 331.982 882.281 333.291 882.968 334.749C883.654 336.208 884.046 337.788 884.12 339.398C884.18 340.537 884.076 341.679 883.81 342.788C883.183 345.386 881.728 347.709 879.664 349.407C877.6 351.104 875.04 352.084 872.37 352.198Z" fill="#47BAFF"/>
<path opacity="0.1" d="M868.87 315.938C866.03 316.258 863.26 317.138 860.41 317.318C857.56 317.498 854.41 316.808 852.62 314.588C851.784 313.302 851.026 311.966 850.35 310.588C849.57 309.377 848.506 308.375 847.25 307.668C846.452 309.229 845.997 310.942 845.914 312.693C845.831 314.443 846.124 316.192 846.771 317.82C847.419 319.449 848.407 320.921 849.669 322.137C850.931 323.353 852.438 324.286 854.09 324.872C855.742 325.459 857.499 325.686 859.246 325.539C860.992 325.391 862.687 324.873 864.217 324.017C865.747 323.162 867.077 321.99 868.117 320.58C869.157 319.169 869.885 317.553 870.25 315.838C869.79 315.858 869.33 315.888 868.87 315.938Z" fill="black"/>
<path opacity="0.1" d="M872.37 352.198C870.248 352.296 868.138 351.843 866.243 350.885C864.347 349.926 862.732 348.494 861.554 346.727C860.376 344.96 859.674 342.918 859.518 340.8C859.361 338.682 859.754 336.559 860.66 334.638C861.639 335.294 862.481 336.132 863.14 337.108C863.871 338.513 864.686 339.872 865.58 341.178C867.49 343.438 870.77 344.178 873.74 344.038C876.71 343.898 879.58 343.038 882.54 342.788C882.95 342.788 883.37 342.718 883.78 342.708C883.169 345.316 881.725 347.653 879.666 349.366C877.607 351.079 875.045 352.073 872.37 352.198Z" fill="black"/>
<path opacity="0.1" d="M842.49 372.078C840.386 372.181 838.291 371.742 836.405 370.803C834.519 369.864 832.906 368.456 831.721 366.714C830.536 364.973 829.817 362.956 829.635 360.857C829.453 358.758 829.813 356.648 830.68 354.728C831.689 355.4 832.57 356.246 833.28 357.228C834.28 358.578 834.83 360.138 835.95 361.378C838.03 363.698 841.52 364.508 844.67 364.438C847.82 364.368 850.67 363.618 853.67 363.388C852.928 365.811 851.455 367.946 849.455 369.502C847.454 371.057 845.021 371.957 842.49 372.078Z" fill="black"/>
<path opacity="0.1" d="M848.57 395.988C847.102 398.735 844.648 400.824 841.702 401.834C838.756 402.845 835.537 402.702 832.692 401.435C829.847 400.167 827.587 397.87 826.368 395.004C825.149 392.138 825.06 388.917 826.12 385.988C827.136 386.651 828.046 387.464 828.82 388.398C830 389.828 830.77 391.398 832.12 392.778C834.64 395.248 838.7 396.258 842.32 396.358C844.409 396.356 846.496 396.233 848.57 395.988Z" fill="black"/>
<path d="M995.39 571.728C998 566.898 995.04 560.968 991.63 556.658C988.22 552.348 984.08 547.868 984.17 542.368C984.29 534.478 992.67 529.818 999.37 525.628C1004.34 522.516 1008.92 518.823 1013.01 514.628C1014.73 513.021 1016.15 511.122 1017.21 509.018C1018.59 505.928 1018.55 502.418 1018.47 499.018C1018.18 487.752 1017.63 476.498 1016.8 465.258" stroke="#3F3D56" stroke-width="4" stroke-miterlimit="10"/>
<path d="M1029.52 464.658C1029.42 462.598 1028.81 460.595 1027.74 458.833C1026.67 457.071 1025.17 455.608 1023.38 454.578L1020.62 460.028L1020.7 453.428C1019.4 453.042 1018.05 452.877 1016.7 452.938C1014.27 453.052 1011.92 453.884 1009.96 455.33C1008.01 456.775 1006.52 458.769 1005.69 461.06C1004.87 463.35 1004.74 465.834 1005.33 468.198C1005.91 470.561 1007.19 472.697 1008.99 474.337C1010.79 475.976 1013.03 477.045 1015.44 477.407C1017.85 477.77 1020.31 477.411 1022.51 476.375C1024.71 475.339 1026.56 473.673 1027.82 471.587C1029.07 469.502 1029.68 467.09 1029.57 464.658H1029.52Z" fill="#47BAFF"/>
<path d="M1007.57 547.988C1006.28 550.5 1004.16 552.491 1001.58 553.628C998.994 554.765 996.096 554.978 993.373 554.233C990.649 553.488 988.264 551.828 986.619 549.533C984.973 547.239 984.166 544.448 984.334 541.629C984.502 538.81 985.633 536.134 987.539 534.051C989.445 531.967 992.01 530.602 994.803 530.185C997.596 529.768 1000.45 530.323 1002.88 531.758C1005.31 533.194 1007.18 535.422 1008.16 538.068L1000.47 544.328L1008.93 542.328C1008.94 544.297 1008.47 546.239 1007.57 547.988Z" fill="#47BAFF"/>
<path d="M1001.49 524.078C998.468 524.224 995.498 523.251 993.148 521.346C990.797 519.441 989.23 516.737 988.747 513.75C988.263 510.763 988.897 507.703 990.526 505.154C992.155 502.604 994.666 500.744 997.58 499.928L997.52 504.998L1000.31 499.488C1003.57 499.339 1006.76 500.491 1009.17 502.69C1011.59 504.889 1013.03 507.957 1013.18 511.218C1013.26 512.833 1013.01 514.447 1012.47 515.968C1011.92 517.489 1011.08 518.888 1009.99 520.083C1008.9 521.278 1007.59 522.247 1006.12 522.935C1004.66 523.622 1003.07 524.014 1001.46 524.088L1001.49 524.078Z" fill="#47BAFF"/>
<path d="M1031.37 504.198C1029.46 504.296 1027.56 503.947 1025.81 503.181C1024.06 502.414 1022.51 501.251 1021.29 499.783C1020.06 498.315 1019.2 496.582 1018.76 494.722C1018.32 492.862 1018.33 490.925 1018.77 489.066C1019.21 487.207 1020.07 485.475 1021.3 484.009C1022.52 482.543 1024.07 481.383 1025.83 480.619C1027.58 479.856 1029.48 479.511 1031.39 479.611C1033.3 479.712 1035.16 480.255 1036.82 481.198L1034.64 487.198L1039.12 482.898C1040.31 483.982 1041.28 485.291 1041.97 486.749C1042.65 488.208 1043.05 489.788 1043.12 491.398C1043.18 492.537 1043.08 493.679 1042.81 494.788C1042.18 497.386 1040.73 499.709 1038.66 501.407C1036.6 503.104 1034.04 504.084 1031.37 504.198Z" fill="#47BAFF"/>
<path opacity="0.1" d="M1027.87 467.938C1025.03 468.258 1022.26 469.138 1019.41 469.318C1016.56 469.498 1013.41 468.808 1011.62 466.588C1010.78 465.302 1010.03 463.966 1009.35 462.588C1008.57 461.377 1007.51 460.375 1006.25 459.668C1005.45 461.229 1005 462.942 1004.91 464.693C1004.83 466.443 1005.12 468.192 1005.77 469.82C1006.42 471.449 1007.41 472.921 1008.67 474.137C1009.93 475.353 1011.44 476.286 1013.09 476.872C1014.74 477.459 1016.5 477.686 1018.25 477.539C1019.99 477.391 1021.69 476.873 1023.22 476.017C1024.75 475.162 1026.08 473.99 1027.12 472.58C1028.16 471.169 1028.88 469.553 1029.25 467.838C1028.79 467.858 1028.33 467.888 1027.87 467.938Z" fill="black"/>
<path opacity="0.1" d="M1031.37 504.198C1029.25 504.296 1027.14 503.843 1025.24 502.885C1023.35 501.926 1021.73 500.494 1020.55 498.727C1019.38 496.96 1018.67 494.918 1018.52 492.8C1018.36 490.682 1018.75 488.559 1019.66 486.638C1020.64 487.294 1021.48 488.132 1022.14 489.108C1022.87 490.513 1023.69 491.872 1024.58 493.178C1026.49 495.438 1029.77 496.178 1032.74 496.038C1035.71 495.898 1038.58 495.038 1041.54 494.788C1041.95 494.788 1042.37 494.718 1042.78 494.708C1042.17 497.316 1040.72 499.653 1038.67 501.366C1036.61 503.079 1034.05 504.073 1031.37 504.198Z" fill="black"/>
<path opacity="0.1" d="M1001.49 524.078C999.386 524.181 997.291 523.742 995.405 522.803C993.519 521.864 991.906 520.456 990.721 518.714C989.536 516.973 988.817 514.956 988.635 512.857C988.453 510.758 988.813 508.648 989.68 506.728C990.689 507.4 991.57 508.246 992.28 509.228C993.28 510.578 993.83 512.138 994.95 513.378C997.03 515.698 1000.52 516.508 1003.67 516.438C1006.82 516.368 1009.67 515.618 1012.67 515.388C1011.93 517.811 1010.46 519.946 1008.45 521.502C1006.45 523.057 1004.02 523.957 1001.49 524.078Z" fill="black"/>
<path opacity="0.1" d="M1007.57 547.988C1006.1 550.735 1003.65 552.824 1000.7 553.834C997.756 554.845 994.537 554.702 991.692 553.435C988.847 552.167 986.587 549.87 985.368 547.004C984.149 544.138 984.06 540.917 985.12 537.988C986.136 538.651 987.046 539.464 987.82 540.398C989 541.828 989.82 543.398 991.12 544.778C993.64 547.248 997.7 548.258 1001.32 548.358C1003.41 548.356 1005.5 548.233 1007.57 547.988Z" fill="black"/>
<path d="M415.35 443.608L417.53 444.048L424.96 455.038L421.69 455.478L415.35 443.608Z" fill="#2F2E41"/>
<path d="M362.49 488.188C363.081 490.128 363.81 492.022 364.67 493.858C367.132 493.338 369.555 492.646 371.92 491.788C371.454 491.095 370.95 490.427 370.41 489.788C369.823 489.15 369.129 488.619 368.36 488.218C367.54 488.033 366.69 488.033 365.87 488.218C364.75 488.188 363.62 488.208 362.49 488.188Z" fill="#FBBEBE"/>
<path d="M368.37 491.118C367.779 490.854 367.251 490.465 366.823 489.978C366.395 489.492 366.077 488.919 365.89 488.298C365.509 487.052 364.864 485.903 364 484.928C363.818 484.953 363.645 485.024 363.498 485.134C363.351 485.245 363.235 485.391 363.16 485.558C362.98 485.878 362.87 486.238 362.67 486.558C362.27 487.128 361.57 487.408 361.07 487.888C360.57 488.368 360.27 489.118 359.73 489.608C358.988 490.155 358.116 490.5 357.2 490.608C355.808 490.922 354.464 491.417 353.2 492.078C352.737 492.355 352.244 492.577 351.73 492.738C351.16 492.824 350.58 492.824 350.01 492.738L346.07 492.458C345.739 492.404 345.401 492.404 345.07 492.458C344.668 492.604 344.326 492.88 344.099 493.242C343.873 493.605 343.774 494.033 343.82 494.458C343.867 494.88 344.002 495.287 344.218 495.652C344.433 496.018 344.724 496.333 345.07 496.578C345.754 497.07 346.51 497.454 347.31 497.718C350.74 499.01 354.273 500.014 357.87 500.718V501.498C360.375 502.728 363.129 503.368 365.92 503.368C366.125 503.381 366.33 503.347 366.52 503.268C366.775 503.077 366.953 502.8 367.02 502.488C367.968 499.726 368.523 496.845 368.67 493.928C368.734 493.187 368.677 492.441 368.5 491.718C368.28 491.008 369.02 491.308 368.34 491.028" fill="#2F2E41"/>
<path d="M443.93 476.268C432.25 476.968 420.71 473.548 409.01 473.188C407.558 473.093 406.099 473.183 404.67 473.458C403.182 473.862 401.74 474.422 400.37 475.128C394.1 478.048 387.61 480.468 381.13 482.878L373.68 485.648C372.231 486.303 370.66 486.644 369.07 486.648C368.36 486.648 367.49 486.498 367.07 487.088C365.86 488.888 366.43 491.518 367.23 493.538C367.49 494.188 367.93 494.898 368.63 494.968C369.121 494.935 369.602 494.813 370.05 494.608C371.4 494.248 372.75 495.158 374.15 495.308C375.87 495.488 377.47 494.508 379.1 493.908C381.8 492.908 384.74 492.908 387.58 492.468C392.33 491.678 396.74 489.468 400.86 486.958C402.358 485.891 404.034 485.098 405.81 484.618C407.914 484.37 410.046 484.613 412.04 485.328C416.886 486.696 421.656 488.318 426.33 490.188C428.76 491.246 431.251 492.158 433.79 492.918C439.332 494.368 445.191 494.018 450.52 491.918C452.39 491.178 454.42 489.918 454.52 487.858C454.59 486.708 453.69 485.698 453.1 484.708C452.72 484.078 452.33 483.448 451.92 482.838C449.92 479.938 447.48 476.058 443.93 476.268Z" fill="#2F2E41"/>
<path opacity="0.1" d="M443.93 476.268C432.25 476.968 420.71 473.548 409.01 473.188C407.558 473.093 406.099 473.183 404.67 473.458C403.182 473.862 401.74 474.422 400.37 475.128C394.1 478.048 387.61 480.468 381.13 482.878L373.68 485.648C372.231 486.303 370.66 486.644 369.07 486.648C368.36 486.648 367.49 486.498 367.07 487.088C365.86 488.888 366.43 491.518 367.23 493.538C367.49 494.188 367.93 494.898 368.63 494.968C369.121 494.935 369.602 494.813 370.05 494.608C371.4 494.248 372.75 495.158 374.15 495.308C375.87 495.488 377.47 494.508 379.1 493.908C381.8 492.908 384.74 492.908 387.58 492.468C392.33 491.678 396.74 489.468 400.86 486.958C402.358 485.891 404.034 485.098 405.81 484.618C407.914 484.37 410.046 484.613 412.04 485.328C416.886 486.696 421.656 488.318 426.33 490.188C428.76 491.246 431.251 492.158 433.79 492.918C439.332 494.368 445.191 494.018 450.52 491.918C452.39 491.178 454.42 489.918 454.52 487.858C454.59 486.708 453.69 485.698 453.1 484.708C452.72 484.078 452.33 483.448 451.92 482.838C449.92 479.938 447.48 476.058 443.93 476.268Z" fill="black"/>
<path d="M384.92 488.728C386.747 489.348 388.59 489.922 390.45 490.448C391.45 488.738 393.45 487.548 393.88 485.588C393.905 485.503 393.905 485.413 393.88 485.328C393.831 485.245 393.758 485.179 393.67 485.138C392.333 484.404 390.852 483.971 389.33 483.868C388.13 483.798 387.58 485.048 387.04 485.928C386.83 486.318 385.41 488.918 384.92 488.728Z" fill="#FBBEBE"/>
<path d="M387.48 487.508C386.933 487.416 386.412 487.211 385.949 486.906C385.486 486.601 385.091 486.204 384.79 485.738C384.54 485.288 384.26 484.678 383.74 484.738C383.22 484.798 383.05 485.338 382.94 485.808C382.594 487.58 382.088 489.317 381.43 490.998C380.77 492.688 379.651 494.16 378.2 495.248C377.52 495.718 376.77 496.068 376.1 496.568C375.545 497.06 374.954 497.508 374.33 497.908C373.889 498.106 373.434 498.273 372.97 498.408C372.287 498.665 371.636 499.001 371.03 499.408C370.491 499.718 370.034 500.154 369.7 500.678C369.535 500.941 369.439 501.241 369.421 501.55C369.404 501.86 369.465 502.169 369.6 502.448C369.74 502.678 369.927 502.876 370.15 503.028C370.372 503.18 370.625 503.282 370.89 503.328C371.424 503.408 371.966 503.408 372.5 503.328C374.63 503.178 376.76 502.988 378.89 502.798C379.788 502.74 380.68 502.617 381.56 502.428L382.95 502.048C383.744 501.838 384.559 501.718 385.38 501.688C385.619 501.666 385.86 501.69 386.09 501.758C386.58 501.918 386.93 502.408 387.44 502.508C387.779 502.541 388.121 502.496 388.44 502.378C389.994 502.045 391.58 501.881 393.17 501.888C393.87 501.888 394.69 501.708 395.01 501.088C395.41 500.308 394.75 499.438 394.48 498.598C394.351 498.064 394.277 497.518 394.26 496.968C394.141 495.608 393.742 494.288 393.09 493.088C392.55 492.088 391.81 490.988 392.19 489.928C392.379 489.592 392.501 489.221 392.55 488.838C392.4 487.118 388.46 487.728 387.48 487.508Z" fill="#2F2E41"/>
<path d="M426.42 457.528C424.347 456.62 422.686 454.973 421.76 452.908C421.57 452.468 421.41 451.998 421.22 451.558C420.61 450.068 419.658 448.742 418.44 447.688C418.312 447.552 418.157 447.444 417.985 447.37C417.813 447.296 417.627 447.258 417.44 447.258C417.254 447.314 417.087 447.419 416.955 447.561C416.823 447.704 416.732 447.879 416.69 448.068C416.578 448.475 416.551 448.901 416.61 449.318C416.712 450.302 416.879 451.277 417.11 452.238L417.68 454.818C417.756 455.213 417.873 455.599 418.03 455.968C418.274 456.401 418.596 456.784 418.98 457.098C419.5 457.578 420.03 458.038 420.56 458.498C420.867 458.765 421.202 458.996 421.56 459.188C422.119 459.455 422.716 459.63 423.33 459.708C425.716 460.019 427.993 460.897 429.97 462.268C429.97 462.268 429.97 460.538 429.97 460.348C429.945 459.846 429.771 459.362 429.47 458.958C428.554 458.291 427.519 457.806 426.42 457.528Z" fill="#FBBEBE"/>
<path opacity="0.1" d="M426.42 457.528C424.347 456.62 422.686 454.973 421.76 452.908C421.57 452.468 421.41 451.998 421.22 451.558C420.61 450.068 419.658 448.742 418.44 447.688C418.312 447.552 418.157 447.444 417.985 447.37C417.813 447.296 417.627 447.258 417.44 447.258C417.254 447.314 417.087 447.419 416.955 447.561C416.823 447.704 416.732 447.879 416.69 448.068C416.578 448.475 416.551 448.901 416.61 449.318C416.712 450.302 416.879 451.277 417.11 452.238L417.68 454.818C417.756 455.213 417.873 455.599 418.03 455.968C418.274 456.401 418.596 456.784 418.98 457.098C419.5 457.578 420.03 458.038 420.56 458.498C420.867 458.765 421.202 458.996 421.56 459.188C422.119 459.455 422.716 459.63 423.33 459.708C425.716 460.019 427.993 460.897 429.97 462.268C429.97 462.268 429.97 460.538 429.97 460.348C429.945 459.846 429.771 459.362 429.47 458.958C428.554 458.291 427.519 457.806 426.42 457.528Z" fill="black"/>
<path d="M450.2 437.788C451.769 437.788 453.04 436.508 453.04 434.928C453.04 433.349 451.769 432.068 450.2 432.068C448.632 432.068 447.36 433.349 447.36 434.928C447.36 436.508 448.632 437.788 450.2 437.788Z" fill="#2F2E41"/>
<path d="M448.44 433.208C447.68 433.026 446.879 433.14 446.2 433.528C445.872 433.82 445.61 434.178 445.43 434.578C444.794 435.672 444.297 436.841 443.95 438.058C443.7 439.058 443.66 440.188 443.34 441.218C442.76 443.118 441.27 444.728 441.1 446.708C441.02 447.598 441.17 448.638 440.52 449.238C440.361 449.376 440.19 449.5 440.01 449.608C439.56 449.908 439.178 450.3 438.89 450.758C438.694 451.166 438.427 451.535 438.1 451.848C437.52 452.278 436.56 452.238 436.28 452.848C436 453.458 436.73 454.288 436.56 455.008C436.39 455.728 435.76 455.868 435.31 456.268C434.78 456.828 434.407 457.518 434.23 458.268C433.28 458.451 432.301 458.426 431.361 458.192C430.422 457.959 429.545 457.525 428.79 456.918C429.45 458.923 429.738 461.03 429.64 463.138C429.69 463.475 429.671 463.819 429.585 464.149C429.499 464.479 429.348 464.788 429.14 465.058C431.396 465.226 433.63 465.615 435.81 466.218C436.754 466.533 437.776 466.533 438.72 466.218C439.226 465.947 439.679 465.588 440.06 465.158C441.26 463.938 442.52 462.608 442.81 460.918C442.882 459.963 442.899 459.005 442.86 458.048C442.974 456.862 443.219 455.691 443.59 454.558C444.223 452.207 444.648 449.804 444.86 447.378C444.99 445.878 446.29 444.678 446.97 443.378C448.25 440.848 449.57 438.218 449.66 435.378C449.7 434.458 449.38 433.308 448.44 433.208Z" fill="#2F2E41"/>
<path opacity="0.1" d="M448.44 433.208C447.68 433.026 446.879 433.14 446.2 433.528C445.872 433.82 445.61 434.178 445.43 434.578C444.794 435.672 444.297 436.841 443.95 438.058C443.7 439.058 443.66 440.188 443.34 441.218C442.76 443.118 441.27 444.728 441.1 446.708C441.02 447.598 441.17 448.638 440.52 449.238C440.361 449.376 440.19 449.5 440.01 449.608C439.56 449.908 439.178 450.3 438.89 450.758C438.694 451.166 438.427 451.535 438.1 451.848C437.52 452.278 436.56 452.238 436.28 452.848C436 453.458 436.73 454.288 436.56 455.008C436.39 455.728 435.76 455.868 435.31 456.268C434.78 456.828 434.407 457.518 434.23 458.268C433.28 458.451 432.301 458.426 431.361 458.192C430.422 457.959 429.545 457.525 428.79 456.918C429.45 458.923 429.738 461.03 429.64 463.138C429.69 463.475 429.671 463.819 429.585 464.149C429.499 464.479 429.348 464.788 429.14 465.058C431.396 465.226 433.63 465.615 435.81 466.218C436.754 466.533 437.776 466.533 438.72 466.218C439.226 465.947 439.679 465.588 440.06 465.158C441.26 463.938 442.52 462.608 442.81 460.918C442.882 459.963 442.899 459.005 442.86 458.048C442.974 456.862 443.219 455.691 443.59 454.558C444.223 452.207 444.648 449.804 444.86 447.378C444.99 445.878 446.29 444.678 446.97 443.378C448.25 440.848 449.57 438.218 449.66 435.378C449.7 434.458 449.38 433.308 448.44 433.208Z" fill="black"/>
<path d="M445.78 478.728C443.35 477.568 441.57 475.418 439.6 473.568C435.85 470.038 431.26 467.568 427.31 464.238C424.69 462.048 422.31 459.498 419.48 457.658C416.945 456.051 414.074 455.049 411.09 454.728C410.761 454.653 410.419 454.653 410.09 454.728C409.712 454.889 409.384 455.148 409.14 455.478C407.865 456.917 406.73 458.474 405.75 460.128C400.75 468.628 393.64 475.768 387.75 483.668C387.615 483.832 387.516 484.023 387.46 484.228C387.435 484.535 387.513 484.841 387.68 485.098L388.88 487.438C389.55 488.758 390.63 490.288 392.07 490.028C392.718 489.841 393.299 489.469 393.74 488.958L399.12 483.808L404.76 478.418C408.06 475.268 411.42 472.038 413.58 467.998C415.26 470.918 418.25 472.828 420.29 475.498C421.07 476.498 421.71 477.628 422.41 478.708C423.52 480.428 424.79 482.048 426.05 483.708L432.52 491.958C433.34 493.124 434.355 494.138 435.52 494.958C437.115 495.827 438.894 496.303 440.71 496.348C443.14 496.565 445.58 496.652 448.02 496.608C449.888 496.684 451.75 496.342 453.47 495.608C454.327 495.231 455.06 494.619 455.582 493.841C456.104 493.064 456.395 492.154 456.42 491.218C456.32 490.25 456.002 489.316 455.49 488.488C453.15 484.318 450.13 480.798 445.78 478.728Z" fill="#2F2E41"/>
<path d="M451.95 439.108C453.16 439.108 454.14 438.123 454.14 436.908C454.14 435.693 453.16 434.708 451.95 434.708C450.741 434.708 449.76 435.693 449.76 436.908C449.76 438.123 450.741 439.108 451.95 439.108Z" fill="#E8E8F0"/>
<path d="M451.47 435.258C451.959 436.24 452.045 437.374 451.71 438.418C451.365 439.444 450.891 440.422 450.3 441.328C449.792 442.262 449.178 443.135 448.47 443.928C451.85 444.088 455.12 442.768 458.09 441.168C460.49 439.878 462.88 438.288 464.16 435.878C463.778 435.969 463.381 435.979 462.995 435.907C462.609 435.834 462.243 435.681 461.92 435.458C461.275 435.015 460.699 434.479 460.21 433.868L458.52 431.968C458.137 431.55 457.801 431.091 457.52 430.598C457.149 429.925 456.992 429.154 457.07 428.388C456.396 429.091 455.645 429.715 454.83 430.248C453.62 431.038 452.29 431.608 451.07 432.388C450.65 432.668 449.69 433.108 449.94 433.668C450.19 434.228 451.13 434.658 451.47 435.258Z" fill="#FBBEBE"/>
<path opacity="0.1" d="M451.47 435.258C451.959 436.24 452.045 437.374 451.71 438.418C451.365 439.444 450.891 440.422 450.3 441.328C449.792 442.262 449.178 443.135 448.47 443.928C451.85 444.088 455.12 442.768 458.09 441.168C460.49 439.878 462.88 438.288 464.16 435.878C463.778 435.969 463.381 435.979 462.995 435.907C462.609 435.834 462.243 435.681 461.92 435.458C461.275 435.015 460.699 434.479 460.21 433.868L458.52 431.968C458.137 431.55 457.801 431.091 457.52 430.598C457.149 429.925 456.992 429.154 457.07 428.388C456.396 429.091 455.645 429.715 454.83 430.248C453.62 431.038 452.29 431.608 451.07 432.388C450.65 432.668 449.69 433.108 449.94 433.668C450.19 434.228 451.13 434.658 451.47 435.258Z" fill="black"/>
<path d="M451.51 435.588C451.168 436.07 450.984 436.647 450.984 437.238C450.984 437.83 451.168 438.406 451.51 438.888C451.61 439.008 451.97 439.758 452.12 439.768C452.193 439.762 452.265 439.741 452.33 439.707C452.396 439.673 452.453 439.625 452.5 439.568C453.269 438.767 453.984 437.915 454.64 437.018C455.31 436.124 456.272 435.494 457.36 435.238C458.707 435.187 460.031 435.6 461.11 436.408C461.612 436.637 462.053 436.98 462.4 437.408C462.641 437.849 462.785 438.337 462.82 438.838C463.147 441.857 463.274 444.893 463.2 447.928C463.257 450.12 463.113 452.313 462.77 454.478C462.55 455.588 462.23 456.678 462.08 457.808C461.963 458.804 461.916 459.806 461.94 460.808V464.988C461.913 465.755 461.967 466.523 462.1 467.278C462.3 468.188 462.73 469.038 463.02 469.928C463.319 470.951 463.523 471.998 463.63 473.058L464.2 477.378C464.38 478.738 464.52 480.228 463.69 481.378C463.32 481.868 462.83 482.268 462.45 482.758C461.04 484.598 461.45 487.228 460.9 489.478C460.437 491.125 459.481 492.591 458.16 493.678C457.689 494.144 457.122 494.501 456.498 494.724C455.874 494.947 455.209 495.03 454.55 494.968C452.79 494.638 451.74 492.808 451.26 491.078C450.78 489.348 450.61 487.468 449.57 486.008C448.615 484.903 447.487 483.961 446.23 483.218C444.958 482.465 444.023 481.251 443.62 479.828C443.51 479.198 443.62 478.548 443.51 477.908C443.416 477.103 443.107 476.337 442.617 475.692C442.126 475.046 441.471 474.544 440.72 474.238C439.82 473.888 438.72 473.758 438.2 472.938C439.487 472.132 440.426 470.873 440.83 469.408C441.228 467.954 441.443 466.456 441.47 464.948L441.77 459.948C441.91 457.698 441.97 455.478 442.96 453.458C443.4 452.558 443.96 451.708 444.41 450.818C445.02 449.568 445.538 448.274 445.96 446.948C446.68 444.888 447.4 442.828 448.04 440.748C448.29 439.739 448.673 438.767 449.18 437.858C449.72 436.918 450.5 435.788 451.51 435.588Z" fill="#E8E8F0"/>
<path d="M440.36 468.228H441.69L441.97 466.228C442.006 465.827 442.101 465.433 442.25 465.058C442.47 464.661 442.728 464.286 443.02 463.938C444.32 462.088 444.23 459.638 444.55 457.388C445.13 454.416 446.112 451.536 447.47 448.828L450.05 443.078C450.285 442.608 450.472 442.116 450.61 441.608C450.718 441.048 450.772 440.479 450.77 439.908C450.77 439.018 451.05 435.778 451.08 434.908C451.08 434.578 450.35 434.758 450.2 434.468C449.88 433.828 449.44 435.558 448.83 435.938C448.257 436.376 447.84 436.986 447.64 437.678C447.08 439.118 446.74 440.678 446.22 442.108C445.768 443.601 444.938 444.951 443.81 446.028C443.28 446.488 442.67 446.858 442.17 447.358C440.57 448.938 440.41 451.448 440.36 453.708C440.32 455.088 440.06 468.228 440.36 468.228Z" fill="#2F2E41"/>
<path d="M459.5 433.198C458.882 433.522 458.346 433.983 457.935 434.547C457.524 435.11 457.249 435.761 457.13 436.448C456.902 437.827 456.498 439.171 455.93 440.448C454.31 443.268 450.18 444.088 449.03 447.138C448.741 448.164 448.586 449.223 448.57 450.288C448.37 452.478 447.65 454.588 447.43 456.768C447.32 458.465 447.36 460.169 447.55 461.858L449 479.078C449.278 481.611 449.132 484.173 448.57 486.658C450.056 486.87 451.572 486.619 452.91 485.938C454.26 485.318 455.5 484.468 456.81 483.748C459.05 482.508 461.53 481.638 463.5 479.988C463.853 479.707 464.157 479.369 464.4 478.988C464.701 478.266 464.903 477.505 465 476.728C465.17 476.119 465.387 475.524 465.65 474.948C466.372 473.21 466.999 471.434 467.53 469.628C467.891 468.434 468.178 467.218 468.39 465.988C468.55 464.988 468.64 463.988 468.72 462.988C468.824 461.438 469.134 459.908 469.64 458.438C470.895 454.927 471.606 451.244 471.75 447.518C471.789 446.982 471.752 446.444 471.64 445.918C471.42 445.276 471.125 444.661 470.76 444.088C470.16 442.958 469.76 441.718 469.24 440.568C467.822 438.036 465.79 435.9 463.33 434.358C462.17 433.568 460.81 432.728 459.5 433.198Z" fill="#2F2E41"/>
<path d="M429.29 461.298C428.264 460.759 427.334 460.053 426.54 459.208C426.18 458.788 425.88 458.318 425.54 457.898C424.613 456.901 423.407 456.204 422.08 455.898C420.767 455.61 419.424 455.479 418.08 455.508C417.178 455.448 416.272 455.556 415.41 455.828C414.98 455.972 414.593 456.222 414.284 456.553C413.975 456.885 413.753 457.289 413.64 457.728C413.604 458.272 413.709 458.816 413.946 459.306C414.182 459.797 414.542 460.218 414.99 460.528C415.771 461.169 416.693 461.615 417.68 461.828C418.484 461.971 419.295 462.068 420.11 462.118C424.89 462.618 429.16 465.218 433.35 467.588C437.03 469.682 440.783 471.628 444.61 473.428C444.758 472.285 444.822 471.131 444.8 469.978C444.8 469.118 444.73 467.798 443.92 467.288C442.768 466.806 441.568 466.447 440.34 466.218C437.872 465.412 435.463 464.437 433.13 463.298C431.81 462.728 430.54 462.028 429.29 461.298Z" fill="#FBBEBE"/>
<path d="M450.2 434.278C454.905 434.278 458.72 430.441 458.72 425.708C458.72 420.975 454.905 417.138 450.2 417.138C445.494 417.138 441.68 420.975 441.68 425.708C441.68 430.441 445.494 434.278 450.2 434.278Z" fill="#FBBEBE"/>
<path d="M461.93 442.908C461.25 443.863 460.695 444.902 460.28 445.998C459.28 448.158 457.58 449.998 456.75 452.288C455.92 454.578 455.91 457.518 454.2 459.388C453.858 459.675 453.599 460.048 453.45 460.468C453.443 460.73 453.416 460.991 453.37 461.248C453.12 461.928 452.01 461.958 451.8 462.658C451.74 462.858 451.8 463.078 451.7 463.278C451.53 463.728 450.93 463.798 450.54 464.068C449.71 464.628 449.88 465.928 449.29 466.738C449.033 467.04 448.7 467.268 448.326 467.4C447.952 467.532 447.55 467.562 447.16 467.488C446.384 467.33 445.638 467.05 444.95 466.658C444.703 466.523 444.431 466.438 444.15 466.408C443.818 466.42 443.498 466.532 443.23 466.728C442.476 467.284 441.871 468.018 441.47 468.864C441.068 469.71 440.883 470.643 440.93 471.578C441.045 473.452 441.492 475.291 442.25 477.008C442.334 477.306 442.481 477.582 442.68 477.818C442.978 478.052 443.338 478.192 443.716 478.221C444.093 478.249 444.471 478.165 444.8 477.978C445.452 477.591 446.147 477.279 446.87 477.048C448.19 476.808 449.48 477.718 450.82 477.638C451.796 477.494 452.715 477.09 453.48 476.468C454.826 475.666 456.034 474.653 457.06 473.468C457.64 472.698 458.06 471.828 458.58 471.008C459.242 470.012 459.959 469.053 460.73 468.138L465.65 462.138C466.139 461.568 466.58 460.96 466.97 460.318C467.407 459.443 467.743 458.52 467.97 457.568C468.496 455.984 468.832 454.342 468.97 452.678C469 451.303 468.88 449.928 468.61 448.578C468.461 447.235 468.124 445.919 467.61 444.668C466.54 442.408 463.94 440.568 461.93 442.908Z" fill="#2F2E41"/>
<path d="M460.26 428.358C460.267 426.839 460.945 428.226 460.26 426.87C459.575 425.514 460.537 424.688 459.537 423.688C459.497 420.99 459.26 422.858 459.76 420.858C460.01 419.858 459.76 418.858 459.76 418.358C459.76 414.535 459.541 417.485 457.5 415.858C455.459 414.232 455 413.858 453 413.358C450.391 413.429 453 413.358 449.5 412.858C447.55 414.593 445.744 412.326 445.37 414.908C441.83 414.108 438.59 415.148 438 417.328C437.41 419.508 439.91 422.328 443.64 423.328C444.817 423.658 446.042 423.78 447.26 423.688C448.128 424.968 449.255 426.052 450.567 426.87C451.88 427.688 453.349 428.222 454.88 428.438C455.334 430.5 455.791 430.343 457.26 431.858C458.729 433.374 457.453 430.842 459.5 431.358C459.952 429.289 459.5 430.906 459.5 430.358C457.74 430.358 457.707 431.937 458.5 431.358C456.685 432.684 458 431.893 458 432.358C458.5 433.393 457.33 431.723 458 432.393C458.316 433.427 458.684 432.893 458.5 432.393C459.5 432.393 458.553 432.358 459.5 432.358C458.816 429.893 458.625 432.3 459.5 431.938C459.5 430.938 459.33 431.984 460 431.315C460.187 430.882 459.898 431.666 460.26 430.791C459.76 429.291 460 431.305 460 430.358C458.74 430.74 460.715 431.063 460.26 430.062C460.39 428.925 460.283 430.106 460.26 428.358Z" fill="#CB6E00"/>
<path opacity="0.1" d="M466.37 440.318C466.355 440.045 466.355 439.771 466.37 439.498C465.244 438.536 464.363 437.319 463.8 435.948C461.751 435.434 459.886 434.357 458.416 432.839C456.946 431.321 455.929 429.423 455.48 427.358C453.947 427.147 452.476 426.615 451.162 425.799C449.847 424.982 448.719 423.899 447.85 422.618C447.14 422.677 446.426 422.657 445.72 422.558C446.596 423.736 447.696 424.729 448.958 425.479C450.219 426.229 451.617 426.722 453.07 426.928C453.524 428.99 454.542 430.884 456.012 432.4C457.481 433.915 459.343 434.991 461.39 435.508C461.96 436.875 462.84 438.09 463.96 439.058C463.96 439.328 463.96 439.608 463.96 439.888C463.928 441.827 464.664 443.699 466.007 445.097C467.35 446.494 469.192 447.304 471.13 447.348C469.716 446.799 468.503 445.832 467.652 444.576C466.802 443.32 466.355 441.835 466.37 440.318Z" fill="black"/>
<path d="M454.107 428.854C454.683 428.417 454.677 427.438 454.092 426.668C453.507 425.899 452.566 425.629 451.99 426.067C451.414 426.505 451.421 427.483 452.006 428.253C452.59 429.023 453.531 429.292 454.107 428.854Z" fill="#FBBEBE"/>
<path opacity="0.5" d="M69.59 279.728C71.1775 276.957 71.999 273.812 71.97 270.618C71.97 262.388 66.87 255.718 60.59 255.718C54.31 255.718 49.21 262.388 49.21 270.618C49.1779 273.811 49.9959 276.956 51.58 279.728C50.0254 282.511 49.2093 285.646 49.2093 288.833C49.2093 292.021 50.0254 295.155 51.58 297.938C50.0254 300.721 49.2093 303.856 49.2093 307.043C49.2093 310.231 50.0254 313.365 51.58 316.148C49.9927 318.92 49.1745 322.065 49.21 325.258C49.21 333.478 54.3 340.158 60.59 340.158C66.88 340.158 72 333.498 72 325.278C72.0319 322.084 71.2103 318.939 69.62 316.168C71.1801 313.387 71.9994 310.252 71.9994 307.063C71.9994 303.875 71.1801 300.739 69.62 297.958C71.1801 295.177 71.9994 292.042 71.9994 288.853C71.9994 285.665 71.1801 282.529 69.62 279.748L69.59 279.728Z" fill="#3F3D56"/>
<path opacity="0.1" d="M117.35 136.298C117.37 148.529 113.257 160.408 105.68 170.008C112.006 178.05 115.942 187.71 117.037 197.883C118.132 208.056 116.342 218.332 111.872 227.536C107.402 236.739 100.432 244.5 91.7598 249.929C83.0872 255.358 73.0618 258.237 62.83 258.237C52.5981 258.237 42.5728 255.358 33.9002 249.929C25.2276 244.5 18.2579 236.739 13.7879 227.536C9.31788 218.332 7.52807 208.056 8.62308 197.883C9.71808 187.71 13.6537 178.05 19.98 170.008C12.67 160.728 117.35 130.178 117.35 136.298Z" fill="black"/>
<path opacity="0.4" d="M20 101.588C18.4438 99.6091 17.027 97.524 15.76 95.3483L45.67 90.4383L13.3 90.7283C10.2038 83.9742 8.51819 76.6594 8.34624 69.2314C8.1743 61.8034 9.51965 54.4185 12.3 47.5283L55.7 70.0383L15.7 40.6183C19.4281 34.1003 24.4625 28.4226 30.4876 23.9412C36.5126 19.4598 43.3984 16.2713 50.7134 14.5756C58.0283 12.8799 65.6147 12.7135 72.997 14.0869C80.3793 15.4602 87.3983 18.3437 93.614 22.5566C99.8298 26.7695 105.108 32.221 109.119 38.5693C113.129 44.9176 115.785 52.0259 116.919 59.4486C118.054 66.8713 117.643 74.4484 115.713 81.7049C113.782 88.9614 110.373 95.7408 105.7 101.618C108.124 104.699 110.21 108.031 111.92 111.558L73.08 131.728L114.48 117.838C117.382 126.432 118.097 135.613 116.561 144.552C115.024 153.491 111.285 161.907 105.68 169.038C112.006 177.08 115.942 186.74 117.037 196.913C118.132 207.086 116.342 217.362 111.872 226.566C107.402 235.769 100.432 243.53 91.7598 248.959C83.0872 254.388 73.0618 257.267 62.83 257.267C52.5981 257.267 42.5728 254.388 33.9002 248.959C25.2276 243.53 18.2579 235.769 13.7879 226.566C9.3179 217.362 7.52809 207.086 8.62309 196.913C9.7181 186.74 13.6537 177.08 19.98 169.038C12.4197 159.428 8.30933 147.556 8.30933 135.328C8.30933 123.101 12.4197 111.228 19.98 101.618L20 101.588Z" fill="#47BAFF"/>
<path d="M188.39 561.161C191 556.331 188.04 550.401 184.63 546.091C181.22 541.781 177.08 537.301 177.17 531.801C177.29 523.911 185.67 519.251 192.37 515.061C197.337 511.948 201.916 508.256 206.01 504.061C207.73 502.454 209.152 500.554 210.21 498.451C211.59 495.361 211.55 491.851 211.47 488.451C211.183 477.184 210.627 465.931 209.8 454.691" stroke="#3F3D56" stroke-width="4" stroke-miterlimit="10"/>
<path d="M222.52 454.091C222.425 452.03 221.812 450.027 220.739 448.266C219.666 446.504 218.167 445.041 216.38 444.011L213.62 449.461L213.7 442.861C212.403 442.475 211.051 442.309 209.7 442.371C207.268 442.484 204.924 443.316 202.965 444.762C201.006 446.208 199.519 448.202 198.693 450.492C197.867 452.783 197.739 455.267 198.325 457.63C198.911 459.993 200.185 462.13 201.985 463.769C203.785 465.409 206.031 466.477 208.439 466.84C210.847 467.203 213.308 466.844 215.511 465.808C217.715 464.772 219.561 463.106 220.818 461.02C222.074 458.934 222.684 456.523 222.57 454.091H222.52Z" fill="#47BAFF"/>
<path d="M200.57 537.421C199.279 539.932 197.163 541.923 194.578 543.06C191.994 544.197 189.096 544.411 186.373 543.666C183.649 542.92 181.264 541.261 179.619 538.966C177.973 536.671 177.166 533.88 177.334 531.061C177.502 528.242 178.633 525.567 180.539 523.483C182.445 521.4 185.01 520.035 187.803 519.618C190.596 519.2 193.447 519.756 195.879 521.191C198.311 522.626 200.176 524.854 201.16 527.501L193.47 533.761L201.93 531.761C201.938 533.73 201.472 535.671 200.57 537.421Z" fill="#47BAFF"/>
<path d="M194.49 513.511C191.468 513.656 188.498 512.684 186.148 510.778C183.797 508.873 182.23 506.169 181.747 503.183C181.263 500.196 181.897 497.136 183.526 494.586C185.155 492.037 187.666 490.177 190.58 489.361L190.52 494.431L193.31 488.921C196.572 488.772 199.759 489.923 202.172 492.123C204.586 494.322 206.027 497.389 206.18 500.651C206.257 502.266 206.014 503.88 205.466 505.401C204.919 506.922 204.076 508.32 202.988 509.516C201.899 510.711 200.586 511.68 199.123 512.367C197.659 513.054 196.075 513.447 194.46 513.521L194.49 513.511Z" fill="#47BAFF"/>
<path d="M224.37 493.631C222.462 493.728 220.557 493.38 218.807 492.613C217.056 491.847 215.508 490.684 214.285 489.215C213.062 487.747 212.198 486.014 211.761 484.154C211.323 482.294 211.325 480.358 211.766 478.499C212.206 476.639 213.074 474.908 214.299 473.442C215.525 471.976 217.075 470.815 218.826 470.052C220.578 469.288 222.483 468.943 224.392 469.044C226.3 469.144 228.158 469.688 229.82 470.631L227.64 476.631L232.12 472.331C233.314 473.415 234.282 474.723 234.968 476.182C235.654 477.641 236.046 479.221 236.12 480.831C236.18 481.97 236.076 483.112 235.81 484.221C235.183 486.819 233.728 489.142 231.664 490.839C229.6 492.537 227.04 493.517 224.37 493.631Z" fill="#47BAFF"/>
<path opacity="0.1" d="M220.87 457.371C218.03 457.691 215.26 458.571 212.41 458.751C209.56 458.931 206.41 458.241 204.62 456.021C203.784 454.734 203.026 453.399 202.35 452.021C201.57 450.81 200.506 449.807 199.25 449.101C198.452 450.662 197.997 452.374 197.914 454.125C197.832 455.876 198.124 457.624 198.771 459.253C199.419 460.882 200.407 462.353 201.669 463.57C202.931 464.786 204.438 465.718 206.09 466.305C207.741 466.892 209.499 467.119 211.246 466.971C212.992 466.824 214.687 466.305 216.217 465.45C217.747 464.595 219.077 463.423 220.117 462.012C221.157 460.602 221.885 458.985 222.25 457.271C221.79 457.291 221.33 457.321 220.87 457.371Z" fill="black"/>
<path opacity="0.1" d="M224.37 493.631C222.248 493.728 220.138 493.276 218.243 492.317C216.347 491.359 214.732 489.926 213.554 488.159C212.376 486.392 211.674 484.351 211.518 482.233C211.361 480.115 211.754 477.992 212.66 476.071C213.639 476.726 214.481 477.565 215.14 478.541C215.871 479.945 216.686 481.304 217.58 482.611C219.49 484.871 222.77 485.611 225.74 485.471C228.71 485.331 231.58 484.471 234.54 484.221C234.95 484.221 235.37 484.151 235.78 484.141C235.169 486.749 233.725 489.086 231.666 490.799C229.607 492.511 227.045 493.506 224.37 493.631Z" fill="black"/>
<path opacity="0.1" d="M194.49 513.511C192.386 513.614 190.291 513.175 188.405 512.235C186.519 511.296 184.906 509.888 183.721 508.147C182.536 506.405 181.817 504.389 181.635 502.29C181.453 500.191 181.813 498.081 182.68 496.161C183.689 496.832 184.57 497.679 185.28 498.661C186.28 500.011 186.83 501.571 187.95 502.811C190.03 505.131 193.52 505.941 196.67 505.871C199.82 505.801 202.67 505.051 205.67 504.821C204.928 507.244 203.456 509.379 201.455 510.934C199.454 512.49 197.021 513.389 194.49 513.511Z" fill="black"/>
<path opacity="0.1" d="M200.57 537.421C199.102 540.168 196.648 542.256 193.702 543.267C190.756 544.277 187.537 544.135 184.692 542.867C181.847 541.6 179.587 539.302 178.368 536.437C177.149 533.571 177.06 530.35 178.12 527.421C179.136 528.084 180.046 528.896 180.82 529.831C182 531.261 182.82 532.831 184.12 534.211C186.64 536.681 190.7 537.691 194.32 537.791C196.409 537.789 198.496 537.665 200.57 537.421Z" fill="black"/>
<defs>
<linearGradient id="paint0_linear" x1="767.07" y1="575.308" x2="767.07" y2="403.188" gradientUnits="userSpaceOnUse">
<stop stop-color="#808080" stop-opacity="0.25"/>
<stop offset="0.54" stop-color="#808080" stop-opacity="0.12"/>
<stop offset="1" stop-color="#808080" stop-opacity="0.1"/>
</linearGradient>
</defs>
</svg>
