<svg width="201" height="201" viewBox="0 0 201 201" fill="none" xmlns="http://www.w3.org/2000/svg">
<path d="M100.05 199.92C155.256 199.92 200.01 155.166 200.01 99.96C200.01 44.7536 155.256 0 100.05 0C44.8436 0 0.0900269 44.7536 0.0900269 99.96C0.0900269 155.166 44.8436 199.92 100.05 199.92Z" fill="#3F3D56"/>
<path opacity="0.1" d="M100.05 0.0100223C80.2676 0.000133543 60.9268 5.8579 44.4742 16.8422C28.0216 27.8266 15.1966 43.4439 7.62166 61.7186C0.0466962 79.9932 -1.93785 100.104 1.91908 119.507C5.77601 138.91 15.3011 156.732 29.2894 170.721C43.2776 184.709 61.1005 194.234 80.5033 198.091C99.906 201.948 120.017 199.963 138.291 192.388C156.566 184.813 172.183 171.988 183.168 155.536C194.152 139.083 200.01 119.742 200 99.96C199.987 73.4557 189.452 48.0408 170.711 29.2994C151.969 10.558 126.554 0.0232711 100.05 0.0100223V0.0100223ZM100.05 186.63C82.9083 186.63 66.1516 181.547 51.8988 172.024C37.6459 162.5 26.5372 148.964 19.9774 133.127C13.4175 117.29 11.7012 99.8639 15.0454 83.0516C18.3895 66.2392 26.6441 50.7961 38.7651 38.6751C50.8861 26.5541 66.3292 18.2995 83.1416 14.9554C99.9539 11.6112 117.38 13.3276 133.217 19.8874C149.054 26.4473 162.59 37.5559 172.113 51.8088C181.637 66.0616 186.72 82.8183 186.72 99.96C186.72 111.342 184.478 122.612 180.123 133.127C175.767 143.643 169.383 153.197 161.335 161.245C153.287 169.293 143.732 175.677 133.217 180.033C122.702 184.388 111.432 186.63 100.05 186.63Z" fill="black"/>
<path d="M165 100.5C165 117.872 158.099 134.532 145.815 146.815C133.532 159.099 116.872 166 99.5 166C82.1283 166 65.4681 159.099 53.1845 146.815C40.9009 134.532 34 117.872 34 100.5C34 83.1283 40.9009 66.4681 53.1845 54.1845C65.4681 41.9009 82.1283 35 99.5 35C116.872 35 133.532 41.9009 145.815 54.1845C158.099 66.4681 165 83.1283 165 100.5Z" fill="#0076B2"/>
<path d="M130.368 82.2921L114.353 99.7528C114.325 99.7817 114.303 99.8164 114.287 99.8549C114.272 99.8933 114.264 99.9347 114.264 99.9764C114.264 100.018 114.272 100.06 114.287 100.098C114.303 100.136 114.325 100.171 114.353 100.2L125.59 113.005C125.858 113.295 126.041 113.664 126.115 114.065C126.189 114.466 126.151 114.882 126.005 115.26C125.859 115.638 125.613 115.961 125.296 116.189C124.979 116.417 124.607 116.54 124.225 116.543C123.712 116.541 123.219 116.323 122.855 115.935L111.678 103.176C111.621 103.116 111.544 103.082 111.464 103.082C111.384 103.082 111.307 103.116 111.25 103.176L108.526 106.124C107.411 107.346 106.079 108.317 104.609 108.979C103.139 109.642 101.56 109.983 99.9649 109.983C98.3397 109.975 96.7323 109.62 95.2367 108.938C93.741 108.257 92.387 107.263 91.2538 106.015L88.6373 103.147C88.5803 103.087 88.5034 103.053 88.4233 103.053C88.3432 103.053 88.2663 103.087 88.2093 103.147L77.0583 115.877C76.8788 116.07 76.6657 116.223 76.4311 116.327C76.1966 116.431 75.9451 116.485 75.6911 116.485C75.4372 116.485 75.1857 116.431 74.9511 116.327C74.7165 116.223 74.5034 116.07 74.324 115.877C74.1436 115.686 74.0005 115.457 73.9028 115.206C73.8051 114.954 73.7548 114.685 73.7548 114.412C73.7548 114.14 73.8051 113.87 73.9028 113.619C74.0005 113.367 74.1436 113.139 74.324 112.947L85.5178 100.171C85.5675 100.109 85.5949 100.03 85.5949 99.9477C85.5949 99.8657 85.5675 99.7865 85.5178 99.7241L69.503 82.2634C69.4618 82.2191 69.4093 82.1888 69.352 82.1765C69.2948 82.1643 69.2354 82.1705 69.1815 82.1945C69.1276 82.2184 69.0815 82.2591 69.0492 82.3112C69.0169 82.3632 68.9998 82.4245 69 82.4871V117.426C69.0042 118.776 69.5068 120.07 70.3979 121.025C71.2891 121.98 72.4966 122.519 73.7568 122.523H126.125C127.385 122.519 128.593 121.98 129.484 121.025C130.375 120.07 130.877 118.776 130.882 117.426V82.5157C130.884 82.4507 130.868 82.3864 130.835 82.3316C130.802 82.2768 130.755 82.2343 130.698 82.2098C130.642 82.1853 130.58 82.18 130.521 82.1948C130.462 82.2095 130.408 82.2435 130.368 82.2921V82.2921Z" fill="white"/>
<path d="M100.136 106.17C101.222 106.181 102.298 105.959 103.302 105.516C104.306 105.072 105.216 104.417 105.979 103.59L129.303 78.1468C128.475 77.4118 127.435 77.0066 126.36 77H73.9548C72.8792 77.0038 71.8385 77.4093 71.0119 78.1468L94.3412 103.59C95.0974 104.413 95.9997 105.065 96.995 105.508C97.9903 105.951 99.0583 106.176 100.136 106.17V106.17Z" fill="white"/>
</svg>
