<svg width="201" height="201" viewBox="0 0 201 201" fill="none" xmlns="http://www.w3.org/2000/svg">
<path d="M100.05 199.92C155.256 199.92 200.01 155.166 200.01 99.96C200.01 44.7536 155.256 0 100.05 0C44.8436 0 0.0900269 44.7536 0.0900269 99.96C0.0900269 155.166 44.8436 199.92 100.05 199.92Z" fill="#3F3D56"/>
<path opacity="0.1" d="M100.05 0.0100223C80.2676 0.000133543 60.9268 5.8579 44.4742 16.8422C28.0216 27.8266 15.1966 43.4439 7.62166 61.7186C0.0466962 79.9932 -1.93785 100.104 1.91908 119.507C5.77601 138.91 15.3011 156.732 29.2894 170.721C43.2776 184.709 61.1005 194.234 80.5033 198.091C99.906 201.948 120.017 199.963 138.291 192.388C156.566 184.813 172.183 171.988 183.168 155.536C194.152 139.083 200.01 119.742 200 99.96C199.987 73.4557 189.452 48.0408 170.711 29.2994C151.969 10.558 126.554 0.0232711 100.05 0.0100223V0.0100223ZM100.05 186.63C82.9083 186.63 66.1516 181.547 51.8988 172.024C37.6459 162.5 26.5372 148.964 19.9774 133.127C13.4175 117.29 11.7012 99.8639 15.0454 83.0516C18.3895 66.2392 26.6441 50.7961 38.7651 38.6751C50.8861 26.5541 66.3292 18.2995 83.1416 14.9554C99.9539 11.6112 117.38 13.3276 133.217 19.8874C149.054 26.4473 162.59 37.5559 172.113 51.8088C181.637 66.0616 186.72 82.8183 186.72 99.96C186.72 111.342 184.478 122.612 180.123 133.127C175.767 143.643 169.383 153.197 161.335 161.245C153.287 169.293 143.732 175.677 133.217 180.033C122.702 184.388 111.432 186.63 100.05 186.63Z" fill="black"/>
<path d="M165 100.5C165 117.872 158.099 134.532 145.815 146.815C133.532 159.099 116.872 166 99.5 166C82.1283 166 65.4681 159.099 53.1845 146.815C40.9009 134.532 34 117.872 34 100.5C34 83.1283 40.9009 66.4681 53.1845 54.1845C65.4681 41.9009 82.1283 35 99.5 35C116.872 35 133.532 41.9009 145.815 54.1845C158.099 66.4681 165 83.1283 165 100.5Z" fill="#0076B2"/>
<path fill-rule="evenodd" clip-rule="evenodd" d="M100.674 70.29C92.8441 70.2971 85.2726 72.9881 79.3131 77.882C73.3537 82.7758 69.395 89.5531 68.1451 97.0019C66.8953 104.451 68.4358 112.085 72.491 118.54C76.5463 124.994 82.8519 129.848 90.2801 132.233C91.9292 132.527 92.5251 131.538 92.5251 130.71C92.5251 129.882 92.5251 127.438 92.5251 124.794C83.351 126.704 81.4386 121.041 81.4386 121.041C79.942 117.368 77.7801 116.38 77.7801 116.38C74.7868 114.417 78.0019 114.457 78.0019 114.457C79.0479 114.595 80.0474 114.961 80.9241 115.528C81.8007 116.095 82.5313 116.848 83.06 117.729C85.998 122.59 90.779 121.188 92.6637 120.4C92.8039 118.786 93.5476 117.277 94.7562 116.153C87.4253 115.351 79.7203 112.614 79.7203 100.433C79.6742 97.2757 80.8956 94.223 83.1293 91.9126C82.1125 89.1722 82.2267 86.1602 83.4481 83.4986C83.4481 83.4986 86.2197 82.6439 92.5112 86.7573C97.9183 85.3327 103.623 85.3327 109.03 86.7573C115.225 82.6172 117.996 83.4719 117.996 83.4719C119.218 86.1335 119.332 89.1455 118.315 91.8858C120.545 94.1976 121.761 97.2506 121.71 100.407C121.71 112.627 114.005 115.311 106.66 116.099C107.445 116.872 108.05 117.797 108.434 118.813C108.819 119.828 108.975 120.911 108.891 121.989C108.891 126.236 108.891 129.655 108.891 130.71C108.891 131.552 109.487 132.54 111.164 132.233C118.597 129.846 124.905 124.988 128.96 118.528C133.015 112.068 134.552 104.428 133.295 96.9756C132.038 89.5233 128.069 82.7456 122.099 77.856C116.13 72.9665 108.549 70.2844 100.715 70.29H100.674Z" fill="white"/>
<path d="M84.71 105.46C84.71 105.58 84.48 105.61 84.31 105.53C84.14 105.45 84.04 105.29 84.09 105.17C84.14 105.05 84.33 105.02 84.5 105.1C84.67 105.18 84.77 105.34 84.71 105.46Z" fill="white"/>
<path d="M85.68 106.53C85.57 106.64 85.34 106.59 85.19 106.42C85.1198 106.361 85.0739 106.279 85.061 106.188C85.048 106.098 85.0691 106.006 85.12 105.93C85.24 105.82 85.45 105.87 85.61 106.04C85.77 106.21 85.8 106.43 85.68 106.53Z" fill="white"/>
<path d="M86.62 107.91C86.47 108.01 86.23 107.91 86.09 107.7C85.95 107.49 85.94 107.23 86.09 107.13C86.24 107.03 86.47 107.13 86.62 107.33C86.77 107.53 86.77 107.8 86.62 107.91Z" fill="white"/>
<path d="M87.9 109.23C87.77 109.37 87.49 109.33 87.29 109.14C87.09 108.95 87.02 108.67 87.16 108.53C87.3 108.39 87.57 108.43 87.77 108.62C87.97 108.81 88.04 109.09 87.9 109.23Z" fill="white"/>
<path d="M89.68 110C89.62 110.18 89.35 110.27 89.08 110.19C88.81 110.11 88.64 109.89 88.69 109.7C88.74 109.51 89.02 109.43 89.29 109.51C89.56 109.59 89.73 109.81 89.68 110Z" fill="white"/>
<path d="M91.62 110.14C91.62 110.34 91.4 110.5 91.12 110.5C90.84 110.5 90.6 110.35 90.6 110.16C90.6 109.97 90.82 109.8 91.11 109.79C91.4 109.78 91.62 109.95 91.62 110.14Z" fill="white"/>
<path d="M93.44 109.83C93.44 110.02 93.27 110.22 92.99 110.27C92.71 110.32 92.46 110.21 92.43 110.02C92.4 109.83 92.59 109.62 92.87 109.57C93.15 109.52 93.4 109.64 93.44 109.83V109.83Z" fill="white"/>
</svg>
