<svg width="200" height="200" viewBox="0 0 200 200" fill="none" xmlns="http://www.w3.org/2000/svg">
<path d="M99.96 199.92C155.166 199.92 199.92 155.166 199.92 99.96C199.92 44.7536 155.166 0 99.96 0C44.7536 0 0 44.7536 0 99.96C0 155.166 44.7536 199.92 99.96 199.92Z" fill="#3F3D56"/>
<path opacity="0.1" d="M100.05 1.25058e-05C80.2698 -0.00987762 60.9309 5.84662 44.4794 16.8287C28.0279 27.8109 15.2029 43.4253 7.62643 61.697C0.0499992 79.9687 -1.93744 100.077 1.91543 119.478C5.76831 138.88 15.2884 156.703 29.2717 170.693C43.255 184.683 61.0732 194.212 80.4726 198.075C99.8721 201.937 119.981 199.96 138.257 192.393C156.532 184.825 172.153 172.008 183.144 155.562C194.134 139.116 200 119.78 200 100C200 73.487 189.471 48.0592 170.728 29.307C151.986 10.5548 126.563 0.013269 100.05 1.25058e-05V1.25058e-05ZM100.05 186.62C82.9062 186.62 66.1475 181.536 51.8936 172.01C37.6397 162.484 26.531 148.945 19.9726 133.106C13.4142 117.266 11.7008 99.8368 15.0491 83.0231C18.3973 66.2094 26.6568 50.7664 38.7828 38.6474C50.9088 26.5284 66.3566 18.2778 83.1722 14.9393C99.9879 11.6007 117.416 13.3242 133.252 19.8917C149.088 26.4593 162.62 37.5757 172.138 51.8351C181.655 66.0945 186.73 82.8562 186.72 100C186.717 122.985 177.585 145.027 161.331 161.279C145.078 177.53 123.035 186.66 100.05 186.66V186.62Z" fill="black"/>
<path d="M165.966 102.526C165.428 119.889 158.014 136.328 145.356 148.225C132.698 160.122 115.832 166.504 98.4686 165.966C81.1052 165.428 64.6668 158.014 52.7695 145.356C40.8722 132.698 34.4906 115.832 35.0286 98.4686C35.5667 81.1052 42.9802 64.6668 55.6384 52.7695C68.2966 40.8722 85.1625 34.4906 102.526 35.0287C119.889 35.5667 136.328 42.9803 148.225 55.6384C160.122 68.2966 166.504 85.1626 165.966 102.526Z" fill="#0076B2"/>
<path d="M77.78 84.77H87.65V116.51H77.78V84.77ZM82.72 69C83.8513 69 84.9572 69.3355 85.8979 69.964C86.8385 70.5925 87.5717 71.4859 88.0046 72.5311C88.4375 73.5762 88.5508 74.7264 88.3301 75.8359C88.1094 76.9455 87.5646 77.9647 86.7646 78.7646C85.9647 79.5646 84.9455 80.1094 83.8359 80.3301C82.7264 80.5508 81.5762 80.4375 80.5311 80.0046C79.4859 79.5717 78.5925 78.8385 77.964 77.8979C77.3355 76.9572 77 75.8513 77 74.72C77 73.203 77.6026 71.7481 78.6754 70.6754C79.7481 69.6026 81.203 69 82.72 69" fill="white"/>
<path d="M95 84.7873H104.45V89.1273H104.63C105.577 87.5098 106.944 86.1793 108.587 85.2777C110.23 84.376 112.087 83.937 113.96 84.0073C123.96 84.0073 125.79 90.5773 125.79 99.1173V116.527H115.93V101.097C115.93 97.4173 115.87 92.6773 110.81 92.6773C105.75 92.6773 104.89 96.6773 104.89 100.827V116.527H95.04L95 84.7873Z" fill="white"/>
</svg>
