<svg width="345" height="265" viewBox="0 0 345 265" fill="none" xmlns="http://www.w3.org/2000/svg">
<path d="M62 74.25L62.5 74L62 74.25ZM108.25 139C109.75 138.333 111.333 138 113 138C117 138 120.167 140.417 122.5 145.25C125 150.083 126.25 155.333 126.25 161C126.25 164 125.833 166.583 125 168.75C122.5 175.25 118.417 181.167 112.75 186.5C107.083 191.833 100.25 197.25 92.25 202.75C84.4167 207.917 75.1667 212.667 64.5 217C54 221.167 44.25 223.25 35.25 223.25C21.75 223.25 12.75 217.917 8.25 207.25C5.58333 201.25 4.25 193.667 4.25 184.5C4.25 173 6.08333 161.167 9.75 149C13.5833 136.667 18.75 122.083 25.25 105.25C31.75 88.75 39.5 73.0833 48.5 58.25C57.5 43.25 67.4167 35.75 78.25 35.75C81.0833 35.75 83.6667 36.3333 86 37.5C87.8333 24.8333 92.0833 15.5 98.75 9.49999C102.917 5.99999 106.5 4.25 109.5 4.25C113 4.25 115.667 6.33333 117.5 10.5C118.667 13.5 119.25 17.3333 119.25 22C119.25 24.3333 119.083 27.5 118.75 31.5L118.5 39C118.167 51.1667 117.417 63.3333 116.25 75.5C115.25 86.5 112.833 97 109 107C105.167 117 99.0833 122.417 90.75 123.25C86.5833 123.75 83.1667 121.583 80.5 116.75C78 111.917 75.3333 104.833 72.5 95.5C70.6667 89.5 69.0833 85 67.75 82C66.5833 78.8333 65.25 76.5 63.75 75C54.25 91.8333 47.25 110.25 42.75 130.25L41.5 135.25C40.1667 141.25 39.0833 146.25 38.25 150.25C37.5833 154.083 37.25 157.917 37.25 161.75C37.25 170.25 39.4167 176.083 43.75 179.25C46.75 181.75 51 183 56.5 183C60.1667 183 64.1667 182.417 68.5 181.25C72.8333 180.25 77.4167 178.667 82.25 176.5C83.75 175.833 86 174.667 89 173C90.3333 172.833 91 172.333 91 171.5C91 170.833 90.5833 170.167 89.75 169.5C90.0833 168 90.4167 165.917 90.75 163.25C91.0833 160.75 91.5 158.667 92 157C92.5 155.333 93.3333 153.583 94.5 151.75C98.8333 145.417 103.417 141.167 108.25 139Z" fill="white"/>
<path d="M108.25 139L106.625 135.345L106.614 135.35L108.25 139ZM122.5 145.25L118.898 146.989L118.922 147.039L118.947 147.088L122.5 145.25ZM125 168.75L121.267 167.314L121.267 167.314L125 168.75ZM112.75 186.5L110.009 183.587L110.009 183.587L112.75 186.5ZM92.25 202.75L94.4524 206.089L94.4845 206.068L94.5161 206.046L92.25 202.75ZM64.5 217L65.9754 220.718L65.9905 220.712L66.0055 220.706L64.5 217ZM8.25 207.25L11.9355 205.695L11.9207 205.66L11.9052 205.625L8.25 207.25ZM9.75 149L5.93025 147.813L5.92512 147.829L5.92014 147.846L9.75 149ZM25.25 105.25L21.5284 103.784L21.5234 103.796L21.5185 103.809L25.25 105.25ZM48.5 58.25L51.9198 60.3249L51.9249 60.3164L51.93 60.308L48.5 58.25ZM86 37.5L84.2112 41.0777L89.1653 43.5548L89.9588 38.073L86 37.5ZM98.75 9.49999L96.1772 6.43717L96.1249 6.48111L96.0741 6.52681L98.75 9.49999ZM117.5 10.5L121.228 9.0502L121.196 8.96889L121.161 8.88903L117.5 10.5ZM118.75 31.5L114.764 31.1678L114.756 31.2671L114.752 31.3667L118.75 31.5ZM118.5 39L114.502 38.8667L114.502 38.8786L114.502 38.8904L118.5 39ZM116.25 75.5L112.268 75.1182L112.267 75.128L112.266 75.1378L116.25 75.5ZM109 107L105.265 105.568L105.265 105.568L109 107ZM90.75 123.25L90.352 119.27L90.3127 119.274L90.2734 119.278L90.75 123.25ZM80.5 116.75L76.9471 118.588L76.9718 118.635L76.9977 118.682L80.5 116.75ZM72.5 95.5L76.3275 94.3381L76.3254 94.3311L72.5 95.5ZM67.75 82L63.9966 83.3828L64.0417 83.5053L64.0948 83.6245L67.75 82ZM63.75 75L66.5784 72.1716L62.8547 68.4478L60.2665 73.034L63.75 75ZM42.75 130.25L46.6306 131.22L46.6421 131.174L46.6524 131.128L42.75 130.25ZM41.5 135.25L37.6194 134.28L37.6067 134.331L37.5953 134.382L41.5 135.25ZM38.25 150.25L34.3341 149.434L34.3205 149.499L34.3092 149.565L38.25 150.25ZM43.75 179.25L46.3107 176.177L46.2129 176.096L46.1101 176.02L43.75 179.25ZM68.5 181.25L67.6006 177.352L67.53 177.369L67.4601 177.388L68.5 181.25ZM82.25 176.5L80.6254 172.845L80.6138 172.85L82.25 176.5ZM89 173L88.5039 169.031L87.7349 169.127L87.0574 169.503L89 173ZM89.75 169.5L85.8453 168.632L85.3044 171.066L87.2512 172.623L89.75 169.5ZM90.75 163.25L86.7851 162.721L86.7829 162.738L86.7809 162.754L90.75 163.25ZM92 157L88.1687 155.851L88.1687 155.851L92 157ZM94.5 151.75L91.1988 149.491L91.1611 149.546L91.1254 149.602L94.5 151.75ZM63.7888 77.8277L64.2888 77.5777L60.7112 70.4223L60.2112 70.6723L63.7888 77.8277ZM60.7112 70.4223L60.2112 70.6723L63.7888 77.8277L64.2888 77.5777L60.7112 70.4223ZM109.875 142.655C110.855 142.219 111.884 142 113 142V134C110.783 134 108.645 134.447 106.625 135.345L109.875 142.655ZM113 142C114.932 142 116.964 142.983 118.898 146.989L126.102 143.511C123.369 137.85 119.068 134 113 134V142ZM118.947 147.088C121.141 151.329 122.25 155.945 122.25 161H130.25C130.25 154.721 128.859 148.837 126.053 143.412L118.947 147.088ZM122.25 161C122.25 163.646 121.881 165.718 121.267 167.314L128.733 170.186C129.786 167.449 130.25 164.354 130.25 161H122.25ZM121.267 167.314C119.006 173.191 115.29 178.617 110.009 183.587L115.491 189.413C121.544 183.717 125.994 177.309 128.733 170.186L121.267 167.314ZM110.009 183.587C104.521 188.752 97.8551 194.042 89.9839 199.454L94.5161 206.046C102.645 200.458 109.645 194.915 115.491 189.413L110.009 183.587ZM90.0476 199.411C82.4768 204.404 73.47 209.038 62.9945 213.294L66.0055 220.706C76.8634 216.295 86.3566 211.429 94.4524 206.089L90.0476 199.411ZM63.0246 213.282C52.8789 217.308 43.634 219.25 35.25 219.25V227.25C44.866 227.25 55.1211 225.025 65.9754 220.718L63.0246 213.282ZM35.25 219.25C29.0133 219.25 24.1422 218.018 20.4142 215.809C16.7292 213.625 13.89 210.328 11.9355 205.695L4.56454 208.805C7.10998 214.838 11.0208 219.542 16.3358 222.691C21.6078 225.815 27.9867 227.25 35.25 227.25V219.25ZM11.9052 205.625C9.5371 200.297 8.25 193.314 8.25 184.5H0.25C0.25 194.019 1.62956 202.203 4.59475 208.875L11.9052 205.625ZM8.25 184.5C8.25 173.43 10.0143 161.985 13.5799 150.154L5.92014 147.846C2.15238 160.348 0.25 172.57 0.25 184.5H8.25ZM13.5698 150.187C17.3684 137.965 22.5021 123.471 28.9815 106.691L21.5185 103.809C14.9979 120.696 9.79824 135.368 5.93025 147.813L13.5698 150.187ZM28.9716 106.716C35.3903 90.4226 43.04 74.96 51.9198 60.3249L45.0802 56.1751C35.96 71.2067 28.1097 87.0774 21.5284 103.784L28.9716 106.716ZM51.93 60.308C60.6718 45.7382 69.5358 39.75 78.25 39.75V31.75C65.2976 31.75 54.3282 40.7618 45.07 56.192L51.93 60.308ZM78.25 39.75C80.5168 39.75 82.48 40.2121 84.2112 41.0777L87.7889 33.9223C84.8533 32.4545 81.6498 31.75 78.25 31.75V39.75ZM89.9588 38.073C91.7143 25.9439 95.6985 17.6278 101.426 12.4732L96.0741 6.52681C88.4682 13.3722 83.9524 23.7228 82.0413 36.927L89.9588 38.073ZM101.323 12.5628C105.29 9.23044 107.95 8.25 109.5 8.25V0.249995C105.05 0.249995 100.543 2.76954 96.1772 6.43717L101.323 12.5628ZM109.5 8.25C110.391 8.25 111.058 8.49235 111.662 8.96459C112.326 9.48333 113.1 10.4324 113.839 12.1109L121.161 8.88903C120.066 6.40092 118.59 4.22499 116.588 2.66039C114.525 1.04931 112.109 0.249995 109.5 0.249995V8.25ZM113.772 11.9498C114.697 14.3294 115.25 17.6253 115.25 22H123.25C123.25 17.0413 122.636 12.6705 121.228 9.0502L113.772 11.9498ZM115.25 22C115.25 24.1715 115.093 27.212 114.764 31.1678L122.736 31.8322C123.073 27.788 123.25 24.4952 123.25 22H115.25ZM114.752 31.3667L114.502 38.8667L122.498 39.1333L122.748 31.6332L114.752 31.3667ZM114.502 38.8904C114.171 50.9658 113.426 63.0417 112.268 75.1182L120.232 75.8818C121.407 63.625 122.163 51.3675 122.499 39.1095L114.502 38.8904ZM112.266 75.1378C111.299 85.7831 108.963 95.9223 105.265 105.568L112.735 108.432C116.704 98.0777 119.201 87.2168 120.234 75.8621L112.266 75.1378ZM105.265 105.568C101.794 114.623 96.7404 118.631 90.352 119.27L91.148 127.23C101.426 126.202 108.539 119.377 112.735 108.432L105.265 105.568ZM90.2734 119.278C89.0683 119.423 88.1037 119.192 87.2047 118.622C86.2333 118.006 85.1239 116.851 84.0023 114.818L76.9977 118.682C78.5427 121.483 80.4751 123.827 82.9203 125.378C85.438 126.975 88.265 127.577 91.2266 127.222L90.2734 119.278ZM84.0529 114.912C81.7197 110.401 79.1362 103.59 76.3275 94.3381L68.6725 96.6619C71.5304 106.076 74.2803 113.432 76.9471 118.588L84.0529 114.912ZM76.3254 94.3311C74.4791 88.2886 72.8394 83.6022 71.4052 80.3754L64.0948 83.6245C65.3273 86.3977 66.8543 90.7114 68.6746 96.6689L76.3254 94.3311ZM71.5034 80.6172C70.2418 77.1929 68.6589 74.252 66.5784 72.1716L60.9216 77.8284C61.8412 78.748 62.9249 80.4737 63.9966 83.3828L71.5034 80.6172ZM60.2665 73.034C50.5632 90.2276 43.4281 109.014 38.8476 129.372L46.6524 131.128C51.0719 111.486 57.9369 93.439 67.2335 76.9659L60.2665 73.034ZM38.8694 129.28L37.6194 134.28L45.3806 136.22L46.6306 131.22L38.8694 129.28ZM37.5953 134.382C36.2598 140.392 35.1723 145.411 34.3341 149.434L42.1659 151.066C42.9943 147.089 44.0736 142.108 45.4048 136.118L37.5953 134.382ZM34.3092 149.565C33.6037 153.621 33.25 157.684 33.25 161.75H41.25C41.25 158.15 41.563 154.546 42.1909 150.935L34.3092 149.565ZM33.25 161.75C33.25 170.768 35.5375 178.203 41.3899 182.48L46.1101 176.02C43.2958 173.964 41.25 169.732 41.25 161.75H33.25ZM41.1893 182.323C45.1525 185.626 50.4413 187 56.5 187V179C51.5587 179 48.3475 177.874 46.3107 176.177L41.1893 182.323ZM56.5 187C60.5859 187 64.9401 186.351 69.5399 185.112L67.4601 177.388C63.3932 178.482 59.7475 179 56.5 179V187ZM69.3994 185.148C74.0283 184.079 78.8593 182.403 83.8862 180.15L80.6138 172.85C75.974 174.93 71.6384 176.421 67.6006 177.352L69.3994 185.148ZM83.8746 180.155C85.5459 179.412 87.9251 178.173 90.9426 176.497L87.0574 169.503C84.0749 171.16 81.9541 172.254 80.6255 172.845L83.8746 180.155ZM89.4961 176.969C90.4735 176.847 91.7676 176.549 92.9 175.7C94.2406 174.695 95 173.176 95 171.5H87C87 171.161 87.0716 170.725 87.2973 170.274C87.523 169.822 87.8292 169.503 88.1 169.3C88.5657 168.951 88.8599 168.986 88.5039 169.031L89.4961 176.969ZM95 171.5C95 169.04 93.4624 167.347 92.2488 166.377L87.2512 172.623C87.4331 172.769 87.3946 172.779 87.2955 172.62C87.1787 172.433 87 172.042 87 171.5H95ZM93.6548 170.368C94.0282 168.687 94.3799 166.46 94.7191 163.746L86.7809 162.754C86.4535 165.373 86.1384 167.313 85.8453 168.632L93.6548 170.368ZM94.7149 163.779C95.0315 161.404 95.4126 159.545 95.8313 158.149L88.1687 155.851C87.5874 157.788 87.1352 160.096 86.7851 162.721L94.7149 163.779ZM95.8313 158.149C96.2033 156.909 96.8586 155.494 97.8747 153.897L91.1254 149.602C89.8081 151.672 88.7967 153.757 88.1687 155.851L95.8313 158.149ZM97.8012 154.009C101.895 148.026 105.962 144.409 109.886 142.65L106.614 135.35C100.871 137.924 95.7722 142.807 91.1988 149.491L97.8012 154.009Z" fill="black"/>
<path d="M266.75 177C269.417 178 272.417 179.417 275.75 181.25C270.75 163.25 266.917 147.917 264.25 135.25C257.75 148.25 249.167 164.083 238.5 182.75C237.667 184.583 236.25 187.167 234.25 190.5C240.917 180.167 248.5 175 257 175C260.333 175 263.583 175.667 266.75 177ZM306.75 141.5C313.583 164.667 321.667 186.25 331 206.25L333.75 211.75C336.083 215.75 337.833 219.167 339 222C340.167 224.667 340.75 227.417 340.75 230.25C340.75 234.583 338.917 239.083 335.25 243.75C331.583 248.25 327.583 251.583 323.25 253.75C320.583 255.25 317.75 256 314.75 256C309.75 256 304.75 254.5 299.75 251.5C294.917 248.333 289.083 243.833 282.25 238C277.417 234 273.75 231.167 271.25 229.5C269.583 228.333 266.083 226.5 260.75 224C251.417 219.333 244.167 215.167 239 211.5C234 207.833 231.5 203.5 231.5 198.5C231.5 197.167 232.083 195.167 233.25 192.5C230.083 198.167 225.667 206.833 220 218.5C213 232.667 209 240.583 208 242.25C206 245.917 202.75 250 198.25 254.5C193.75 258.833 189.583 261 185.75 261C183.75 261 182 260.25 180.5 258.75C179.333 257.583 178.75 255.75 178.75 253.25C178.75 246.25 184.083 233.833 194.75 216C195.417 214.667 196.5 212.75 198 210.25L203.5 199.75C214.833 178.417 223.083 162.333 228.25 151.5C231.25 145.167 235.583 135.667 241.25 123L250.25 102.75C253.917 94.9167 257.583 88.4167 261.25 83.25C264.917 77.9167 269.5 73.8333 275 71C277.833 69.5 280.5 68.75 283 68.75C286.333 68.75 288.75 70.3333 290.25 73.5C291.75 76.5 293.083 81 294.25 87C297.25 104.167 301.417 122.333 306.75 141.5Z" fill="white"/>
<path d="M266.75 177L265.198 180.687L265.271 180.717L265.346 180.745L266.75 177ZM275.75 181.25L273.822 184.755L282.147 189.333L279.604 180.179L275.75 181.25ZM264.25 135.25L268.164 134.426L265.801 123.203L260.672 133.461L264.25 135.25ZM238.5 182.75L235.027 180.765L234.935 180.926L234.859 181.095L238.5 182.75ZM234.25 190.5L230.82 188.442L237.611 192.669L234.25 190.5ZM306.75 141.5L302.896 142.572L302.905 142.602L302.913 142.632L306.75 141.5ZM331 206.25L327.375 207.942L327.398 207.991L327.422 208.039L331 206.25ZM333.75 211.75L330.172 213.539L330.23 213.654L330.295 213.765L333.75 211.75ZM339 222L335.301 223.523L335.318 223.563L335.335 223.603L339 222ZM335.25 243.75L338.351 246.277L338.373 246.249L338.395 246.221L335.25 243.75ZM323.25 253.75L321.461 250.172L321.374 250.216L321.289 250.264L323.25 253.75ZM299.75 251.5L297.558 254.846L297.624 254.889L297.692 254.93L299.75 251.5ZM282.25 238L284.847 234.958L284.824 234.938L284.8 234.918L282.25 238ZM271.25 229.5L268.956 232.777L268.993 232.803L269.031 232.828L271.25 229.5ZM260.75 224L258.961 227.578L259.006 227.6L259.052 227.622L260.75 224ZM239 211.5L236.635 214.726L236.66 214.744L236.685 214.762L239 211.5ZM233.25 192.5L236.915 194.103L229.758 190.549L233.25 192.5ZM220 218.5L223.586 220.272L223.592 220.26L223.598 220.248L220 218.5ZM208 242.25L204.57 240.192L204.528 240.262L204.488 240.335L208 242.25ZM198.25 254.5L201.025 257.381L201.052 257.355L201.078 257.328L198.25 254.5ZM180.5 258.75L183.328 255.922L183.328 255.922L180.5 258.75ZM194.75 216L198.183 218.053L198.26 217.924L198.328 217.789L194.75 216ZM198 210.25L201.43 212.308L201.49 212.209L201.543 212.106L198 210.25ZM203.5 199.75L199.968 197.873L199.962 197.884L199.957 197.894L203.5 199.75ZM228.25 151.5L231.86 153.222L231.865 153.212L228.25 151.5ZM241.25 123L244.901 124.633L244.905 124.625L241.25 123ZM250.25 102.75L246.627 101.054L246.611 101.09L246.595 101.125L250.25 102.75ZM261.25 83.25L264.512 85.565L264.529 85.5407L264.546 85.5161L261.25 83.25ZM275 71L276.832 74.5559L276.852 74.5456L276.872 74.5351L275 71ZM290.25 73.5L286.635 75.2123L286.653 75.2508L286.672 75.2889L290.25 73.5ZM294.25 87L298.19 86.3114L298.184 86.2739L298.176 86.2365L294.25 87ZM265.346 180.745C267.784 181.66 270.605 182.985 273.822 184.755L277.678 177.745C274.228 175.848 271.049 174.34 268.154 173.255L265.346 180.745ZM279.604 180.179C274.618 162.229 270.808 146.982 268.164 134.426L260.336 136.074C263.026 148.851 266.882 164.271 271.896 182.321L279.604 180.179ZM260.672 133.461C254.217 146.372 245.673 162.136 235.027 180.765L241.973 184.735C252.661 166.031 261.283 150.128 267.828 137.039L260.672 133.461ZM234.859 181.095C234.122 182.716 232.8 185.143 230.82 188.442L237.68 192.558C239.7 189.19 241.212 186.451 242.141 184.405L234.859 181.095ZM237.611 192.669C243.897 182.926 250.405 179 257 179V171C246.595 171 237.936 177.408 230.889 188.331L237.611 192.669ZM257 179C259.784 179 262.507 179.554 265.198 180.687L268.302 173.313C264.66 171.78 260.883 171 257 171V179ZM302.913 142.632C309.798 165.972 317.95 187.744 327.375 207.942L334.625 204.558C325.383 184.756 317.369 163.361 310.587 140.368L302.913 142.632ZM327.422 208.039L330.172 213.539L337.328 209.961L334.578 204.461L327.422 208.039ZM330.295 213.765C332.577 217.678 334.23 220.921 335.301 223.523L342.699 220.477C341.437 217.412 339.589 213.822 337.205 209.735L330.295 213.765ZM335.335 223.603C336.287 225.779 336.75 227.984 336.75 230.25H344.75C344.75 226.85 344.046 223.555 342.665 220.397L335.335 223.603ZM336.75 230.25C336.75 233.407 335.42 237.059 332.105 241.279L338.395 246.221C342.413 241.108 344.75 235.76 344.75 230.25H336.75ZM332.149 241.223C328.771 245.37 325.197 248.304 321.461 250.172L325.039 257.328C329.969 254.862 334.396 251.13 338.351 246.277L332.149 241.223ZM321.289 250.264C319.209 251.434 317.049 252 314.75 252V260C318.451 260 321.958 259.066 325.211 257.236L321.289 250.264ZM314.75 252C310.588 252 306.291 250.76 301.808 248.07L297.692 254.93C303.209 258.24 308.912 260 314.75 260V252ZM301.942 248.154C297.305 245.116 291.614 240.734 284.847 234.958L279.653 241.042C286.553 246.932 292.528 251.551 297.558 254.846L301.942 248.154ZM284.8 234.918C279.949 230.904 276.15 227.959 273.469 226.172L269.031 232.828C271.35 234.374 274.884 237.096 279.7 241.082L284.8 234.918ZM273.544 226.223C271.549 224.827 267.736 222.857 262.448 220.378L259.052 227.622C264.43 230.143 267.617 231.84 268.956 232.777L273.544 226.223ZM262.539 220.422C253.288 215.797 246.243 211.735 241.315 208.238L236.685 214.762C242.091 218.598 249.546 222.87 258.961 227.578L262.539 220.422ZM241.365 208.274C237.117 205.159 235.5 201.919 235.5 198.5H227.5C227.5 205.081 230.883 210.507 236.635 214.726L241.365 208.274ZM235.5 198.5C235.5 198.062 235.768 196.723 236.915 194.103L229.585 190.897C228.398 193.61 227.5 196.271 227.5 198.5H235.5ZM229.758 190.549C226.533 196.319 222.076 205.07 216.402 216.752L223.598 220.248C229.257 208.596 233.633 200.014 236.742 194.451L229.758 190.549ZM216.414 216.728C209.357 231.009 205.461 238.707 204.57 240.192L211.43 244.308C212.539 242.459 216.643 234.324 223.586 220.272L216.414 216.728ZM204.488 240.335C202.74 243.539 199.777 247.316 195.422 251.672L201.078 257.328C205.723 252.684 209.26 248.294 211.512 244.165L204.488 240.335ZM195.475 251.619C191.275 255.663 188.062 257 185.75 257V265C191.105 265 196.225 262.003 201.025 257.381L195.475 251.619ZM185.75 257C184.88 257 184.129 256.722 183.328 255.922L177.672 261.578C179.871 263.778 182.62 265 185.75 265V257ZM183.328 255.922C183.222 255.815 182.75 255.227 182.75 253.25H174.75C174.75 256.273 175.445 259.352 177.672 261.578L183.328 255.922ZM182.75 253.25C182.75 250.591 183.811 246.354 186.425 240.266C188.995 234.283 192.898 226.889 198.183 218.053L191.317 213.947C185.935 222.944 181.838 230.675 179.075 237.109C176.356 243.438 174.75 248.909 174.75 253.25H182.75ZM198.328 217.789C198.924 216.597 199.943 214.786 201.43 212.308L194.57 208.192C193.057 210.714 191.91 212.737 191.172 214.211L198.328 217.789ZM201.543 212.106L207.043 201.606L199.957 197.894L194.457 208.394L201.543 212.106ZM207.032 201.627C218.372 180.282 226.655 164.137 231.86 153.222L224.64 149.778C219.512 160.53 211.295 176.551 199.968 197.873L207.032 201.627ZM231.865 153.212C234.884 146.838 239.232 137.306 244.901 124.633L237.599 121.367C231.935 134.027 227.616 143.495 224.635 149.788L231.865 153.212ZM244.905 124.625L253.905 104.375L246.595 101.125L237.595 121.375L244.905 124.625ZM253.873 104.446C257.472 96.7567 261.024 90.4805 264.512 85.565L257.988 80.935C254.143 86.3528 250.361 93.0767 246.627 101.054L253.873 104.446ZM264.546 85.5161C267.857 80.701 271.946 77.0727 276.832 74.5559L273.168 67.4441C267.054 70.594 261.977 75.1323 257.954 80.9839L264.546 85.5161ZM276.872 74.5351C279.287 73.2565 281.311 72.75 283 72.75V64.75C279.689 64.75 276.38 65.7434 273.128 67.4648L276.872 74.5351ZM283 72.75C284.011 72.75 284.659 72.9811 285.12 73.2833C285.594 73.5936 286.133 74.1521 286.635 75.2123L293.865 71.7877C292.867 69.6812 291.448 67.8647 289.505 66.5916C287.549 65.3105 285.323 64.75 283 64.75V72.75ZM286.672 75.2889C287.928 77.8008 289.179 81.8787 290.324 87.7635L298.176 86.2365C296.987 80.1213 295.572 75.1992 293.828 71.7111L286.672 75.2889ZM290.31 87.6886C293.335 105.001 297.533 123.297 302.896 142.572L310.604 140.428C305.301 121.37 301.165 103.332 298.19 86.3114L290.31 87.6886Z" fill="black"/>
<path d="M142.954 94.9155L146.999 81.8515H149.746L153.791 94.9155L158.356 81.8515H161.659L155.313 100H152.269L148.484 87.567H148.261L144.438 100H141.395L135.049 81.8515H138.352L142.954 94.9155ZM182.265 81.8515V84.7093H172.579V89.534H181.263V92.2433H172.579V97.1052H182.562V100H169.498V81.8515H182.265ZM191.456 100V81.8515H198.507C201.056 81.8515 202.787 82.3959 203.703 83.4845C204.519 84.4 204.928 85.4515 204.928 86.6392C204.928 88.0742 204.482 89.1381 203.592 89.8309C203.295 90.0536 202.849 90.301 202.256 90.5732C203.394 90.8206 204.284 91.3278 204.928 92.0948C205.596 92.8619 205.93 93.8144 205.93 94.9526C205.93 96.3876 205.41 97.5876 204.371 98.5526C203.357 99.5175 201.699 100 199.398 100H191.456ZM194.536 89.3856H198.396C200.623 89.3856 201.736 88.6309 201.736 87.1216C201.736 86.2557 201.464 85.6371 200.919 85.266C200.4 84.8701 199.571 84.6722 198.433 84.6722H194.536V89.3856ZM194.536 97.1794H199.324C200.511 97.1794 201.39 96.9938 201.959 96.6227C202.528 96.2268 202.812 95.5588 202.812 94.6186C202.812 93.0103 201.526 92.2062 198.952 92.2062H194.536V97.1794ZM150.238 132.315V129.049L162.486 123.371V126.34L153.356 130.46V130.757L162.486 134.988V137.957L150.238 132.315ZM175.359 119.92H177.957L166.711 144.043H164.113L175.359 119.92ZM191.763 129.049V132.315L179.516 137.957V134.988L188.683 130.757V130.46L179.516 126.34V123.371L191.763 129.049ZM147.061 163.852C150.303 163.852 152.802 164.643 154.558 166.227C156.315 167.786 157.193 169.988 157.193 172.833C157.193 175.728 156.327 177.979 154.595 179.588C152.863 181.196 150.278 182 146.839 182H140.826V163.852H147.061ZM146.95 166.672H143.907V179.105H147.284C149.511 179.105 151.206 178.586 152.369 177.546C153.531 176.482 154.113 174.936 154.113 172.907C154.113 168.751 151.725 166.672 146.95 166.672ZM178.855 163.852V166.709H169.169V171.534H177.853V174.243H169.169V179.105H179.152V182H166.088V163.852H178.855ZM196.322 182H192.907L185.596 163.852H189.047L194.614 177.398L200.219 163.852H203.633L196.322 182Z" fill="white"/>
<path d="M142.954 94.9155L142.011 95.2477L143.015 98.0987L143.909 95.2113L142.954 94.9155ZM146.999 81.8515V80.8515H146.262L146.044 81.5557L146.999 81.8515ZM149.746 81.8515L150.701 81.5557L150.483 80.8515H149.746V81.8515ZM153.791 94.9155L152.836 95.2113L153.734 98.111L154.735 95.2453L153.791 94.9155ZM158.356 81.8515V80.8515H157.646L157.412 81.5217L158.356 81.8515ZM161.659 81.8515L162.603 82.1816L163.068 80.8515H161.659V81.8515ZM155.313 100V101H156.022L156.257 100.33L155.313 100ZM152.269 100L151.313 100.291L151.528 101H152.269V100ZM148.484 87.567L149.44 87.2757L149.225 86.567H148.484V87.567ZM148.261 87.567V86.567H147.522L147.305 87.2731L148.261 87.567ZM144.438 100V101H145.177L145.394 100.294L144.438 100ZM141.395 100L140.451 100.33L140.685 101H141.395V100ZM135.049 81.8515V80.8515H133.64L134.105 82.1816L135.049 81.8515ZM138.352 81.8515L139.295 81.5193L139.06 80.8515H138.352V81.8515ZM143.909 95.2113L147.954 82.1473L146.044 81.5557L141.999 94.6197L143.909 95.2113ZM146.999 82.8515H149.746V80.8515H146.999V82.8515ZM148.79 82.1473L152.836 95.2113L154.746 94.6197L150.701 81.5557L148.79 82.1473ZM154.735 95.2453L159.3 82.1814L157.412 81.5217L152.847 94.5856L154.735 95.2453ZM158.356 82.8515H161.659V80.8515H158.356V82.8515ZM160.715 81.5215L154.369 99.6699L156.257 100.33L162.603 82.1816L160.715 81.5215ZM155.313 99H152.269V101H155.313V99ZM153.226 99.7087L149.44 87.2757L147.527 87.8583L151.313 100.291L153.226 99.7087ZM148.484 86.567H148.261V88.567H148.484V86.567ZM147.305 87.2731L143.483 99.7061L145.394 100.294L149.217 87.8609L147.305 87.2731ZM144.438 99H141.395V101H144.438V99ZM142.339 99.6699L135.993 81.5215L134.105 82.1816L140.451 100.33L142.339 99.6699ZM135.049 82.8515H138.352V80.8515H135.049V82.8515ZM137.409 82.1838L142.011 95.2477L143.897 94.5832L139.295 81.5193L137.409 82.1838ZM182.265 81.8515H183.265V80.8515H182.265V81.8515ZM182.265 84.7093V85.7093H183.265V84.7093H182.265ZM172.579 84.7093V83.7093H171.579V84.7093H172.579ZM172.579 89.534H171.579V90.534H172.579V89.534ZM181.263 89.534H182.263V88.534H181.263V89.534ZM181.263 92.2433V93.2433H182.263V92.2433H181.263ZM172.579 92.2433V91.2433H171.579V92.2433H172.579ZM172.579 97.1052H171.579V98.1052H172.579V97.1052ZM182.562 97.1052H183.562V96.1052H182.562V97.1052ZM182.562 100V101H183.562V100H182.562ZM169.498 100H168.498V101H169.498V100ZM169.498 81.8515V80.8515H168.498V81.8515H169.498ZM181.265 81.8515V84.7093H183.265V81.8515H181.265ZM182.265 83.7093H172.579V85.7093H182.265V83.7093ZM171.579 84.7093V89.534H173.579V84.7093H171.579ZM172.579 90.534H181.263V88.534H172.579V90.534ZM180.263 89.534V92.2433H182.263V89.534H180.263ZM181.263 91.2433H172.579V93.2433H181.263V91.2433ZM171.579 92.2433V97.1052H173.579V92.2433H171.579ZM172.579 98.1052H182.562V96.1052H172.579V98.1052ZM181.562 97.1052V100H183.562V97.1052H181.562ZM182.562 99H169.498V101H182.562V99ZM170.498 100V81.8515H168.498V100H170.498ZM169.498 82.8515H182.265V80.8515H169.498V82.8515ZM191.456 100H190.456V101H191.456V100ZM191.456 81.8515V80.8515H190.456V81.8515H191.456ZM203.703 83.4845L202.938 84.1281L202.947 84.1393L202.957 84.1501L203.703 83.4845ZM203.592 89.8309L204.192 90.6309L204.199 90.6257L204.206 90.6203L203.592 89.8309ZM202.256 90.5732L201.839 89.6641L199.113 90.9134L202.043 91.5504L202.256 90.5732ZM204.928 92.0948L204.161 92.7375L204.167 92.7446L204.174 92.7516L204.928 92.0948ZM204.371 98.5526L203.69 97.8197L203.682 97.828L204.371 98.5526ZM194.536 89.3856H193.536V90.3856H194.536V89.3856ZM200.919 85.266L200.313 86.0614L200.334 86.0774L200.356 86.0922L200.919 85.266ZM194.536 84.6722V83.6722H193.536V84.6722H194.536ZM194.536 97.1794H193.536V98.1794H194.536V97.1794ZM201.959 96.6227L202.505 97.4603L202.517 97.4521L202.53 97.4436L201.959 96.6227ZM194.536 92.2062V91.2062H193.536V92.2062H194.536ZM192.456 100V81.8515H190.456V100H192.456ZM191.456 82.8515H198.507V80.8515H191.456V82.8515ZM198.507 82.8515C200.98 82.8515 202.319 83.392 202.938 84.1281L204.468 82.8409C203.256 81.3998 201.131 80.8515 198.507 80.8515V82.8515ZM202.957 84.1501C203.616 84.889 203.928 85.7058 203.928 86.6392H205.928C205.928 85.1973 205.423 83.911 204.449 82.8189L202.957 84.1501ZM203.928 86.6392C203.928 87.8575 203.56 88.5883 202.978 89.0416L204.206 90.6203C205.404 89.688 205.928 88.291 205.928 86.6392H203.928ZM202.992 89.0309C202.779 89.1903 202.409 89.4029 201.839 89.6641L202.672 91.4823C203.29 91.1992 203.81 90.9169 204.192 90.6309L202.992 89.0309ZM202.043 91.5504C203.002 91.7587 203.683 92.1671 204.161 92.7375L205.694 91.4522C204.886 90.4886 203.786 89.8825 202.468 89.596L202.043 91.5504ZM204.174 92.7516C204.664 93.3146 204.93 94.0251 204.93 94.9526H206.93C206.93 93.6038 206.527 92.4091 205.682 91.4381L204.174 92.7516ZM204.93 94.9526C204.93 96.1133 204.523 97.0466 203.691 97.8198L205.051 99.2854C206.297 98.1287 206.93 96.6619 206.93 94.9526H204.93ZM203.682 97.828C202.942 98.532 201.598 99 199.398 99V101C201.799 101 203.771 100.503 205.06 99.2771L203.682 97.828ZM199.398 99H191.456V101H199.398V99ZM194.536 90.3856H198.396V88.3856H194.536V90.3856ZM198.396 90.3856C199.591 90.3856 200.663 90.1888 201.462 89.6474C202.33 89.0589 202.736 88.1606 202.736 87.1216H200.736C200.736 87.592 200.585 87.8256 200.34 87.9918C200.025 88.2051 199.427 88.3856 198.396 88.3856V90.3856ZM202.736 87.1216C202.736 86.0403 202.383 85.0539 201.483 84.4398L200.356 86.0922C200.544 86.2203 200.736 86.471 200.736 87.1216H202.736ZM201.525 84.4705C200.744 83.8748 199.645 83.6722 198.433 83.6722V85.6722C199.497 85.6722 200.056 85.8654 200.313 86.0614L201.525 84.4705ZM198.433 83.6722H194.536V85.6722H198.433V83.6722ZM193.536 84.6722V89.3856H195.536V84.6722H193.536ZM194.536 98.1794H199.324V96.1794H194.536V98.1794ZM199.324 98.1794C200.578 98.1794 201.692 97.9904 202.505 97.4603L201.412 95.7851C201.087 95.9973 200.445 96.1794 199.324 96.1794V98.1794ZM202.53 97.4436C203.457 96.7982 203.812 95.7587 203.812 94.6186H201.812C201.812 95.3588 201.598 95.6554 201.388 95.8018L202.53 97.4436ZM203.812 94.6186C203.812 93.4946 203.334 92.5589 202.377 91.9613C201.499 91.4126 200.311 91.2062 198.952 91.2062V93.2062C200.167 93.2062 200.909 93.4018 201.317 93.6573C201.648 93.8637 201.812 94.1343 201.812 94.6186H203.812ZM198.952 91.2062H194.536V93.2062H198.952V91.2062ZM193.536 92.2062V97.1794H195.536V92.2062H193.536ZM150.238 132.315H149.238V132.956L149.82 133.224L150.238 132.315ZM150.238 129.049L149.818 128.142L149.238 128.411V129.049H150.238ZM162.486 123.371H163.486V121.805L162.065 122.464L162.486 123.371ZM162.486 126.34L162.897 127.252L163.486 126.986V126.34H162.486ZM153.356 130.46L152.945 129.548L152.356 129.814V130.46H153.356ZM153.356 130.757H152.356V131.395L152.935 131.664L153.356 130.757ZM162.486 134.988H163.486V134.349L162.906 134.08L162.486 134.988ZM162.486 137.957L162.067 138.865L163.486 139.518V137.957H162.486ZM151.238 132.315V129.049H149.238V132.315H151.238ZM150.659 129.957L162.906 124.278L162.065 122.464L149.818 128.142L150.659 129.957ZM161.486 123.371V126.34H163.486V123.371H161.486ZM162.074 125.429L152.945 129.548L153.767 131.371L162.897 127.252L162.074 125.429ZM152.356 130.46V130.757H154.356V130.46H152.356ZM152.935 131.664L162.065 135.895L162.906 134.08L153.776 129.849L152.935 131.664ZM161.486 134.988V137.957H163.486V134.988H161.486ZM162.904 137.048L150.657 131.407L149.82 133.224L162.067 138.865L162.904 137.048ZM175.359 119.92V118.92H174.722L174.452 119.497L175.359 119.92ZM177.957 119.92L178.863 120.342L179.526 118.92H177.957V119.92ZM166.711 144.043V145.043H167.348L167.618 144.466L166.711 144.043ZM164.113 144.043L163.207 143.621L162.544 145.043H164.113V144.043ZM175.359 120.92H177.957V118.92H175.359V120.92ZM177.05 119.497L165.805 143.621L167.618 144.466L178.863 120.342L177.05 119.497ZM166.711 143.043H164.113V145.043H166.711V143.043ZM165.02 144.466L176.265 120.342L174.452 119.497L163.207 143.621L165.02 144.466ZM191.763 129.049H192.763V128.411L192.184 128.142L191.763 129.049ZM191.763 132.315L192.182 133.224L192.763 132.956V132.315H191.763ZM179.516 137.957H178.516V139.518L179.934 138.865L179.516 137.957ZM179.516 134.988L179.097 134.08L178.516 134.348V134.988H179.516ZM188.683 130.757L189.102 131.665L189.683 131.397V130.757H188.683ZM188.683 130.46H189.683V129.813L189.093 129.548L188.683 130.46ZM179.516 126.34H178.516V126.987L179.106 127.252L179.516 126.34ZM179.516 123.371L179.937 122.464L178.516 121.805V123.371H179.516ZM190.763 129.049V132.315H192.763V129.049H190.763ZM191.345 131.407L179.098 137.048L179.934 138.865L192.182 133.224L191.345 131.407ZM180.516 137.957V134.988H178.516V137.957H180.516ZM179.935 135.896L189.102 131.665L188.264 129.849L179.097 134.08L179.935 135.896ZM189.683 130.757V130.46H187.683V130.757H189.683ZM189.093 129.548L179.926 125.428L179.106 127.252L188.273 131.372L189.093 129.548ZM180.516 126.34V123.371H178.516V126.34H180.516ZM179.095 124.278L191.343 129.957L192.184 128.142L179.937 122.464L179.095 124.278ZM154.558 166.227L153.889 166.97L153.895 166.975L154.558 166.227ZM154.595 179.588L153.915 178.855L153.915 178.855L154.595 179.588ZM140.826 182H139.826V183H140.826V182ZM140.826 163.852V162.852H139.826V163.852H140.826ZM143.907 166.672V165.672H142.907V166.672H143.907ZM143.907 179.105H142.907V180.105H143.907V179.105ZM152.369 177.546L153.035 178.292L153.044 178.284L152.369 177.546ZM147.061 164.852C150.148 164.852 152.374 165.604 153.889 166.97L155.228 165.484C153.229 163.682 150.458 162.852 147.061 162.852V164.852ZM153.895 166.975C155.393 168.304 156.193 170.208 156.193 172.833H158.193C158.193 169.767 157.237 167.267 155.222 165.479L153.895 166.975ZM156.193 172.833C156.193 175.517 155.399 177.477 153.915 178.855L155.276 180.32C157.256 178.482 158.193 175.939 158.193 172.833H156.193ZM153.915 178.855C152.437 180.227 150.139 181 146.839 181V183C150.417 183 153.29 182.165 155.276 180.32L153.915 178.855ZM146.839 181H140.826V183H146.839V181ZM141.826 182V163.852H139.826V182H141.826ZM140.826 164.852H147.061V162.852H140.826V164.852ZM146.95 165.672H143.907V167.672H146.95V165.672ZM142.907 166.672V179.105H144.907V166.672H142.907ZM143.907 180.105H147.284V178.105H143.907V180.105ZM147.284 180.105C149.652 180.105 151.624 179.553 153.035 178.292L151.702 176.801C150.788 177.618 149.369 178.105 147.284 178.105V180.105ZM153.044 178.284C154.469 176.98 155.113 175.131 155.113 172.907H153.113C153.113 174.741 152.594 175.985 151.694 176.809L153.044 178.284ZM155.113 172.907C155.113 170.636 154.454 168.761 152.979 167.477C151.53 166.215 149.46 165.672 146.95 165.672V167.672C149.215 167.672 150.727 168.168 151.666 168.985C152.578 169.779 153.113 171.022 153.113 172.907H155.113ZM178.855 163.852H179.855V162.852H178.855V163.852ZM178.855 166.709V167.709H179.855V166.709H178.855ZM169.169 166.709V165.709H168.169V166.709H169.169ZM169.169 171.534H168.169V172.534H169.169V171.534ZM177.853 171.534H178.853V170.534H177.853V171.534ZM177.853 174.243V175.243H178.853V174.243H177.853ZM169.169 174.243V173.243H168.169V174.243H169.169ZM169.169 179.105H168.169V180.105H169.169V179.105ZM179.152 179.105H180.152V178.105H179.152V179.105ZM179.152 182V183H180.152V182H179.152ZM166.088 182H165.088V183H166.088V182ZM166.088 163.852V162.852H165.088V163.852H166.088ZM177.855 163.852V166.709H179.855V163.852H177.855ZM178.855 165.709H169.169V167.709H178.855V165.709ZM168.169 166.709V171.534H170.169V166.709H168.169ZM169.169 172.534H177.853V170.534H169.169V172.534ZM176.853 171.534V174.243H178.853V171.534H176.853ZM177.853 173.243H169.169V175.243H177.853V173.243ZM168.169 174.243V179.105H170.169V174.243H168.169ZM169.169 180.105H179.152V178.105H169.169V180.105ZM178.152 179.105V182H180.152V179.105H178.152ZM179.152 181H166.088V183H179.152V181ZM167.088 182V163.852H165.088V182H167.088ZM166.088 164.852H178.855V162.852H166.088V164.852ZM196.322 182V183H196.997L197.249 182.374L196.322 182ZM192.907 182L191.98 182.374L192.232 183H192.907V182ZM185.596 163.852V162.852H184.115L184.668 164.225L185.596 163.852ZM189.047 163.852L189.972 163.471L189.718 162.852H189.047V163.852ZM194.614 177.398L193.689 177.778L194.611 180.021L195.538 177.78L194.614 177.398ZM200.219 163.852V162.852H199.55L199.295 163.469L200.219 163.852ZM203.633 163.852L204.561 164.225L205.114 162.852H203.633V163.852ZM196.322 181H192.907V183H196.322V181ZM193.835 181.626L186.523 163.478L184.668 164.225L191.98 182.374L193.835 181.626ZM185.596 164.852H189.047V162.852H185.596V164.852ZM188.122 164.232L193.689 177.778L195.539 177.018L189.972 163.471L188.122 164.232ZM195.538 177.78L201.143 164.234L199.295 163.469L193.69 177.016L195.538 177.78ZM200.219 164.852H203.633V162.852H200.219V164.852ZM202.705 163.478L195.394 181.626L197.249 182.374L204.561 164.225L202.705 163.478Z" fill="white"/>
</svg>
