<?xml version="1.0" standalone="no"?>
<!DOCTYPE svg PUBLIC "-//W3C//DTD SVG 20010904//EN"
 "http://www.w3.org/TR/2001/REC-SVG-20010904/DTD/svg10.dtd">
<svg version="1.0" xmlns="http://www.w3.org/2000/svg"
 width="900.000000pt" height="414.000000pt" viewBox="0 0 900.000000 414.000000"
 preserveAspectRatio="xMidYMid meet">
<metadata>
Created by potrace 1.10, written by Peter Selinger 2001-2011
</metadata>
<g transform="translate(0.000000,414.000000) scale(0.100000,-0.100000)"
fill="#ffffff" stroke="none">
<path d="M503 3905 c-12 -8 -31 -30 -42 -49 -21 -33 -21 -34 -21 -1325 0 -853
3 -1299 10 -1311 19 -35 -17 -41 -219 -39 -104 0 -194 -2 -200 -6 -7 -3 -11
-41 -11 -89 0 -69 4 -88 21 -110 l20 -26 2389 0 2389 0 20 26 c18 23 21 41 21
115 l0 89 -27 1 c-16 0 -106 0 -202 0 -185 0 -218 6 -201 39 14 26 14 2578 0
2615 -5 14 -24 39 -42 56 l-32 29 -1926 0 c-1695 0 -1928 -2 -1947 -15z m1285
-42 c-3 -32 -44 -46 -54 -19 -10 26 4 46 31 46 23 0 26 -4 23 -27z m2526 -79
c14 -14 16 -139 16 -1229 0 -1090 -2 -1215 -16 -1229 -14 -14 -197 -16 -1864
-16 -1667 0 -1850 2 -1864 16 -14 14 -16 139 -16 1229 0 1090 2 1215 16 1229
14 14 197 16 1864 16 1667 0 1850 -2 1864 -16z m-1268 -2606 c4 -6 -3 -19 -16
-30 -21 -17 -53 -18 -580 -18 -527 0 -559 1 -580 18 -13 11 -20 24 -16 30 10
17 1182 17 1192 0z m1308 -84 c21 -20 20 -43 -1 -66 -34 -37 -83 -13 -83 41 0
37 56 54 84 25z m160 0 c30 -29 9 -84 -31 -84 -25 0 -53 30 -53 56 0 40 55 58
84 28z m168 -1 c22 -20 23 -41 1 -65 -23 -26 -59 -23 -79 7 -15 23 -15 27 0
50 19 29 51 32 78 8z m-4174 -35 c-4 -10 -45 -14 -151 -16 -126 -2 -147 0
-147 13 0 13 22 15 151 15 116 0 150 -3 147 -12z"/>
<path d="M2533 3112 c-7 -4 -24 -41 -37 -82 -14 -41 -35 -100 -46 -130 -12
-30 -32 -86 -45 -125 -13 -38 -33 -95 -45 -125 -26 -69 -68 -185 -82 -225 -5
-16 -14 -39 -18 -50 -9 -20 -51 -135 -75 -210 -8 -22 -23 -65 -35 -95 -39 -97
-41 -95 80 -98 133 -4 147 0 159 41 5 17 26 77 46 132 20 55 40 111 45 125 5
14 23 63 40 110 18 47 38 103 45 125 8 22 23 65 35 95 44 114 52 136 60 165 9
30 19 59 60 165 12 30 24 64 27 75 3 11 12 35 20 53 25 57 17 62 -109 62 -62
0 -119 -4 -125 -8z"/>
<path d="M1650 2787 l-365 -183 -3 -66 c-2 -44 1 -68 10 -75 7 -5 54 -27 103
-48 50 -21 127 -55 173 -76 45 -22 85 -39 87 -39 3 0 35 -14 72 -31 38 -17 82
-37 98 -44 228 -104 210 -106 210 20 l0 100 -45 22 c-25 12 -81 36 -125 53
-90 36 -100 40 -169 69 -27 12 -54 21 -61 21 -18 0 -48 37 -40 49 3 6 13 11
20 11 8 0 31 9 52 19 21 11 70 34 108 51 39 18 93 43 121 56 28 13 54 24 58
24 3 0 24 11 47 25 l40 26 -3 96 c-2 54 -7 98 -13 100 -6 2 -174 -79 -375
-180z"/>
<path d="M2867 2963 c-4 -3 -7 -50 -7 -104 l0 -98 43 -20 c123 -57 223 -103
269 -123 29 -12 62 -28 73 -35 11 -7 27 -13 37 -13 22 0 32 -18 19 -33 -5 -7
-36 -23 -68 -36 -32 -12 -71 -28 -88 -35 -16 -8 -66 -28 -110 -46 -44 -17
-102 -41 -128 -53 l-48 -21 3 -100 c4 -127 -15 -126 233 -11 28 12 77 34 110
48 33 14 100 44 148 66 49 23 90 41 92 41 3 0 43 18 90 40 l86 40 -3 67 -3 66
-365 183 c-201 101 -368 184 -371 184 -3 0 -9 -3 -12 -7z"/>
<path d="M5980 3845 c-134 -35 -181 -51 -267 -92 -202 -96 -351 -225 -490
-425 -37 -52 -133 -241 -133 -261 0 -7 -4 -17 -9 -22 -6 -6 -14 -28 -20 -50
-5 -22 -14 -58 -20 -80 -62 -252 -42 -538 54 -781 33 -82 88 -186 121 -231 13
-17 24 -35 24 -38 0 -10 123 -155 162 -191 103 -95 283 -205 423 -257 150 -56
343 -67 590 -35 36 5 29 -49 -21 -144 -8 -14 -14 -31 -14 -37 0 -6 -13 -40
-30 -74 -16 -35 -30 -69 -30 -76 0 -8 71 -11 276 -9 l277 3 25 60 c13 33 44
110 69 170 51 125 70 168 90 207 7 14 13 33 13 42 0 9 12 21 26 26 33 13 974
13 1007 1 14 -5 29 -24 36 -43 7 -18 19 -49 28 -68 15 -36 35 -81 58 -135 7
-16 35 -82 62 -145 l49 -115 272 -3 c184 -1 272 1 272 8 0 9 -26 76 -59 155
-5 11 -44 103 -86 205 -42 102 -82 199 -90 215 -7 17 -41 98 -75 180 -77 188
-83 202 -102 245 -9 19 -32 76 -53 125 -20 50 -43 106 -51 125 -20 45 -23 54
-79 190 -25 63 -53 129 -60 145 -15 34 -18 41 -105 250 -78 190 -83 203 -102
245 -31 69 -107 255 -113 276 -15 54 -20 55 -310 52 l-269 -3 -17 -35 c-10
-19 -48 -107 -84 -195 -37 -88 -71 -169 -75 -180 -5 -11 -39 -92 -75 -180 -37
-88 -73 -173 -80 -190 -8 -16 -35 -82 -60 -145 -26 -63 -54 -131 -63 -150 -8
-19 -21 -48 -28 -65 -85 -206 -80 -196 -159 -260 -91 -74 -180 -122 -294 -157
-95 -30 -278 -29 -378 1 -116 36 -246 125 -324 221 -85 104 -128 197 -160 340
-32 146 -18 298 40 450 72 189 237 348 433 418 63 22 90 26 198 26 138 1 206
-13 319 -66 59 -27 181 -111 189 -130 9 -22 51 -5 78 31 34 45 145 184 153
191 34 30 90 112 85 123 -11 28 -189 172 -259 210 -77 40 -177 87 -187 87 -7
0 -30 6 -53 14 -99 35 -184 46 -336 45 -98 0 -174 -5 -209 -14z m1644 -1105
c18 -35 37 -78 91 -210 26 -63 53 -130 61 -147 8 -18 20 -48 28 -65 109 -256
119 -288 94 -288 -112 -3 -602 1 -606 5 -4 4 42 124 93 240 7 17 35 82 60 145
53 129 72 173 92 212 7 14 13 30 13 36 0 21 42 103 52 100 5 -2 15 -15 22 -28z"/>
<path d="M137 643 c-6 -10 64 -177 154 -370 16 -35 29 -67 29 -73 0 -5 9 -27
20 -48 l20 -37 107 -5 c124 -6 125 -5 162 87 13 32 29 72 36 88 6 17 27 67 46
113 22 54 39 81 48 80 8 -2 28 -35 44 -73 16 -39 34 -83 41 -100 17 -41 39
-91 64 -147 l21 -47 107 -3 c58 -2 110 0 115 3 5 3 34 62 64 132 64 148 91
211 110 252 49 106 63 141 59 147 -3 5 -47 8 -98 8 l-93 0 -16 -38 c-9 -20
-37 -91 -62 -157 -53 -138 -69 -170 -85 -170 -11 0 -19 17 -80 170 -15 39 -39
97 -52 130 l-25 60 -110 3 c-124 3 -118 7 -152 -83 -23 -60 -70 -177 -99 -248
-8 -21 -19 -40 -23 -43 -8 -5 -29 37 -62 121 -52 136 -72 186 -91 225 -11 24
-17 25 -103 28 -50 1 -94 -1 -96 -5z"/>
<path d="M2035 637 c-3 -7 -4 -127 -3 -267 l3 -255 295 0 295 0 3 46 c2 30 -2
50 -11 57 -9 8 -78 12 -198 14 l-184 3 0 45 0 45 164 3 c101 1 170 7 178 13
17 14 17 75 1 86 -7 4 -87 10 -178 13 l-165 5 -3 33 c-6 60 3 63 182 62 89 -1
171 -1 184 -1 20 1 22 6 22 56 l0 55 -290 0 c-225 0 -292 -3 -295 -13z"/>
<path d="M3290 380 c0 -209 3 -270 13 -270 6 0 135 0 285 0 251 1 277 2 312
20 57 29 80 64 80 122 0 43 -5 54 -40 92 -22 24 -40 47 -40 51 0 4 11 16 25
27 63 49 51 142 -26 197 l-42 31 -284 0 -283 0 0 -270z m455 145 c30 -29 31
-36 6 -66 -18 -22 -28 -24 -130 -27 -124 -4 -141 2 -141 50 0 63 9 68 131 68
103 0 111 -1 134 -25z m-23 -195 c63 -18 77 -84 24 -108 -36 -16 -232 -18
-251 -2 -20 16 -19 84 1 104 18 19 166 22 226 6z"/>
<path d="M5630 380 c0 -209 3 -270 13 -270 6 -1 119 0 250 0 215 1 243 3 290
21 118 47 167 119 167 249 0 130 -49 202 -168 249 -48 19 -73 21 -302 21
l-250 0 0 -270z m425 133 c73 -24 106 -67 105 -136 -2 -94 -63 -137 -206 -145
-136 -7 -134 -9 -134 146 0 86 4 132 12 140 18 18 165 15 223 -5z"/>
<path d="M7020 380 l0 -270 295 0 295 0 0 54 c0 40 -4 55 -16 60 -9 3 -96 6
-195 6 -136 0 -179 3 -180 13 -8 89 -14 86 178 89 l168 3 8 25 c5 15 5 36 -2
53 l-11 27 -170 0 -170 0 0 44 c0 34 4 46 18 50 9 2 93 5 186 5 92 0 170 2
173 4 2 3 5 27 6 53 l2 49 -292 3 -293 2 0 -270z"/>
<path d="M8240 638 c1 -7 58 -128 128 -268 l127 -255 119 0 c95 0 120 3 127
15 5 8 59 117 120 243 65 133 117 227 125 227 8 0 14 10 14 25 l0 25 -104 0
-104 0 -20 -42 c-11 -24 -33 -72 -49 -108 -85 -185 -98 -210 -108 -210 -12 0
-26 25 -90 165 -25 55 -56 121 -68 148 l-22 47 -97 0 c-72 0 -98 -3 -98 -12z"/>
<path d="M4642 348 c-7 -7 -12 -21 -12 -32 0 -45 8 -47 171 -44 l154 3 3 34
c2 20 -2 37 -10 42 -21 14 -292 11 -306 -3z"/>
</g>
</svg>
