<svg width="1042" height="555" viewBox="0 0 1042 555" fill="none" xmlns="http://www.w3.org/2000/svg">
<g clip-path="url(#clip0)">
<path opacity="0.4" d="M961.48 438.21C960.32 440.71 959.163 443.177 958.01 445.61C956.21 449.39 954.433 453.097 952.68 456.73C951.9 458.34 951.12 459.92 950.36 461.5C941.76 479.07 933.73 494.61 926.91 507.39C920.722 518.97 911.533 528.672 900.306 535.481C889.08 542.29 876.229 545.954 863.1 546.09L711.45 547.74H709.85L696.85 547.88L685.73 548L651.63 548.37H650.25L632.89 548.56H632.36L525.36 549.72L429.85 550.72L418.74 550.84L349.74 551.59H349.66L304.91 552.07H304.43L162.93 553.6L120.6 554.06C111.567 554.162 102.571 552.874 93.93 550.24C78.8921 545.698 65.3774 537.141 54.84 525.49C36.66 505.46 23.41 482.09 14.51 456.73C13.2233 453.07 12.0233 449.363 10.91 445.61C-19.9 341.46 17.66 207.09 85.26 117.17C88.0933 113.41 90.9733 109.743 93.9 106.17L93.97 106.09C114.76 80.57 138.07 59.25 162.9 44.09C206.9 17.18 255.65 9.60001 303.6 32.19C344.17 51.31 382.05 60.3 418.77 62.74C422.48 62.98 426.19 63.16 429.88 63.27C514.11 65.92 593.05 35.57 685.75 15.98C689.44 15.2 693.14 14.43 696.87 13.7C763 0.540001 836.36 -6.39999 923.6 8.19001C932.664 9.67067 941.607 11.8097 950.36 14.59C954.207 15.83 957.913 17.1633 961.48 18.59C1003.12 35.53 1025.83 66.83 1035.48 106.05C1036.39 109.69 1037.18 113.393 1037.85 117.16C1054.96 211.5 1004.85 345.32 961.48 438.21Z" fill="white"/>
<g opacity="0.1">
<path opacity="0.1" d="M162.99 53.42V563.04L120.66 563.5C111.627 563.602 102.631 562.314 93.99 559.68V115.42H94.06C114.85 89.87 138.16 68.55 162.99 53.42Z" fill="#6C63FF"/>
<path opacity="0.1" d="M1037.99 126.5H85.35C88.1833 122.74 91.0633 119.073 93.99 115.5V115.42H1035.62C1036.53 119.04 1037.32 122.733 1037.99 126.5Z" fill="#6C63FF"/>
<path opacity="0.1" d="M961.57 27.93V454.93H958.1C956.3 458.71 954.523 462.417 952.77 466.05C951.99 467.66 951.21 469.24 950.45 470.82V23.89C954.297 25.13 958.003 26.4767 961.57 27.93Z" fill="#6C63FF"/>
<path opacity="0.1" d="M696.96 23V557.25L685.84 557.37V25.28C689.53 24.5 693.23 23.73 696.96 23Z" fill="#6C63FF"/>
<path opacity="0.1" d="M429.97 72.57V560.15L418.86 560.27V72.04C422.57 72.28 426.28 72.42 429.97 72.57Z" fill="#6C63FF"/>
<path opacity="0.1" d="M958.1 454.94C956.3 458.72 954.523 462.427 952.77 466.06H14.6C13.3133 462.4 12.1133 458.693 11 454.94H958.1Z" fill="#6C63FF"/>
</g>
<path d="M230.6 265.83H211.6V323.49H230.6V265.83Z" fill="#3F3D56"/>
<path d="M741.93 262.83H722.93V323.83H741.93V262.83Z" fill="#3F3D56"/>
<path d="M863.1 533.65V546.65L711.18 548.05L709.56 548.08L651.82 548.61L650.44 548.63L632.89 548.78H632.37L525.39 549.77L349.78 551.4H349.63L304.98 551.82L304.5 551.83L106.1 553.65V538.65L152.75 510.65L246.35 509.87L248.35 509.86L249.01 509.85L251.01 509.82L295.95 509.45L297.96 509.44L298.6 509.43L300.6 509.42L315.01 509.3L315.39 509.29L350.94 508.99H351.23L628.63 506.65L635.42 506.6H636.1L641.28 506.55L678.93 506.24L680.93 506.21L682.78 506.19H683.74L695.45 506.1L697.77 506.07L700.88 506.05L710.63 505.96L726.1 505.83L728.1 505.81L731.58 505.79H732.23L806.94 505.15L863.1 533.65Z" fill="#65617D"/>
<path opacity="0.2" d="M863.1 533.65V546.65L711.18 548.05L709.56 548.08L651.82 548.61L650.44 548.63L632.89 548.78H632.37L525.39 549.77L349.78 551.4H349.63L304.98 551.82L304.5 551.83L106.1 553.65V538.65L152.75 510.65L246.35 509.87L248.35 509.86L249.01 509.85L251.01 509.82L295.95 509.45L297.96 509.44L298.6 509.43L300.6 509.42L315.01 509.3L315.39 509.29L350.94 508.99H351.23L628.63 506.65L635.42 506.6H636.1L641.28 506.55L678.93 506.24L680.93 506.21L682.78 506.19H683.74L695.45 506.1L697.77 506.07L700.88 506.05L710.63 505.96L726.1 505.83L728.1 505.81L731.58 505.79H732.23L806.94 505.15L863.1 533.65Z" fill="black"/>
<path d="M296.1 483.66V508.15C296.101 509.31 295.772 510.446 295.152 511.427C294.533 512.408 293.648 513.192 292.6 513.69C291.82 514.068 290.967 514.273 290.1 514.29L255.2 515.03C254.268 515.052 253.343 514.857 252.5 514.46C251.434 513.971 250.53 513.186 249.897 512.199C249.265 511.211 248.929 510.063 248.93 508.89V483.66H296.1Z" fill="#3F3D56"/>
<path opacity="0.1" d="M296.1 483.66V508.15C296.101 509.31 295.772 510.446 295.152 511.427C294.533 512.408 293.648 513.192 292.6 513.69C291.82 514.068 290.967 514.273 290.1 514.29L255.2 515.03C254.268 515.052 253.343 514.857 252.5 514.46C251.434 513.971 250.53 513.186 249.897 512.199C249.265 511.211 248.929 510.063 248.93 508.89V483.66H296.1Z" fill="black"/>
<path d="M298.1 483.66V508.15C298.101 509.31 297.772 510.446 297.152 511.427C296.533 512.408 295.648 513.192 294.6 513.69C293.82 514.068 292.967 514.273 292.1 514.29L257.2 515.03C256.268 515.052 255.343 514.857 254.5 514.46C253.434 513.971 252.53 513.186 251.897 512.199C251.265 511.211 250.929 510.063 250.93 508.89V483.66H298.1Z" fill="#3F3D56"/>
<path d="M728.1 483.66H680.93V515.16H728.1V483.66Z" fill="#3F3D56"/>
<path opacity="0.1" d="M728.1 483.66H680.93V515.16H728.1V483.66Z" fill="black"/>
<path d="M726.1 483.66H678.93V515.16H726.1V483.66Z" fill="#3F3D56"/>
<path opacity="0.1" d="M230.6 265.82V271.55L211.6 271.06V265.82H230.6Z" fill="black"/>
<path d="M355.66 104.4L332.83 268.4C332.685 269.448 332.16 270.405 331.353 271.089C330.547 271.774 329.517 272.137 328.46 272.11L145.66 267.37L142.19 267.28C141.586 267.266 140.991 267.124 140.446 266.865C139.9 266.605 139.415 266.234 139.022 265.774C138.63 265.315 138.339 264.777 138.168 264.198C137.997 263.618 137.95 263.009 138.03 262.41L163.66 90.73C163.825 89.6666 164.383 88.7037 165.224 88.0317C166.064 87.3596 167.126 87.0272 168.2 87.1L351.66 99.52C352.252 99.5543 352.83 99.7109 353.359 99.98C353.887 100.249 354.354 100.625 354.73 101.083C355.105 101.542 355.382 102.073 355.542 102.644C355.702 103.215 355.743 103.813 355.66 104.4V104.4Z" fill="#65617D"/>
<path d="M175.93 99.16L156.6 250.49L324.6 255.82L345.26 109.82L175.93 99.16Z" fill="white"/>
<rect x="603" y="306" width="100" height="100" fill="#C4C4C4"/>
<path d="M583.94 96.82H389.93C386.986 96.82 384.6 99.2063 384.6 102.15V264.82C384.6 267.764 386.986 270.15 389.93 270.15H583.94C586.884 270.15 589.27 267.764 589.27 264.82V102.15C589.27 99.2063 586.884 96.82 583.94 96.82Z" fill="#65617D"/>
<path d="M580.26 108.49H394.26V252.82H580.26V108.49Z" fill="#281313"/>
<path opacity="0.1" d="M741.93 262.82V266.61L722.93 267V262.82H741.93Z" fill="black"/>
<path d="M827.66 259.62C827.687 260.034 827.63 260.45 827.492 260.842C827.355 261.233 827.139 261.593 826.859 261.9C826.579 262.206 826.24 262.453 825.862 262.624C825.484 262.796 825.075 262.89 824.66 262.9L637.46 266.77C636.682 266.786 635.927 266.507 635.347 265.99C634.766 265.472 634.403 264.754 634.33 263.98L618.24 96.7C618.2 96.285 618.245 95.8662 618.372 95.4691C618.499 95.072 618.705 94.7047 618.978 94.3896C619.251 94.0745 619.585 93.8181 619.96 93.636C620.335 93.4539 620.744 93.3498 621.16 93.33L806.94 84.09L808.94 83.99C809.735 83.9481 810.515 84.2167 811.116 84.7391C811.717 85.2615 812.091 85.9969 812.16 86.79L827.66 259.62Z" fill="#65617D"/>
<path d="M628.93 103.16L798.6 94.82L812.93 246.82L644.6 250.82L628.93 103.16Z" fill="white"/>
<path opacity="0.1" d="M827.66 259.62C827.687 260.034 827.63 260.45 827.492 260.842C827.355 261.233 827.139 261.593 826.859 261.9C826.579 262.206 826.24 262.453 825.862 262.624C825.484 262.796 825.075 262.89 824.66 262.9L806.94 84.09L808.94 83.99C809.735 83.9481 810.515 84.2167 811.116 84.7391C811.717 85.2615 812.091 85.9969 812.16 86.79L827.66 259.62Z" fill="black"/>
<path opacity="0.1" d="M168.23 87.09L145.66 267.37L142.19 267.28C141.586 267.266 140.991 267.124 140.446 266.865C139.9 266.605 139.415 266.234 139.022 265.774C138.63 265.315 138.339 264.777 138.168 264.198C137.997 263.618 137.95 263.009 138.03 262.41L163.66 90.73C163.823 89.6592 164.385 88.6895 165.232 88.0147C166.079 87.3398 167.15 87.0096 168.23 87.09V87.09Z" fill="black"/>
<path opacity="0.1" d="M230.6 306.41H211.6V323.49H230.6V306.41Z" fill="black"/>
<path opacity="0.1" d="M298.1 483.65V488.62L250.93 489.88V483.65H298.1Z" fill="black"/>
<path d="M381.35 312.36V480.56C381.338 481.587 380.931 482.569 380.215 483.305C379.498 484.04 378.526 484.472 377.5 484.51L185.85 489.61H185.8C184.756 489.597 183.759 489.177 183.021 488.439C182.283 487.701 181.863 486.704 181.85 485.66V312.36C181.863 311.316 182.283 310.319 183.021 309.581C183.759 308.843 184.756 308.423 185.8 308.41H377.4C378.444 308.423 379.441 308.843 380.179 309.581C380.917 310.319 381.337 311.316 381.35 312.36V312.36Z" fill="#65617D"/>
<path opacity="0.1" d="M185.85 308.41V489.61H185.8C184.756 489.597 183.759 489.177 183.021 488.439C182.283 487.701 181.863 486.704 181.85 485.66V312.36C181.863 311.316 182.283 310.319 183.021 309.581C183.759 308.843 184.756 308.423 185.8 308.41H185.85Z" fill="black"/>
<path d="M194.6 319.15H372.1V467.4L194.6 471.4V319.15Z" fill="white"/>
<path opacity="0.1" d="M741.93 306.41H722.93V323.83H741.93V306.41Z" fill="black"/>
<path opacity="0.1" d="M726.1 483.65V490.06L678.93 488.8V483.65H726.1Z" fill="black"/>
<path d="M788.35 312.36V485.66C788.337 486.712 787.91 487.717 787.161 488.456C786.412 489.196 785.402 489.61 784.35 489.61V489.61L592.66 484.51C591.634 484.472 590.662 484.04 589.945 483.305C589.229 482.569 588.822 481.587 588.81 480.56V312.36C588.823 311.316 589.243 310.319 589.981 309.581C590.719 308.843 591.716 308.423 592.76 308.41H784.36C785.411 308.413 786.418 308.828 787.164 309.567C787.911 310.306 788.337 311.31 788.35 312.36V312.36Z" fill="#65617D"/>
<path opacity="0.1" d="M788.35 312.36V485.66C788.337 486.712 787.91 487.717 787.161 488.456C786.412 489.196 785.402 489.61 784.35 489.61V489.61V308.41C785.402 308.41 786.412 308.824 787.161 309.564C787.91 310.303 788.337 311.308 788.35 312.36Z" fill="black"/>
<path d="M775.6 319.15H598.1V467.4L775.6 471.4V319.15Z" fill="white"/>
<path d="M583.85 312.36V480.56C583.838 481.587 583.431 482.569 582.715 483.305C581.998 484.04 581.026 484.472 580 484.51L388.35 489.61C387.298 489.61 386.288 489.196 385.539 488.456C384.79 487.717 384.363 486.712 384.35 485.66V312.36C384.363 311.316 384.783 310.319 385.521 309.581C386.259 308.843 387.256 308.423 388.3 308.41H579.9C580.944 308.423 581.941 308.843 582.679 309.581C583.417 310.319 583.837 311.316 583.85 312.36V312.36Z" fill="#65617D"/>
<path d="M397.1 319.15H574.6V467.4L397.1 471.4V319.15Z" fill="white"/>
<path opacity="0.1" d="M863.1 533.65V546.65L711.18 548.05L709.56 548.08L651.82 548.61L650.44 548.63L632.89 548.78H632.37L525.39 549.77L349.78 551.4H349.63L304.98 551.82L304.5 551.83L106.1 553.65V538.65L308.61 537.32H309.09L350.08 537.04H350.27L633.35 535.17H633.64L633.81 535.16H634.28L639.07 535.13H640.53L715.02 534.63L719.42 534.61L720.4 534.6L863.1 533.65Z" fill="black"/>
<path d="M487.26 323.49C515.609 323.49 538.59 300.509 538.59 272.16C538.59 243.811 515.609 220.83 487.26 220.83C458.911 220.83 435.93 243.811 435.93 272.16C435.93 300.509 458.911 323.49 487.26 323.49Z" fill="#FBBEBE"/>
<path d="M538.6 377.16C538.6 377.16 439.1 389.16 448.6 377.16C452.04 372.82 452.99 359.96 452.8 345.31C452.74 340.86 452.58 336.25 452.35 331.66C451.25 309.66 448.6 288.16 448.6 288.16C448.6 288.16 535.6 247.16 525.6 279.66C521.6 292.79 522.91 311.23 525.95 328.54C526.84 333.59 527.87 338.54 528.95 343.24C531.586 354.704 534.807 366.025 538.6 377.16V377.16Z" fill="#FBBEBE"/>
<path opacity="0.1" d="M538.6 377.16C538.6 377.16 439.1 389.16 448.6 377.16C452.04 372.82 452.99 359.96 452.8 345.31C467.97 338.83 487.27 343.66 487.27 343.66C507.59 339.61 520.62 340.4 528.95 343.24C531.586 354.704 534.807 366.025 538.6 377.16V377.16Z" fill="black"/>
<path d="M349.74 552.53V551.69L525.36 549.78L632.36 548.78H632.66L632.55 550.26L632.7 548.78H632.89V548.61L634.26 535.16L634.78 530.07L634.94 528.48L635.08 527.15L641.26 506.54L647.44 485.96L652.64 468.63L660.58 442.15C660.58 442.15 656.08 431.65 653.58 428.65C651.08 425.65 648.58 405.15 648.58 405.15C648.58 405.15 627.24 384.82 617.91 382.48C614 381.48 606.28 380.15 598.08 378.48C595.01 377.86 591.86 377.2 588.83 376.48C587.12 376.09 585.44 375.68 583.83 375.27C580.696 374.487 577.608 373.533 574.58 372.41C572.992 371.833 571.481 371.064 570.08 370.12C562.73 364.73 544.31 364.12 543.6 364.12C543.598 364.097 543.598 364.073 543.6 364.05V363.96C543.626 363.54 543.626 363.12 543.6 362.7C543.6 362.3 543.6 361.83 543.51 361.3C543.51 361.14 543.51 360.97 543.44 360.8C543.39 360.44 543.33 360.06 543.24 359.66C543.21 359.481 543.17 359.304 543.12 359.13C542.83 357.925 542.411 356.755 541.87 355.64C541.8 355.48 541.71 355.31 541.63 355.15C541.14 354.226 540.571 353.346 539.93 352.52C539.8 352.35 539.66 352.17 539.51 352C538.691 351.034 537.78 350.15 536.79 349.36C536.52 349.15 536.24 348.93 535.95 348.73C535.788 348.599 535.618 348.479 535.44 348.37L534.55 347.79L533.72 347.31C532.99 346.91 532.22 346.52 531.38 346.15C531.12 346.03 530.84 345.92 530.56 345.81C530.28 345.7 529.84 345.53 529.47 345.39H529.41L528.66 345.09C528.09 344.9 527.51 344.73 526.9 344.56L525.97 344.32L524.97 344.09L523.97 343.88C522.97 343.68 521.9 343.5 520.78 343.36L519.64 343.22L518.47 343.1L517.26 343L515.54 342.9L513.54 342.83C504.719 342.829 495.923 343.764 487.3 345.62C481.309 344.287 475.173 343.722 469.04 343.94H468.17L467.17 344H466.53L465.24 344.12C464.81 344.12 464.37 344.21 463.94 344.27C463.51 344.33 463.06 344.38 462.63 344.45L461.97 344.56C461.32 344.67 460.66 344.79 459.97 344.93C459.75 344.97 459.53 345.02 459.31 345.08C458.44 345.27 457.57 345.5 456.71 345.76C456.28 345.88 455.85 346.02 455.42 346.17C455.2 346.23 454.99 346.31 454.78 346.39L454.14 346.62L453.51 346.87L452.76 347.17C452.38 347.33 452.01 347.5 451.64 347.68C451.43 347.77 451.22 347.87 451.02 347.98C450.82 348.09 450.61 348.18 450.42 348.29C448.159 349.458 446.069 350.932 444.21 352.67L443.7 353.16L443.2 353.67C443.03 353.84 442.87 354.02 442.71 354.2C442.058 354.912 441.45 355.664 440.89 356.45C440.73 356.66 440.58 356.87 440.43 357.09C439.795 358.026 439.221 359.001 438.71 360.01C438.58 360.25 438.46 360.5 438.34 360.74C437.524 362.429 436.855 364.186 436.34 365.99C436.153 366.657 435.983 367.323 435.83 367.99C435.83 367.99 414.66 377.33 397.1 384.09C392.43 385.89 388.03 387.52 384.35 388.75C383.28 389.11 382.28 389.44 381.35 389.75C379.332 390.479 377.234 390.963 375.1 391.19C374.094 391.206 373.091 391.3 372.1 391.47C364.03 392.78 350.2 398.47 348.69 404.18C348.567 404.636 348.533 405.111 348.59 405.58C348.59 405.58 348.59 405.65 348.59 405.69C349.59 412.69 342.59 411.69 342.59 411.69C342.59 411.69 340.09 430.19 336.59 435.19C334.06 438.79 332.33 446.82 332.11 452.88C331.984 454.768 332.132 456.664 332.55 458.51C332.55 458.56 332.55 458.61 332.55 458.65C332.95 459.99 331.99 463.65 330.36 468.34C328.59 473.49 326.01 479.89 323.53 485.93C319.79 495.05 316.27 503.33 316.05 505.15C315.96 505.96 315.7 507.41 315.34 509.28C313.88 516.9 310.64 531.41 309.04 537.28C307.85 541.66 306.12 547.66 304.93 551.78C304.93 551.9 304.86 552.02 304.83 552.13L349.66 551.69V552.53H349.8H349.74Z" fill="#2A64D3"/>
<path opacity="0.1" d="M366.1 434.66C366.1 434.66 423.1 464.16 443.6 460.66L366.1 434.66Z" fill="black"/>
<path opacity="0.1" d="M482.1 422.66C482.1 422.66 537.6 440.66 556.1 443.16C574.6 445.66 482.1 422.66 482.1 422.66Z" fill="black"/>
<path opacity="0.1" d="M543.66 364.74C514.66 370.08 460.06 368.93 436.46 368.12C445.11 337.12 487.29 347.66 487.29 347.66C539.5 337.24 543.5 358.86 543.66 364.74Z" fill="black"/>
<path d="M543.66 362.74C514.66 368.08 460.06 366.93 436.46 366.12C445.11 335.12 487.29 345.66 487.29 345.66C539.5 335.24 543.5 356.86 543.66 362.74Z" fill="#2A64D3"/>
<path d="M697.6 499.41C697.6 499.41 731.76 494.16 732.43 509.16C733.1 524.16 715.01 534.64 715.01 534.64L697.6 499.41Z" fill="#FBBEBE"/>
<path opacity="0.1" d="M525.95 328.54C524.481 329.197 522.979 329.777 521.45 330.28C510.67 334 499.8 337.75 488.45 339.11C477.1 340.47 465.19 339.27 455.29 333.61C454.251 333.023 453.249 332.372 452.29 331.66C451.19 309.66 448.54 288.16 448.54 288.16C448.54 288.16 535.54 247.16 525.54 279.66C521.56 292.79 522.91 311.23 525.95 328.54Z" fill="black"/>
<path d="M542.27 234.07L540.309 234.461C540.309 234.461 540.309 234.461 540.309 234.461C539.743 231.624 539.769 228.7 540.386 225.873L540.405 225.788L540.43 225.705C540.842 224.383 541.077 223.011 541.128 221.627C541.053 220.585 540.588 219.566 539.769 218.508C538.92 217.41 537.784 216.389 536.558 215.365L536.558 215.365C531.222 210.908 525.714 206.697 520.035 202.73L519.325 202.234L519.201 201.377C518.891 199.241 520.307 197.884 521.162 197.174C521.418 196.961 521.769 196.694 522.063 196.471C522.224 196.349 522.367 196.24 522.47 196.159C522.859 195.851 523.106 195.621 523.262 195.421L523.263 195.42C523.55 195.052 523.666 194.441 523.298 193.596C522.927 192.741 522.187 192.008 521.407 191.701C519.459 190.933 517.138 191.392 514.277 192.11L511.436 192.823L511.806 189.917C511.931 188.937 511.736 187.943 511.25 187.082C510.764 186.221 510.014 185.54 509.11 185.14C508.206 184.74 507.197 184.643 506.234 184.862C505.27 185.082 504.403 185.607 503.761 186.358L501.685 188.791L500.407 185.86C499.82 184.513 498.882 183.349 497.691 182.49C496.504 181.632 495.109 181.109 493.65 180.973C492.262 180.866 491.357 181.059 490.708 181.345C490.049 181.635 489.501 182.088 488.913 182.744C488.614 183.078 488.32 183.445 487.992 183.865C487.934 183.939 487.875 184.015 487.815 184.093C487.544 184.441 487.246 184.824 486.935 185.199C486.161 186.134 485.212 187.14 483.919 187.991C482.568 188.88 481.181 189.308 479.782 189.316C478.405 189.324 477.156 188.924 476.058 188.375C475.057 187.875 474.082 187.189 473.177 186.478C473.188 186.729 473.212 186.979 473.249 187.229C473.436 188.493 473.953 189.686 474.747 190.687L473.18 191.93L473.691 193.864C472.563 194.162 471.399 194.285 470.241 194.232L470.553 194.666L467.169 195.057C465.654 195.232 464.119 195.073 462.671 194.593C462.475 194.528 462.28 194.457 462.088 194.38C462.132 195.679 462.255 196.975 462.456 198.261L462.8 200.46L460.576 200.568C458.306 200.677 456.055 200.316 453.959 199.527L453.323 201.866C450.348 201.51 447.345 202.25 444.875 203.946C443.067 205.187 441.635 206.878 440.708 208.834L443.363 209.078L443.598 213.026C439.943 213.806 436.663 215.807 434.295 218.698C432.811 220.556 432.121 222.419 432.542 223.888C432.696 224.424 433.216 225.001 433.912 225.287C434.601 225.57 434.993 225.41 435.166 225.247L438.073 227.984C435.643 230.885 433.877 234.282 432.899 237.937C431.928 241.562 431.756 245.355 432.394 249.053C432.913 250.97 433.082 252.965 432.891 254.942L432.881 255.043L432.861 255.142C432.643 256.234 432.201 257.199 431.83 257.974C431.769 258.101 431.711 258.223 431.654 258.34C431.337 258.996 431.089 259.51 430.913 260.055L430.908 260.071L430.902 260.088C430.149 262.288 430.83 264.805 431.763 267.855L431.763 267.858L436.453 283.276L436.453 283.278L436.552 283.601C438.219 289.065 439.856 294.428 441.984 299.6C443.586 303.079 444.95 306.664 446.064 310.328L446.075 310.367L446.085 310.406C446.496 311.982 446.803 313.713 447.092 315.339C447.253 316.247 447.408 317.122 447.573 317.92C448.06 320.286 448.681 322.374 449.817 324.174C451.473 326.554 453.682 328.497 456.254 329.836L456.289 329.854L456.323 329.874C465.722 335.253 477.2 336.452 488.251 335.124C499.324 333.794 509.982 330.122 520.787 326.39L520.825 326.377L520.863 326.365C523.087 325.695 525.221 324.761 527.222 323.582C530.433 321.464 532.491 318.197 533.922 314.241C535.366 310.246 536.105 305.742 536.805 301.318L538.78 301.63L536.805 301.318C538.363 291.461 540.461 281.513 544.211 272.092C544.211 272.091 544.212 272.091 544.212 272.09L546.07 272.83C546.398 272.004 546.74 271.177 547.084 270.347C549.024 265.657 550.998 260.886 550.59 255.89C550.259 251.655 548.291 247.855 546.314 244.04C544.645 240.818 542.97 237.586 542.27 234.07ZM542.27 234.07C541.758 231.503 541.782 228.858 542.34 226.3M542.27 234.07L542.34 226.3M542.34 226.3C542.814 224.776 543.08 223.195 543.13 221.6C542.96 218.38 540.32 215.9 537.84 213.83C532.46 209.337 526.907 205.09 521.18 201.09L542.34 226.3Z" fill="#3F3D56" stroke="white" stroke-width="4"/>
<path d="M722.93 529.41C722.93 529.41 722.04 531.53 720.4 534.6C717.919 539.323 714.899 543.743 711.4 547.77L711.13 548.06H709.51L651.77 548.59H650.39L650.22 548.39L639.02 535.1L634.8 530.09L634.63 529.88L634.27 529.46L634.07 529.22L633.81 528.91L625.6 519.17L628.6 506.67L633.71 485.61L633.84 485.1L634.84 481.1L635.55 478.1L637.93 468.32L646.09 434.67L660.59 442.17L675.88 469.17L684.09 483.67H688.59C689.44 483.67 691.39 485.31 693.35 487.2C694.05 487.87 694.75 488.58 695.35 489.2C697.13 491.04 698.54 492.62 698.54 492.62C698.54 492.62 705.83 492.78 707.79 498.52C707.891 498.798 707.975 499.082 708.04 499.37C708.691 501.626 709.537 503.821 710.57 505.93C711.86 508.74 713.48 511.93 715.12 515.12C718.17 520.97 721.27 526.54 722.41 528.56L722.55 528.81L722.93 529.41Z" fill="#2A64D3"/>
<path opacity="0.1" d="M637.03 484.26L636.93 485.69V485.79L636.76 488.09L635.43 506.6L633.82 528.9L633.36 535.18L632.36 548.62V548.79L525.36 549.79L349.77 551.69V552.53H349.63V551.69V551.41L350.08 537.05L350.94 508.99L351.68 485.2L351.75 482.83C351.794 481.4 352.129 479.993 352.734 478.696C353.34 477.4 354.203 476.24 355.272 475.288C356.341 474.336 357.592 473.612 358.95 473.161C360.308 472.709 361.744 472.538 363.17 472.66C367.89 473.06 374.02 473.55 381.35 474.07L384.35 474.29C426.68 477.23 504.91 481.03 583.85 476.29C585.51 476.2 587.18 476.1 588.85 475.98C601.09 475.21 613.32 474.22 625.43 472.98C626.961 472.82 628.508 472.997 629.963 473.499C631.418 474.001 632.746 474.817 633.851 475.887C634.957 476.958 635.815 478.258 636.364 479.696C636.913 481.134 637.141 482.675 637.03 484.21V484.26Z" fill="black"/>
<path d="M349.74 552.53V551.69L525.36 549.78L632.36 548.78H632.66V548.61L633.66 535.17L634.09 529.17L635.73 506.56L637.02 488.66V488.22C637.08 487.395 637.043 486.566 636.91 485.75C636.916 485.717 636.916 485.683 636.91 485.65C636.635 483.962 635.948 482.369 634.91 481.01C633.809 479.598 632.366 478.49 630.718 477.79C629.07 477.09 627.271 476.822 625.49 477.01C613.38 478.25 601.15 479.24 588.91 480.01C587.24 480.13 585.57 480.23 583.91 480.32C504.97 485.01 426.74 481.21 384.41 478.32L381.41 478.1C374.08 477.58 367.95 477.1 363.23 476.69C360.633 476.471 358.048 477.221 355.972 478.797C353.896 480.372 352.478 482.66 351.99 485.22C351.889 485.761 351.829 486.31 351.81 486.86L351.13 509.02L350.2 537.09L349.76 551.45V551.73V552.57L349.74 552.53Z" fill="#3F3D56"/>
<path opacity="0.1" d="M637.33 491.27L636.1 506.6L634.27 529.45L633.81 535.17L632.81 547.98L632.75 548.62V548.79L632.6 550.27L632.71 548.79H632.42L525.42 549.79L349.77 551.69V551.41L350.26 537.05L351.26 508.99L351.9 490.34C351.931 489.279 352.228 488.243 352.762 487.326C353.297 486.409 354.052 485.64 354.96 485.09C356.092 484.396 357.416 484.081 358.74 484.19C360.84 484.36 363.42 484.56 366.43 484.78C371.32 485.14 377.35 485.56 384.37 486C397.37 486.82 413.68 487.7 432.37 488.42C484.37 490.42 554.57 491.09 621.25 485.25C624.25 484.99 627.35 484.7 630.38 484.41C631.579 484.29 632.788 484.52 633.86 485.07C634.164 485.221 634.452 485.402 634.72 485.61C635.591 486.241 636.28 487.089 636.72 488.07C636.822 488.265 636.906 488.469 636.97 488.68C637.27 489.509 637.393 490.391 637.33 491.27V491.27Z" fill="black"/>
<path opacity="0.1" d="M298.1 504.96V508.15C298.101 509.31 297.772 510.446 297.152 511.427C296.533 512.408 295.648 513.192 294.6 513.69L254.5 514.46C253.434 513.971 252.53 513.186 251.897 512.199C251.265 511.211 250.929 510.063 250.93 508.89V505.89L298.1 504.96Z" fill="black"/>
<path d="M298.6 515.57L246.35 516.57V507.9L298.6 506.9V515.57Z" fill="#3F3D56"/>
<path opacity="0.1" d="M298.6 515.57L246.35 516.57V507.9L298.6 506.9V515.57Z" fill="black"/>
<path d="M300.6 515.57L248.35 516.57V507.9L300.6 506.9V515.57Z" fill="#3F3D56"/>
<g opacity="0.1">
<path opacity="0.1" d="M473.59 188.65C472.613 187.381 471.964 185.89 471.7 184.31C471.459 185.855 471.603 187.435 472.12 188.91C472.616 188.864 473.108 188.777 473.59 188.65Z" fill="black"/>
<path opacity="0.1" d="M460.89 195.29C460.701 194.064 460.578 192.829 460.52 191.59C460.52 192.82 460.52 194.06 460.52 195.3L460.89 195.29Z" fill="black"/>
<path opacity="0.1" d="M542.39 228.66C542.445 227.769 542.566 226.883 542.75 226.01C543.223 224.489 543.492 222.912 543.55 221.32C543.528 220.963 543.474 220.608 543.39 220.26C543.22 221.18 542.95 222.1 542.75 223.01C542.351 224.865 542.229 226.769 542.39 228.66Z" fill="black"/>
<path opacity="0.1" d="M521.59 197.76L522.68 198.55C523.599 197.885 524.459 197.143 525.25 196.33C525.626 195.81 525.859 195.199 525.926 194.561C525.993 193.922 525.891 193.277 525.63 192.69C525.53 192.918 525.403 193.133 525.25 193.33C524.02 194.91 521.3 195.78 521.59 197.76Z" fill="black"/>
<path opacity="0.1" d="M439.42 207.38C439.055 208.109 438.764 208.873 438.55 209.66C440.114 208.787 441.799 208.15 443.55 207.77L439.42 207.38Z" fill="black"/>
<path opacity="0.1" d="M453.21 196.5C452.553 196.138 451.925 195.727 451.33 195.27C451.305 195.666 451.335 196.063 451.42 196.45C452.017 196.422 452.615 196.438 453.21 196.5V196.5Z" fill="black"/>
<path opacity="0.1" d="M550.98 255.42C550.57 260.27 548.31 264.94 546.48 269.54C542.81 278.76 540.74 288.54 539.19 298.35C537.8 307.14 536.19 317.12 528.69 321.99C526.547 323.27 524.253 324.278 521.86 324.99C511.08 328.72 500.21 332.46 488.86 333.82C477.51 335.18 465.6 333.99 455.7 328.33C452.83 326.832 450.366 324.66 448.52 322C445.85 317.77 445.8 312.47 444.52 307.63C443.429 304.036 442.092 300.521 440.52 297.11C438.31 291.73 436.61 286.11 434.92 280.58C433.353 275.44 431.79 270.297 430.23 265.15C429.716 263.602 429.335 262.013 429.09 260.4C428.7 262.96 429.46 265.64 430.23 268.15C431.79 273.303 433.353 278.447 434.92 283.58C436.61 289.15 438.31 294.73 440.52 300.11C442.092 303.521 443.429 307.036 444.52 310.63C445.78 315.47 445.83 320.77 448.52 325C450.366 327.66 452.83 329.832 455.7 331.33C465.6 336.99 477.54 338.18 488.86 336.82C500.18 335.46 511.04 331.72 521.86 327.99C524.253 327.278 526.547 326.27 528.69 324.99C536.14 320.12 537.8 310.14 539.19 301.35C540.74 291.54 542.81 281.76 546.48 272.54C548.66 267.06 551.48 261.49 551 255.6C551 255.54 550.98 255.48 550.98 255.42Z" fill="black"/>
<path opacity="0.1" d="M431.29 251.55C431.29 251.55 431.29 251.48 431.29 251.44C431.47 249.677 431.314 247.895 430.83 246.19C430.631 245.093 430.5 243.984 430.44 242.87C430.325 244.985 430.456 247.106 430.83 249.19C430.99 249.97 431.17 250.76 431.29 251.55Z" fill="black"/>
<path opacity="0.1" d="M434.34 227.09C435.109 225.798 435.982 224.571 436.95 223.42C435.12 225.17 431.74 223.61 431.03 221.18C430.768 222.163 430.768 223.197 431.03 224.18C431.276 224.914 431.712 225.569 432.293 226.08C432.875 226.592 433.581 226.94 434.34 227.09V227.09Z" fill="black"/>
</g>
<path opacity="0.1" d="M684.1 483.66C684.1 483.66 687.27 495.16 684.1 505.16C680.93 515.16 684.1 483.66 684.1 483.66Z" fill="black"/>
<path opacity="0.1" d="M697.6 495.39C697.6 495.39 698.93 509.99 695.93 512.58C692.93 515.17 697.6 495.39 697.6 495.39Z" fill="black"/>
<path d="M198.99 342.86L300.6 341.86" stroke="black" stroke-width="2" stroke-miterlimit="10"/>
<path d="M198.99 355.33L300.6 354.34" stroke="black" stroke-width="2" stroke-miterlimit="10"/>
<path d="M198.99 367.81L300.6 366.81" stroke="#3F3D56" stroke-width="2" stroke-miterlimit="10"/>
<path d="M199 396L300.61 395" stroke="#3F3D56" stroke-width="2" stroke-miterlimit="10"/>
<path d="M199 396L300.61 395" stroke="#3F3D56" stroke-width="2" stroke-miterlimit="10"/>
<path d="M199 396L300.61 395" stroke="#3F3D56" stroke-width="2" stroke-miterlimit="10"/>
<path d="M199 423L300.61 422" stroke="#3F3D56" stroke-width="2" stroke-miterlimit="10"/>
<path d="M200 410L302 409" stroke="#3F3D56" stroke-width="2" stroke-miterlimit="10"/>
<path d="M199 382L300.61 381" stroke="#3F3D56" stroke-width="2" stroke-miterlimit="10"/>
<rect x="405" y="127" width="166" height="12" fill="white"/>
<rect x="403" y="153" width="48" height="39" fill="white"/>
<path d="M460 153H528V180H460V153Z" fill="white"/>
<path d="M179.806 135.367L176.954 135.167L177.016 134.285L179.868 134.484L179.806 135.367ZM183.115 135.598L180.262 135.399L180.324 134.516L183.176 134.715L183.115 135.598ZM186.423 135.829L183.57 135.63L183.632 134.747L186.485 134.947L186.423 135.829ZM189.731 136.061L186.879 135.861L186.941 134.979L189.793 135.178L189.731 136.061ZM193.04 136.292L190.187 136.093L190.249 135.21L193.101 135.409L193.04 136.292ZM196.348 136.523L193.495 136.324L193.557 135.441L196.41 135.641L196.348 136.523ZM199.656 136.755L196.804 136.555L196.865 135.673L199.718 135.872L199.656 136.755ZM202.965 136.986L200.112 136.787L200.174 135.904L203.026 136.103L202.965 136.986ZM206.273 137.217L203.42 137.018L203.482 136.135L206.335 136.335L206.273 137.217ZM209.581 137.449L206.729 137.249L206.79 136.367L209.643 136.566L209.581 137.449ZM212.889 137.68L210.037 137.481L210.099 136.598L212.951 136.797L212.889 137.68ZM216.198 137.911L213.345 137.712L213.407 136.829L216.26 137.029L216.198 137.911ZM219.506 138.143L216.654 137.943L216.715 137.061L219.568 137.26L219.506 138.143ZM222.814 138.374L219.962 138.175L220.024 137.292L222.876 137.491L222.814 138.374ZM226.123 138.605L223.27 138.406L223.332 137.523L226.185 137.723L226.123 138.605ZM229.431 138.837L226.579 138.637L226.64 137.755L229.493 137.954L229.431 138.837ZM232.739 139.068L229.887 138.869L229.949 137.986L232.801 138.185L232.739 139.068ZM236.048 139.299L233.195 139.1L233.257 138.217L236.11 138.417L236.048 139.299ZM239.356 139.531L236.504 139.331L236.565 138.449L239.418 138.648L239.356 139.531ZM242.664 139.762L239.812 139.563L239.874 138.68L242.726 138.879L242.664 139.762ZM245.973 139.993L243.12 139.794L243.182 138.911L246.034 139.111L245.973 139.993ZM249.281 140.225L246.429 140.025L246.49 139.143L249.343 139.342L249.281 140.225ZM252.589 140.456L249.737 140.257L249.799 139.374L252.651 139.574L252.589 140.456ZM255.898 140.687L253.045 140.488L253.107 139.605L255.959 139.805L255.898 140.687ZM259.206 140.919L256.354 140.719L256.415 139.837L259.268 140.036L259.206 140.919ZM262.514 141.15L259.662 140.951L259.724 140.068L262.576 140.268L262.514 141.15ZM265.823 141.381L262.97 141.182L263.032 140.299L265.884 140.499L265.823 141.381ZM269.131 141.613L266.279 141.413L266.34 140.531L269.193 140.73L269.131 141.613ZM272.439 141.844L269.587 141.645L269.649 140.762L272.501 140.962L272.439 141.844ZM275.748 142.076L272.895 141.876L272.957 140.993L275.809 141.193L275.748 142.076ZM279.056 142.307L276.204 142.107L276.265 141.225L279.118 141.424L279.056 142.307ZM282.364 142.538L279.512 142.339L279.574 141.456L282.426 141.656L282.364 142.538ZM285.673 142.77L282.82 142.57L282.882 141.687L285.734 141.887L285.673 142.77ZM288.981 143.001L286.129 142.801L286.19 141.919L289.043 142.118L288.981 143.001ZM292.289 143.232L289.437 143.033L289.499 142.15L292.351 142.35L292.289 143.232ZM295.598 143.464L292.745 143.264L292.807 142.381L295.659 142.581L295.598 143.464ZM298.906 143.695L296.054 143.495L296.115 142.613L298.968 142.812L298.906 143.695ZM302.214 143.926L299.362 143.727L299.424 142.844L302.276 143.044L302.214 143.926ZM305.523 144.158L302.67 143.958L302.732 143.076L305.584 143.275L305.523 144.158ZM308.831 144.389L305.979 144.189L306.04 143.307L308.893 143.506L308.831 144.389ZM312.139 144.62L309.287 144.421L309.349 143.538L312.201 143.738L312.139 144.62ZM315.448 144.852L312.595 144.652L312.657 143.77L315.509 143.969L315.448 144.852ZM318.756 145.083L315.904 144.883L315.965 144.001L318.818 144.2L318.756 145.083ZM322.064 145.314L319.212 145.115L319.274 144.232L322.126 144.432L322.064 145.314ZM178.83 149.333L175.977 149.133L176.039 148.25L178.891 148.45L178.83 149.333ZM182.138 149.564L179.286 149.364L179.347 148.482L182.2 148.681L182.138 149.564ZM185.446 149.795L182.594 149.596L182.656 148.713L185.508 148.913L185.446 149.795ZM188.755 150.027L185.902 149.827L185.964 148.944L188.816 149.144L188.755 150.027ZM192.063 150.258L189.211 150.058L189.272 149.176L192.125 149.375L192.063 150.258ZM195.371 150.489L192.519 150.29L192.581 149.407L195.433 149.607L195.371 150.489ZM198.68 150.721L195.827 150.521L195.889 149.639L198.741 149.838L198.68 150.721ZM201.988 150.952L199.136 150.752L199.197 149.87L202.05 150.069L201.988 150.952ZM205.296 151.183L202.444 150.984L202.506 150.101L205.358 150.301L205.296 151.183ZM208.605 151.415L205.752 151.215L205.814 150.333L208.666 150.532L208.605 151.415ZM211.913 151.646L209.06 151.446L209.122 150.564L211.975 150.763L211.913 151.646ZM218.191 152.085L215.338 151.885L215.4 151.003L218.252 151.202L218.191 152.085ZM221.499 152.316L218.646 152.117L218.708 151.234L221.561 151.434L221.499 152.316ZM224.807 152.548L221.955 152.348L222.017 151.466L224.869 151.665L224.807 152.548ZM228.116 152.779L225.263 152.579L225.325 151.697L228.177 151.896L228.116 152.779ZM231.424 153.01L228.571 152.811L228.633 151.928L231.486 152.128L231.424 153.01ZM234.732 153.242L231.88 153.042L231.941 152.16L234.794 152.359L234.732 153.242ZM238.041 153.473L235.188 153.273L235.25 152.391L238.102 152.59L238.041 153.473ZM241.349 153.704L238.496 153.505L238.558 152.622L241.411 152.822L241.349 153.704ZM244.657 153.936L241.805 153.736L241.866 152.854L244.719 153.053L244.657 153.936ZM247.965 154.167L245.113 153.968L245.175 153.085L248.027 153.284L247.965 154.167ZM251.274 154.398L248.421 154.199L248.483 153.316L251.336 153.516L251.274 154.398ZM254.582 154.63L251.73 154.43L251.791 153.548L254.644 153.747L254.582 154.63ZM257.89 154.861L255.038 154.662L255.1 153.779L257.952 153.978L257.89 154.861ZM261.199 155.092L258.346 154.893L258.408 154.01L261.261 154.21L261.199 155.092ZM264.507 155.324L261.655 155.124L261.716 154.242L264.569 154.441L264.507 155.324ZM267.815 155.555L264.963 155.356L265.025 154.473L267.877 154.672L267.815 155.555ZM271.124 155.786L268.271 155.587L268.333 154.704L271.186 154.904L271.124 155.786ZM274.432 156.018L271.58 155.818L271.641 154.936L274.494 155.135L274.432 156.018ZM277.74 156.249L274.888 156.05L274.95 155.167L277.802 155.366L277.74 156.249ZM281.049 156.48L278.196 156.281L278.258 155.398L281.11 155.598L281.049 156.48ZM284.357 156.712L281.505 156.512L281.566 155.63L284.419 155.829L284.357 156.712ZM287.665 156.943L284.813 156.744L284.875 155.861L287.727 156.06L287.665 156.943ZM290.974 157.174L288.121 156.975L288.183 156.092L291.035 156.292L290.974 157.174ZM294.282 157.406L291.43 157.206L291.491 156.324L294.344 156.523L294.282 157.406ZM297.59 157.637L294.738 157.438L294.8 156.555L297.652 156.754L297.59 157.637ZM300.899 157.868L298.046 157.669L298.108 156.786L300.96 156.986L300.899 157.868ZM304.207 158.1L301.355 157.9L301.416 157.018L304.269 157.217L304.207 158.1ZM307.515 158.331L304.663 158.132L304.725 157.249L307.577 157.449L307.515 158.331ZM310.824 158.562L307.971 158.363L308.033 157.48L310.885 157.68L310.824 158.562ZM314.132 158.794L311.28 158.594L311.341 157.712L314.194 157.911L314.132 158.794ZM317.44 159.025L314.588 158.826L314.65 157.943L317.502 158.143L317.44 159.025ZM320.749 159.256L317.896 159.057L317.958 158.174L320.81 158.374L320.749 159.256ZM324.057 159.488L321.205 159.288L321.266 158.406L324.119 158.605L324.057 159.488ZM327.365 159.719L324.513 159.52L324.575 158.637L327.427 158.837L327.365 159.719ZM330.674 159.95L327.821 159.751L327.883 158.868L330.735 159.068L330.674 159.95ZM333.982 160.182L331.13 159.982L331.191 159.1L334.044 159.299L333.982 160.182ZM337.29 160.413L334.438 160.214L334.5 159.331L337.352 159.531L337.29 160.413ZM177.853 163.298L175.001 163.099L175.062 162.216L177.915 162.416L177.853 163.298ZM181.161 163.53L178.309 163.33L178.371 162.448L181.223 162.647L181.161 163.53ZM184.47 163.761L181.617 163.562L181.679 162.679L184.531 162.878L184.47 163.761ZM187.778 163.992L184.926 163.793L184.987 162.91L187.84 163.11L187.778 163.992ZM191.086 164.224L188.234 164.024L188.296 163.142L191.148 163.341L191.086 164.224ZM194.395 164.455L191.542 164.256L191.604 163.373L194.456 163.573L194.395 164.455ZM197.703 164.686L194.851 164.487L194.912 163.604L197.765 163.804L197.703 164.686ZM201.011 164.918L198.159 164.718L198.221 163.836L201.073 164.035L201.011 164.918ZM204.32 165.149L201.467 164.95L201.529 164.067L204.381 164.267L204.32 165.149ZM207.628 165.38L204.776 165.181L204.837 164.298L207.69 164.498L207.628 165.38ZM210.936 165.612L208.084 165.412L208.146 164.53L210.998 164.729L210.936 165.612ZM214.245 165.843L211.392 165.644L211.454 164.761L214.306 164.961L214.245 165.843ZM217.553 166.075L214.701 165.875L214.762 164.992L217.615 165.192L217.553 166.075ZM220.861 166.306L218.009 166.106L218.071 165.224L220.923 165.423L220.861 166.306ZM224.17 166.537L221.317 166.338L221.379 165.455L224.231 165.655L224.17 166.537ZM227.478 166.769L224.626 166.569L224.687 165.686L227.54 165.886L227.478 166.769ZM230.786 167L227.934 166.8L227.996 165.918L230.848 166.117L230.786 167ZM234.095 167.231L231.242 167.032L231.304 166.149L234.156 166.349L234.095 167.231ZM237.403 167.463L234.551 167.263L234.612 166.38L237.465 166.58L237.403 167.463ZM240.711 167.694L237.859 167.494L237.921 166.612L240.773 166.811L240.711 167.694ZM244.02 167.925L241.167 167.726L241.229 166.843L244.081 167.043L244.02 167.925ZM247.328 168.157L244.476 167.957L244.537 167.075L247.39 167.274L247.328 168.157ZM250.636 168.388L247.784 168.188L247.846 167.306L250.698 167.505L250.636 168.388ZM253.945 168.619L251.092 168.42L251.154 167.537L254.006 167.737L253.945 168.619ZM257.253 168.851L254.4 168.651L254.462 167.769L257.315 167.968L257.253 168.851ZM260.561 169.082L257.709 168.882L257.771 168L260.623 168.199L260.561 169.082ZM263.87 169.313L261.017 169.114L261.079 168.231L263.931 168.431L263.87 169.313ZM267.178 169.545L264.325 169.345L264.387 168.463L267.24 168.662L267.178 169.545ZM270.486 169.776L267.634 169.577L267.696 168.694L270.548 168.893L270.486 169.776ZM273.795 170.007L270.942 169.808L271.004 168.925L273.856 169.125L273.795 170.007ZM277.103 170.239L274.25 170.039L274.312 169.157L277.165 169.356L277.103 170.239ZM280.411 170.47L277.559 170.271L277.621 169.388L280.473 169.587L280.411 170.47ZM283.72 170.701L280.867 170.502L280.929 169.619L283.781 169.819L283.72 170.701ZM287.028 170.933L284.175 170.733L284.237 169.851L287.09 170.05L287.028 170.933ZM290.336 171.164L287.484 170.965L287.545 170.082L290.398 170.281L290.336 171.164ZM293.645 171.395L290.792 171.196L290.854 170.313L293.706 170.513L293.645 171.395ZM296.953 171.627L294.1 171.427L294.162 170.545L297.015 170.744L296.953 171.627ZM300.261 171.858L297.409 171.659L297.47 170.776L300.323 170.975L300.261 171.858ZM303.569 172.089L300.717 171.89L300.779 171.007L303.631 171.207L303.569 172.089ZM306.878 172.321L304.025 172.121L304.087 171.239L306.94 171.438L306.878 172.321ZM310.186 172.552L307.334 172.353L307.395 171.47L310.248 171.669L310.186 172.552ZM313.494 172.783L310.642 172.584L310.704 171.701L313.556 171.901L313.494 172.783ZM316.803 173.015L313.95 172.815L314.012 171.933L316.865 172.132L316.803 173.015ZM320.111 173.246L317.259 173.047L317.32 172.164L320.173 172.363L320.111 173.246ZM323.419 173.477L320.567 173.278L320.629 172.395L323.481 172.595L323.419 173.477ZM326.728 173.709L323.875 173.509L323.937 172.627L326.789 172.826L326.728 173.709ZM330.036 173.94L327.184 173.741L327.245 172.858L330.098 173.057L330.036 173.94ZM333.344 174.171L330.492 173.972L330.554 173.089L333.406 173.289L333.344 174.171ZM336.653 174.403L333.8 174.203L333.862 173.321L336.714 173.52L336.653 174.403ZM339.961 174.634L337.109 174.435L337.17 173.552L340.023 173.752L339.961 174.634ZM176.876 177.264L174.024 177.065L174.086 176.182L176.938 176.382L176.876 177.264ZM180.185 177.496L177.332 177.296L177.394 176.414L180.246 176.613L180.185 177.496ZM183.493 177.727L180.641 177.528L180.702 176.645L183.555 176.844L183.493 177.727ZM186.801 177.958L183.949 177.759L184.011 176.876L186.863 177.076L186.801 177.958ZM190.11 178.19L187.257 177.99L187.319 177.108L190.171 177.307L190.11 178.19ZM193.418 178.421L190.566 178.222L190.627 177.339L193.48 177.538L193.418 178.421ZM196.726 178.652L193.874 178.453L193.936 177.57L196.788 177.77L196.726 178.652ZM200.035 178.884L197.182 178.684L197.244 177.802L200.096 178.001L200.035 178.884ZM203.343 179.115L200.491 178.916L200.552 178.033L203.405 178.232L203.343 179.115ZM206.651 179.346L203.799 179.147L203.861 178.264L206.713 178.464L206.651 179.346ZM209.96 179.578L207.107 179.378L207.169 178.496L210.021 178.695L209.96 179.578ZM213.268 179.809L210.416 179.61L210.477 178.727L213.33 178.926L213.268 179.809ZM216.576 180.04L213.724 179.841L213.786 178.958L216.638 179.158L216.576 180.04ZM219.885 180.272L217.032 180.072L217.094 179.19L219.946 179.389L219.885 180.272ZM223.193 180.503L220.341 180.304L220.402 179.421L223.255 179.62L223.193 180.503ZM226.501 180.734L223.649 180.535L223.711 179.652L226.563 179.852L226.501 180.734ZM229.81 180.966L226.957 180.766L227.019 179.884L229.871 180.083L229.81 180.966ZM233.118 181.197L230.266 180.998L230.327 180.115L233.18 180.315L233.118 181.197ZM236.426 181.428L233.574 181.229L233.636 180.346L236.488 180.546L236.426 181.428ZM239.735 181.66L236.882 181.46L236.944 180.578L239.796 180.777L239.735 181.66ZM243.043 181.891L240.191 181.692L240.252 180.809L243.105 181.009L243.043 181.891ZM246.351 182.122L243.499 181.923L243.561 181.04L246.413 181.24L246.351 182.122ZM249.66 182.354L246.807 182.154L246.869 181.272L249.721 181.471L249.66 182.354ZM252.968 182.585L250.116 182.386L250.177 181.503L253.03 181.703L252.968 182.585ZM256.276 182.816L253.424 182.617L253.486 181.734L256.338 181.934L256.276 182.816ZM259.585 183.048L256.732 182.848L256.794 181.966L259.646 182.165L259.585 183.048ZM262.893 183.279L260.041 183.08L260.102 182.197L262.955 182.397L262.893 183.279ZM266.201 183.511L263.349 183.311L263.411 182.428L266.263 182.628L266.201 183.511ZM269.51 183.742L266.657 183.542L266.719 182.66L269.571 182.859L269.51 183.742ZM272.818 183.973L269.966 183.774L270.027 182.891L272.88 183.091L272.818 183.973ZM276.126 184.205L273.274 184.005L273.336 183.122L276.188 183.322L276.126 184.205ZM279.435 184.436L276.582 184.236L276.644 183.354L279.496 183.553L279.435 184.436ZM282.743 184.667L279.891 184.468L279.952 183.585L282.805 183.785L282.743 184.667ZM286.051 184.899L283.199 184.699L283.261 183.816L286.113 184.016L286.051 184.899ZM289.36 185.13L286.507 184.93L286.569 184.048L289.421 184.247L289.36 185.13ZM292.668 185.361L289.816 185.162L289.877 184.279L292.73 184.479L292.668 185.361ZM295.976 185.593L293.124 185.393L293.186 184.511L296.038 184.71L295.976 185.593ZM299.285 185.824L296.432 185.624L296.494 184.742L299.346 184.941L299.285 185.824ZM302.593 186.055L299.74 185.856L299.802 184.973L302.655 185.173L302.593 186.055ZM305.901 186.287L303.049 186.087L303.111 185.205L305.963 185.404L305.901 186.287ZM309.21 186.518L306.357 186.318L306.419 185.436L309.271 185.635L309.21 186.518ZM312.518 186.749L309.665 186.55L309.727 185.667L312.58 185.867L312.518 186.749ZM315.826 186.981L312.974 186.781L313.036 185.899L315.888 186.098L315.826 186.981ZM319.135 187.212L316.282 187.013L316.344 186.13L319.196 186.329L319.135 187.212ZM322.443 187.443L319.59 187.244L319.652 186.361L322.505 186.561L322.443 187.443ZM175.9 191.23L173.047 191.031L173.109 190.148L175.962 190.348L175.9 191.23ZM179.208 191.462L176.356 191.262L176.417 190.379L179.27 190.579L179.208 191.462ZM182.517 191.693L179.664 191.493L179.726 190.611L182.578 190.81L182.517 191.693ZM185.825 191.924L182.972 191.725L183.034 190.842L185.887 191.042L185.825 191.924ZM189.133 192.156L186.281 191.956L186.342 191.074L189.195 191.273L189.133 192.156ZM192.442 192.387L189.589 192.187L189.651 191.305L192.503 191.504L192.442 192.387ZM195.75 192.618L192.897 192.419L192.959 191.536L195.812 191.736L195.75 192.618ZM199.058 192.85L196.206 192.65L196.267 191.768L199.12 191.967L199.058 192.85ZM202.366 193.081L199.514 192.881L199.576 191.999L202.428 192.198L202.366 193.081ZM205.675 193.312L202.822 193.113L202.884 192.23L205.737 192.43L205.675 193.312ZM208.983 193.544L206.131 193.344L206.192 192.462L209.045 192.661L208.983 193.544ZM212.291 193.775L209.439 193.576L209.501 192.693L212.353 192.892L212.291 193.775ZM215.6 194.006L212.747 193.807L212.809 192.924L215.662 193.124L215.6 194.006ZM218.908 194.238L216.056 194.038L216.117 193.156L218.97 193.355L218.908 194.238ZM222.216 194.469L219.364 194.27L219.426 193.387L222.278 193.586L222.216 194.469ZM225.525 194.7L222.672 194.501L222.734 193.618L225.586 193.818L225.525 194.7ZM228.833 194.932L225.981 194.732L226.042 193.85L228.895 194.049L228.833 194.932ZM232.141 195.163L229.289 194.964L229.351 194.081L232.203 194.28L232.141 195.163ZM235.45 195.394L232.597 195.195L232.659 194.312L235.511 194.512L235.45 195.394ZM238.758 195.626L235.906 195.426L235.967 194.544L238.82 194.743L238.758 195.626ZM242.066 195.857L239.214 195.658L239.276 194.775L242.128 194.974L242.066 195.857ZM245.375 196.088L242.522 195.889L242.584 195.006L245.436 195.206L245.375 196.088ZM248.683 196.32L245.831 196.12L245.892 195.238L248.745 195.437L248.683 196.32ZM251.991 196.551L249.139 196.352L249.201 195.469L252.053 195.668L251.991 196.551ZM255.3 196.782L252.447 196.583L252.509 195.7L255.361 195.9L255.3 196.782ZM258.608 197.014L255.756 196.814L255.817 195.932L258.67 196.131L258.608 197.014ZM174.923 205.196L172.071 204.997L172.133 204.114L174.985 204.314L174.923 205.196ZM178.232 205.427L175.379 205.228L175.441 204.345L178.293 204.545L178.232 205.427ZM181.54 205.659L178.688 205.459L178.749 204.577L181.602 204.776L181.54 205.659ZM184.848 205.89L181.996 205.691L182.058 204.808L184.91 205.008L184.848 205.89ZM188.157 206.121L185.304 205.922L185.366 205.039L188.218 205.239L188.157 206.121ZM191.465 206.353L188.613 206.153L188.674 205.271L191.527 205.47L191.465 206.353ZM194.773 206.584L191.921 206.385L191.983 205.502L194.835 205.702L194.773 206.584ZM198.082 206.815L195.229 206.616L195.291 205.733L198.143 205.933L198.082 206.815ZM201.39 207.047L198.537 206.847L198.599 205.965L201.452 206.164L201.39 207.047ZM204.698 207.278L201.846 207.079L201.908 206.196L204.76 206.396L204.698 207.278ZM208.007 207.51L205.154 207.31L205.216 206.427L208.068 206.627L208.007 207.51ZM211.315 207.741L208.462 207.541L208.524 206.659L211.377 206.858L211.315 207.741ZM214.623 207.972L211.771 207.773L211.833 206.89L214.685 207.09L214.623 207.972ZM217.932 208.204L215.079 208.004L215.141 207.121L217.993 207.321L217.932 208.204ZM221.24 208.435L218.387 208.235L218.449 207.353L221.302 207.552L221.24 208.435ZM224.548 208.666L221.696 208.467L221.757 207.584L224.61 207.784L224.548 208.666ZM227.857 208.898L225.004 208.698L225.066 207.815L227.918 208.015L227.857 208.898ZM231.165 209.129L228.312 208.929L228.374 208.047L231.227 208.246L231.165 209.129ZM234.473 209.36L231.621 209.161L231.682 208.278L234.535 208.478L234.473 209.36ZM237.781 209.592L234.929 209.392L234.991 208.51L237.843 208.709L237.781 209.592ZM241.09 209.823L238.237 209.623L238.299 208.741L241.152 208.94L241.09 209.823ZM244.398 210.054L241.546 209.855L241.607 208.972L244.46 209.172L244.398 210.054ZM247.706 210.286L244.854 210.086L244.916 209.204L247.768 209.403L247.706 210.286ZM251.015 210.517L248.162 210.317L248.224 209.435L251.077 209.634L251.015 210.517ZM254.323 210.748L251.471 210.549L251.532 209.666L254.385 209.866L254.323 210.748ZM257.631 210.98L254.779 210.78L254.841 209.898L257.693 210.097L257.631 210.98ZM260.94 211.211L258.087 211.012L258.149 210.129L261.002 210.328L260.94 211.211ZM264.248 211.442L261.396 211.243L261.457 210.36L264.31 210.56L264.248 211.442ZM270.526 211.881L267.673 211.682L267.735 210.799L270.587 210.999L270.526 211.881ZM273.834 212.113L270.982 211.913L271.043 211.031L273.896 211.23L273.834 212.113ZM277.142 212.344L274.29 212.145L274.352 211.262L277.204 211.461L277.142 212.344ZM280.451 212.575L277.598 212.376L277.66 211.493L280.512 211.693L280.451 212.575ZM283.759 212.807L280.907 212.607L280.968 211.725L283.821 211.924L283.759 212.807ZM287.067 213.038L284.215 212.839L284.277 211.956L287.129 212.155L287.067 213.038ZM290.376 213.269L287.523 213.07L287.585 212.187L290.437 212.387L290.376 213.269ZM293.684 213.501L290.832 213.301L290.893 212.419L293.746 212.618L293.684 213.501ZM296.992 213.732L294.14 213.533L294.202 212.65L297.054 212.849L296.992 213.732ZM300.301 213.963L297.448 213.764L297.51 212.881L300.362 213.081L300.301 213.963ZM303.609 214.195L300.757 213.995L300.818 213.113L303.671 213.312L303.609 214.195ZM306.917 214.426L304.065 214.227L304.127 213.344L306.979 213.543L306.917 214.426ZM310.226 214.657L307.373 214.458L307.435 213.575L310.287 213.775L310.226 214.657ZM313.534 214.889L310.682 214.689L310.743 213.807L313.596 214.006L313.534 214.889ZM316.842 215.12L313.99 214.921L314.052 214.038L316.904 214.237L316.842 215.12Z" fill="black"/>
<path d="M643.82 124L640.964 124.125L640.925 123.241L643.782 123.116L643.82 124ZM647.133 123.855L644.277 123.98L644.238 123.096L647.095 122.972L647.133 123.855ZM650.447 123.711L647.59 123.835L647.551 122.952L650.408 122.827L650.447 123.711ZM653.76 123.566L650.903 123.691L650.865 122.807L653.721 122.682L653.76 123.566ZM657.073 123.421L654.217 123.546L654.178 122.662L657.035 122.538L657.073 123.421ZM660.386 123.277L657.53 123.402L657.491 122.518L660.348 122.393L660.386 123.277ZM663.7 123.132L660.843 123.257L660.804 122.373L663.661 122.248L663.7 123.132ZM667.013 122.987L664.156 123.112L664.118 122.228L666.974 122.104L667.013 122.987ZM670.326 122.843L667.469 122.968L667.431 122.084L670.288 121.959L670.326 122.843ZM673.639 122.698L670.783 122.823L670.744 121.939L673.601 121.814L673.639 122.698ZM676.953 122.553L674.096 122.678L674.057 121.794L676.914 121.67L676.953 122.553ZM680.266 122.409L677.409 122.534L677.371 121.65L680.227 121.525L680.266 122.409ZM683.579 122.264L680.722 122.389L680.684 121.505L683.541 121.38L683.579 122.264ZM686.892 122.12L684.036 122.244L683.997 121.36L686.854 121.236L686.892 122.12ZM690.206 121.975L687.349 122.1L687.31 121.216L690.167 121.091L690.206 121.975ZM693.519 121.83L690.662 121.955L690.624 121.071L693.48 120.946L693.519 121.83ZM696.832 121.686L693.975 121.81L693.937 120.926L696.794 120.802L696.832 121.686ZM700.145 121.541L697.289 121.666L697.25 120.782L700.107 120.657L700.145 121.541ZM703.459 121.396L700.602 121.521L700.563 120.637L703.42 120.512L703.459 121.396ZM706.772 121.252L703.915 121.376L703.877 120.492L706.733 120.368L706.772 121.252ZM710.085 121.107L707.228 121.232L707.19 120.348L710.047 120.223L710.085 121.107ZM713.398 120.962L710.542 121.087L710.503 120.203L713.36 120.078L713.398 120.962ZM716.712 120.818L713.855 120.942L713.816 120.058L716.673 119.934L716.712 120.818ZM720.025 120.673L717.168 120.798L717.13 119.914L719.986 119.789L720.025 120.673ZM723.338 120.528L720.481 120.653L720.443 119.769L723.3 119.644L723.338 120.528ZM726.651 120.384L723.795 120.508L723.756 119.624L726.613 119.5L726.651 120.384ZM729.965 120.239L727.108 120.364L727.069 119.48L729.926 119.355L729.965 120.239ZM733.278 120.094L730.421 120.219L730.383 119.335L733.239 119.21L733.278 120.094ZM736.591 119.95L733.734 120.074L733.696 119.19L736.553 119.066L736.591 119.95ZM739.904 119.805L737.048 119.93L737.009 119.046L739.866 118.921L739.904 119.805ZM743.218 119.66L740.361 119.785L740.322 118.901L743.179 118.776L743.218 119.66ZM746.531 119.516L743.674 119.64L743.636 118.756L746.492 118.632L746.531 119.516ZM749.844 119.371L746.987 119.496L746.949 118.612L749.806 118.487L749.844 119.371ZM753.157 119.226L750.301 119.351L750.262 118.467L753.119 118.342L753.157 119.226ZM756.471 119.082L753.614 119.206L753.575 118.322L756.432 118.198L756.471 119.082ZM759.784 118.937L756.927 119.062L756.889 118.178L759.745 118.053L759.784 118.937ZM763.097 118.792L760.24 118.917L760.202 118.033L763.059 117.908L763.097 118.792ZM766.41 118.648L763.554 118.772L763.515 117.888L766.372 117.764L766.41 118.648ZM769.724 118.503L766.867 118.628L766.828 117.744L769.685 117.619L769.724 118.503ZM773.037 118.358L770.18 118.483L770.142 117.599L772.998 117.474L773.037 118.358ZM776.35 118.214L773.493 118.338L773.455 117.455L776.312 117.33L776.35 118.214ZM779.663 118.069L776.807 118.194L776.768 117.31L779.625 117.185L779.663 118.069ZM782.977 117.924L780.12 118.049L780.081 117.165L782.938 117.04L782.977 117.924ZM786.29 117.78L783.433 117.904L783.395 117.021L786.251 116.896L786.29 117.78ZM644.431 137.987L641.574 138.111L641.536 137.228L644.392 137.103L644.431 137.987ZM647.744 137.842L644.887 137.967L644.849 137.083L647.705 136.958L647.744 137.842ZM651.057 137.697L648.201 137.822L648.162 136.938L651.019 136.814L651.057 137.697ZM654.371 137.553L651.514 137.678L651.475 136.794L654.332 136.669L654.371 137.553ZM657.684 137.408L654.827 137.533L654.789 136.649L657.645 136.524L657.684 137.408ZM660.997 137.263L658.14 137.388L658.102 136.504L660.958 136.38L660.997 137.263ZM664.31 137.119L661.454 137.244L661.415 136.36L664.272 136.235L664.31 137.119ZM667.624 136.974L664.767 137.099L664.728 136.215L667.585 136.09L667.624 136.974ZM670.937 136.829L668.08 136.954L668.042 136.07L670.898 135.946L670.937 136.829ZM674.25 136.685L671.393 136.81L671.355 135.926L674.211 135.801L674.25 136.685ZM677.563 136.54L674.707 136.665L674.668 135.781L677.525 135.656L677.563 136.54ZM683.85 136.266L680.994 136.39L680.955 135.506L683.812 135.382L683.85 136.266ZM687.164 136.121L684.307 136.246L684.268 135.362L687.125 135.237L687.164 136.121ZM690.477 135.976L687.62 136.101L687.582 135.217L690.438 135.092L690.477 135.976ZM693.79 135.832L690.933 135.956L690.895 135.072L693.751 134.948L693.79 135.832ZM697.103 135.687L694.247 135.812L694.208 134.928L697.065 134.803L697.103 135.687ZM700.417 135.542L697.56 135.667L697.521 134.783L700.378 134.658L700.417 135.542ZM703.73 135.398L700.873 135.522L700.835 134.639L703.691 134.514L703.73 135.398ZM707.043 135.253L704.186 135.378L704.148 134.494L707.004 134.369L707.043 135.253ZM710.356 135.108L707.5 135.233L707.461 134.349L710.318 134.224L710.356 135.108ZM713.67 134.964L710.813 135.088L710.774 134.205L713.631 134.08L713.67 134.964ZM716.983 134.819L714.126 134.944L714.088 134.06L716.944 133.935L716.983 134.819ZM720.296 134.674L717.439 134.799L717.401 133.915L720.257 133.79L720.296 134.674ZM723.609 134.53L720.753 134.654L720.714 133.771L723.571 133.646L723.609 134.53ZM726.923 134.385L724.066 134.51L724.027 133.626L726.884 133.501L726.923 134.385ZM730.236 134.24L727.379 134.365L727.341 133.481L730.197 133.357L730.236 134.24ZM733.549 134.096L730.692 134.22L730.654 133.337L733.51 133.212L733.549 134.096ZM736.862 133.951L734.006 134.076L733.967 133.192L736.824 133.067L736.862 133.951ZM740.176 133.806L737.319 133.931L737.28 133.047L740.137 132.923L740.176 133.806ZM743.489 133.662L740.632 133.787L740.594 132.903L743.45 132.778L743.489 133.662ZM746.802 133.517L743.945 133.642L743.907 132.758L746.763 132.633L746.802 133.517ZM750.115 133.372L747.259 133.497L747.22 132.613L750.077 132.489L750.115 133.372ZM753.429 133.228L750.572 133.353L750.533 132.469L753.39 132.344L753.429 133.228ZM756.742 133.083L753.885 133.208L753.847 132.324L756.703 132.199L756.742 133.083ZM760.055 132.938L757.198 133.063L757.16 132.179L760.016 132.055L760.055 132.938ZM763.368 132.794L760.512 132.919L760.473 132.035L763.33 131.91L763.368 132.794ZM766.682 132.649L763.825 132.774L763.786 131.89L766.643 131.765L766.682 132.649ZM769.995 132.505L767.138 132.629L767.1 131.745L769.956 131.621L769.995 132.505ZM773.308 132.36L770.451 132.485L770.413 131.601L773.269 131.476L773.308 132.36ZM776.621 132.215L773.765 132.34L773.726 131.456L776.583 131.331L776.621 132.215ZM779.935 132.071L777.078 132.195L777.039 131.311L779.896 131.187L779.935 132.071ZM783.248 131.926L780.391 132.051L780.353 131.167L783.209 131.042L783.248 131.926ZM786.561 131.781L783.704 131.906L783.666 131.022L786.522 130.897L786.561 131.781ZM789.874 131.637L787.018 131.761L786.979 130.877L789.836 130.753L789.874 131.637ZM793.188 131.492L790.331 131.617L790.292 130.733L793.149 130.608L793.188 131.492ZM796.501 131.347L793.644 131.472L793.606 130.588L796.462 130.463L796.501 131.347ZM799.814 131.203L796.957 131.327L796.919 130.443L799.775 130.319L799.814 131.203ZM803.127 131.058L800.271 131.183L800.232 130.299L803.089 130.174L803.127 131.058ZM645.042 151.973L642.185 152.098L642.146 151.214L645.003 151.09L645.042 151.973ZM648.355 151.829L645.498 151.953L645.46 151.07L648.316 150.945L648.355 151.829ZM651.668 151.684L648.811 151.809L648.773 150.925L651.629 150.8L651.668 151.684ZM654.981 151.539L652.125 151.664L652.086 150.78L654.943 150.656L654.981 151.539ZM658.294 151.395L655.438 151.52L655.399 150.636L658.256 150.511L658.294 151.395ZM661.608 151.25L658.751 151.375L658.713 150.491L661.569 150.366L661.608 151.25ZM664.921 151.105L662.064 151.23L662.026 150.346L664.882 150.222L664.921 151.105ZM668.234 150.961L665.378 151.086L665.339 150.202L668.196 150.077L668.234 150.961ZM671.547 150.816L668.691 150.941L668.652 150.057L671.509 149.932L671.547 150.816ZM674.861 150.671L672.004 150.796L671.965 149.912L674.822 149.788L674.861 150.671ZM678.174 150.527L675.317 150.652L675.279 149.768L678.135 149.643L678.174 150.527ZM681.487 150.382L678.631 150.507L678.592 149.623L681.449 149.498L681.487 150.382ZM684.8 150.238L681.944 150.362L681.905 149.478L684.762 149.354L684.8 150.238ZM688.114 150.093L685.257 150.218L685.218 149.334L688.075 149.209L688.114 150.093ZM691.427 149.948L688.57 150.073L688.532 149.189L691.388 149.064L691.427 149.948ZM694.74 149.804L691.884 149.928L691.845 149.044L694.702 148.92L694.74 149.804ZM698.053 149.659L695.197 149.784L695.158 148.9L698.015 148.775L698.053 149.659ZM701.367 149.514L698.51 149.639L698.471 148.755L701.328 148.63L701.367 149.514ZM704.68 149.37L701.823 149.494L701.785 148.61L704.641 148.486L704.68 149.37ZM707.993 149.225L705.137 149.35L705.098 148.466L707.955 148.341L707.993 149.225ZM711.306 149.08L708.45 149.205L708.411 148.321L711.268 148.196L711.306 149.08ZM714.62 148.936L711.763 149.06L711.724 148.176L714.581 148.052L714.62 148.936ZM717.933 148.791L715.076 148.916L715.038 148.032L717.894 147.907L717.933 148.791ZM721.246 148.646L718.39 148.771L718.351 147.887L721.208 147.762L721.246 148.646ZM724.559 148.502L721.703 148.626L721.664 147.742L724.521 147.618L724.559 148.502ZM727.873 148.357L725.016 148.482L724.977 147.598L727.834 147.473L727.873 148.357ZM731.186 148.212L728.329 148.337L728.291 147.453L731.147 147.328L731.186 148.212ZM734.499 148.068L731.643 148.192L731.604 147.308L734.461 147.184L734.499 148.068ZM737.812 147.923L734.956 148.048L734.917 147.164L737.774 147.039L737.812 147.923ZM741.126 147.778L738.269 147.903L738.23 147.019L741.087 146.894L741.126 147.778ZM744.439 147.634L741.582 147.758L741.544 146.874L744.4 146.75L744.439 147.634ZM747.752 147.489L744.896 147.614L744.857 146.73L747.714 146.605L747.752 147.489ZM751.065 147.344L748.209 147.469L748.17 146.585L751.027 146.46L751.065 147.344ZM754.379 147.2L751.522 147.324L751.483 146.44L754.34 146.316L754.379 147.2ZM757.692 147.055L754.835 147.18L754.797 146.296L757.653 146.171L757.692 147.055ZM761.005 146.91L758.149 147.035L758.11 146.151L760.967 146.026L761.005 146.91ZM764.318 146.766L761.462 146.89L761.423 146.006L764.28 145.882L764.318 146.766ZM767.632 146.621L764.775 146.746L764.736 145.862L767.593 145.737L767.632 146.621ZM770.945 146.476L768.088 146.601L768.05 145.717L770.906 145.592L770.945 146.476ZM774.258 146.332L771.402 146.456L771.363 145.573L774.22 145.448L774.258 146.332ZM777.571 146.187L774.715 146.312L774.676 145.428L777.533 145.303L777.571 146.187ZM780.885 146.042L778.028 146.167L777.989 145.283L780.846 145.158L780.885 146.042ZM784.198 145.898L781.341 146.022L781.303 145.139L784.159 145.014L784.198 145.898ZM787.511 145.753L784.655 145.878L784.616 144.994L787.473 144.869L787.511 145.753ZM790.824 145.608L787.968 145.733L787.929 144.849L790.786 144.724L790.824 145.608ZM794.138 145.464L791.281 145.588L791.242 144.705L794.099 144.58L794.138 145.464ZM797.451 145.319L794.594 145.444L794.556 144.56L797.412 144.435L797.451 145.319ZM800.764 145.174L797.908 145.299L797.869 144.415L800.726 144.291L800.764 145.174ZM804.077 145.03L801.221 145.154L801.182 144.271L804.039 144.146L804.077 145.03ZM807.391 144.885L804.534 145.01L804.495 144.126L807.352 144.001L807.391 144.885ZM645.652 165.96L642.796 166.085L642.757 165.201L645.614 165.076L645.652 165.96ZM648.965 165.815L646.109 165.94L646.07 165.056L648.927 164.932L648.965 165.815ZM652.279 165.671L649.422 165.796L649.383 164.912L652.24 164.787L652.279 165.671ZM655.592 165.526L652.735 165.651L652.697 164.767L655.553 164.642L655.592 165.526ZM658.905 165.381L656.049 165.506L656.01 164.622L658.867 164.498L658.905 165.381ZM662.218 165.237L659.362 165.362L659.323 164.478L662.18 164.353L662.218 165.237ZM665.532 165.092L662.675 165.217L662.636 164.333L665.493 164.208L665.532 165.092ZM668.845 164.947L665.988 165.072L665.95 164.188L668.806 164.064L668.845 164.947ZM672.158 164.803L669.302 164.928L669.263 164.044L672.12 163.919L672.158 164.803ZM675.471 164.658L672.615 164.783L672.576 163.899L675.433 163.774L675.471 164.658ZM678.785 164.514L675.928 164.638L675.889 163.754L678.746 163.63L678.785 164.514ZM682.098 164.369L679.241 164.494L679.203 163.61L682.059 163.485L682.098 164.369ZM685.411 164.224L682.555 164.349L682.516 163.465L685.373 163.34L685.411 164.224ZM688.724 164.08L685.868 164.204L685.829 163.32L688.686 163.196L688.724 164.08ZM692.038 163.935L689.181 164.06L689.142 163.176L691.999 163.051L692.038 163.935ZM695.351 163.79L692.494 163.915L692.456 163.031L695.312 162.906L695.351 163.79ZM698.664 163.646L695.808 163.77L695.769 162.886L698.626 162.762L698.664 163.646ZM701.977 163.501L699.121 163.626L699.082 162.742L701.939 162.617L701.977 163.501ZM705.291 163.356L702.434 163.481L702.395 162.597L705.252 162.472L705.291 163.356ZM708.604 163.212L705.747 163.336L705.709 162.452L708.565 162.328L708.604 163.212ZM711.917 163.067L709.061 163.192L709.022 162.308L711.879 162.183L711.917 163.067ZM715.23 162.922L712.374 163.047L712.335 162.163L715.192 162.038L715.23 162.922ZM718.544 162.778L715.687 162.902L715.648 162.018L718.505 161.894L718.544 162.778ZM721.857 162.633L719 162.758L718.962 161.874L721.818 161.749L721.857 162.633ZM725.17 162.488L722.314 162.613L722.275 161.729L725.132 161.604L725.17 162.488ZM728.483 162.344L725.627 162.468L725.588 161.584L728.445 161.46L728.483 162.344ZM731.797 162.199L728.94 162.324L728.901 161.44L731.758 161.315L731.797 162.199ZM735.11 162.054L732.253 162.179L732.215 161.295L735.071 161.17L735.11 162.054ZM738.423 161.91L735.566 162.034L735.528 161.15L738.385 161.026L738.423 161.91ZM741.736 161.765L738.88 161.89L738.841 161.006L741.698 160.881L741.736 161.765ZM745.05 161.62L742.193 161.745L742.154 160.861L745.011 160.736L745.05 161.62ZM748.363 161.476L745.506 161.6L745.468 160.716L748.324 160.592L748.363 161.476ZM751.676 161.331L748.819 161.456L748.781 160.572L751.638 160.447L751.676 161.331ZM754.989 161.186L752.133 161.311L752.094 160.427L754.951 160.302L754.989 161.186ZM758.303 161.042L755.446 161.166L755.407 160.282L758.264 160.158L758.303 161.042ZM761.616 160.897L758.759 161.022L758.721 160.138L761.577 160.013L761.616 160.897ZM764.929 160.752L762.072 160.877L762.034 159.993L764.891 159.868L764.929 160.752ZM768.242 160.608L765.386 160.732L765.347 159.848L768.204 159.724L768.242 160.608ZM771.556 160.463L768.699 160.588L768.66 159.704L771.517 159.579L771.556 160.463ZM774.869 160.318L772.012 160.443L771.974 159.559L774.83 159.434L774.869 160.318ZM778.182 160.174L775.325 160.298L775.287 159.415L778.144 159.29L778.182 160.174ZM781.495 160.029L778.639 160.154L778.6 159.27L781.457 159.145L781.495 160.029ZM784.809 159.884L781.952 160.009L781.913 159.125L784.77 159L784.809 159.884ZM788.122 159.74L785.265 159.864L785.227 158.981L788.083 158.856L788.122 159.74ZM791.435 159.595L788.578 159.72L788.54 158.836L791.397 158.711L791.435 159.595ZM646.263 179.947L643.406 180.072L643.368 179.188L646.224 179.063L646.263 179.947ZM649.576 179.802L646.719 179.927L646.681 179.043L649.538 178.918L649.576 179.802ZM652.889 179.657L650.033 179.782L649.994 178.898L652.851 178.774L652.889 179.657ZM656.203 179.513L653.346 179.638L653.307 178.754L656.164 178.629L656.203 179.513ZM659.516 179.368L656.659 179.493L656.621 178.609L659.477 178.484L659.516 179.368ZM662.829 179.223L659.972 179.348L659.934 178.464L662.79 178.34L662.829 179.223ZM666.142 179.079L663.286 179.204L663.247 178.32L666.104 178.195L666.142 179.079ZM669.456 178.934L666.599 179.059L666.56 178.175L669.417 178.05L669.456 178.934ZM672.769 178.789L669.912 178.914L669.874 178.03L672.73 177.906L672.769 178.789ZM676.082 178.645L673.225 178.77L673.187 177.886L676.043 177.761L676.082 178.645ZM679.395 178.5L676.539 178.625L676.5 177.741L679.357 177.616L679.395 178.5ZM682.709 178.356L679.852 178.48L679.813 177.596L682.67 177.472L682.709 178.356ZM686.022 178.211L683.165 178.336L683.127 177.452L685.983 177.327L686.022 178.211ZM689.335 178.066L686.478 178.191L686.44 177.307L689.296 177.182L689.335 178.066ZM692.648 177.922L689.792 178.046L689.753 177.162L692.61 177.038L692.648 177.922ZM695.962 177.777L693.105 177.902L693.066 177.018L695.923 176.893L695.962 177.777ZM699.275 177.632L696.418 177.757L696.38 176.873L699.236 176.748L699.275 177.632ZM702.588 177.488L699.731 177.612L699.693 176.728L702.549 176.604L702.588 177.488ZM705.901 177.343L703.045 177.468L703.006 176.584L705.863 176.459L705.901 177.343ZM709.215 177.198L706.358 177.323L706.319 176.439L709.176 176.314L709.215 177.198ZM712.528 177.054L709.671 177.178L709.633 176.294L712.489 176.17L712.528 177.054ZM715.841 176.909L712.984 177.034L712.946 176.15L715.802 176.025L715.841 176.909ZM719.154 176.764L716.298 176.889L716.259 176.005L719.116 175.88L719.154 176.764ZM722.468 176.62L719.611 176.744L719.572 175.86L722.429 175.736L722.468 176.62ZM725.781 176.475L722.924 176.6L722.886 175.716L725.742 175.591L725.781 176.475ZM729.094 176.33L726.237 176.455L726.199 175.571L729.055 175.446L729.094 176.33ZM646.874 193.933L644.017 194.058L643.978 193.174L646.835 193.05L646.874 193.933ZM650.187 193.789L647.33 193.914L647.292 193.03L650.148 192.905L650.187 193.789ZM653.5 193.644L650.643 193.769L650.605 192.885L653.461 192.76L653.5 193.644ZM656.813 193.499L653.957 193.624L653.918 192.74L656.775 192.616L656.813 193.499ZM660.127 193.355L657.27 193.48L657.231 192.596L660.088 192.471L660.127 193.355ZM663.44 193.21L660.583 193.335L660.545 192.451L663.401 192.326L663.44 193.21ZM666.753 193.065L663.896 193.19L663.858 192.306L666.714 192.182L666.753 193.065ZM670.066 192.921L667.21 193.046L667.171 192.162L670.028 192.037L670.066 192.921ZM673.38 192.776L670.523 192.901L670.484 192.017L673.341 191.892L673.38 192.776ZM676.693 192.632L673.836 192.756L673.798 191.872L676.654 191.748L676.693 192.632ZM680.006 192.487L677.149 192.612L677.111 191.728L679.967 191.603L680.006 192.487ZM683.319 192.342L680.463 192.467L680.424 191.583L683.281 191.458L683.319 192.342ZM686.633 192.198L683.776 192.322L683.737 191.438L686.594 191.314L686.633 192.198ZM689.946 192.053L687.089 192.178L687.051 191.294L689.907 191.169L689.946 192.053ZM693.259 191.908L690.402 192.033L690.364 191.149L693.22 191.024L693.259 191.908ZM696.572 191.764L693.716 191.888L693.677 191.004L696.534 190.88L696.572 191.764ZM699.886 191.619L697.029 191.744L696.99 190.86L699.847 190.735L699.886 191.619ZM703.199 191.474L700.342 191.599L700.304 190.715L703.16 190.59L703.199 191.474ZM706.512 191.33L703.655 191.454L703.617 190.57L706.473 190.446L706.512 191.33ZM709.825 191.185L706.969 191.31L706.93 190.426L709.787 190.301L709.825 191.185ZM713.139 191.04L710.282 191.165L710.243 190.281L713.1 190.156L713.139 191.04ZM716.452 190.896L713.595 191.02L713.557 190.136L716.413 190.012L716.452 190.896ZM719.765 190.751L716.908 190.876L716.87 189.992L719.726 189.867L719.765 190.751ZM723.078 190.606L720.222 190.731L720.183 189.847L723.04 189.722L723.078 190.606ZM726.391 190.462L723.535 190.586L723.496 189.702L726.353 189.578L726.391 190.462ZM729.705 190.317L726.848 190.442L726.81 189.558L729.666 189.433L729.705 190.317ZM733.018 190.172L730.161 190.297L730.123 189.413L732.979 189.288L733.018 190.172ZM736.331 190.028L733.475 190.152L733.436 189.268L736.293 189.144L736.331 190.028ZM742.618 189.753L739.762 189.878L739.723 188.994L742.58 188.869L742.618 189.753ZM745.931 189.608L743.075 189.733L743.036 188.849L745.893 188.725L745.931 189.608ZM749.245 189.464L746.388 189.589L746.349 188.705L749.206 188.58L749.245 189.464ZM752.558 189.319L749.701 189.444L749.663 188.56L752.519 188.435L752.558 189.319ZM755.871 189.175L753.015 189.299L752.976 188.415L755.833 188.291L755.871 189.175ZM759.184 189.03L756.328 189.155L756.289 188.271L759.146 188.146L759.184 189.03ZM762.498 188.885L759.641 189.01L759.602 188.126L762.459 188.001L762.498 188.885ZM765.811 188.741L762.954 188.865L762.916 187.981L765.772 187.857L765.811 188.741ZM769.124 188.596L766.268 188.721L766.229 187.837L769.086 187.712L769.124 188.596ZM772.437 188.451L769.581 188.576L769.542 187.692L772.399 187.567L772.437 188.451ZM775.751 188.307L772.894 188.431L772.855 187.547L775.712 187.423L775.751 188.307ZM779.064 188.162L776.207 188.287L776.169 187.403L779.025 187.278L779.064 188.162ZM782.377 188.017L779.521 188.142L779.482 187.258L782.339 187.133L782.377 188.017ZM785.69 187.873L782.834 187.997L782.795 187.113L785.652 186.989L785.69 187.873ZM789.004 187.728L786.147 187.853L786.108 186.969L788.965 186.844L789.004 187.728Z" fill="black"/>
<rect x="750" y="374" width="7" height="81" fill="#F71D1D"/>
<rect x="722" y="389" width="7" height="65" fill="#22CA32"/>
<rect x="696" y="374" width="7" height="81" fill="#15BDC8"/>
<rect x="682" y="410" width="7" height="45" fill="black"/>
<rect x="710" y="435" width="7" height="19" fill="#FBBEBE"/>
<rect x="735" y="409" width="7" height="46" fill="#C4C4C4"/>
<rect x="735" y="409" width="7" height="46" fill="#221EE8"/>
<rect x="608" y="328" width="149" height="34" fill="black"/>
<rect x="538" y="153" width="33" height="48" fill="white"/>
</g>
<defs>
<clipPath id="clip0">
<rect width="1041.32" height="554.17" fill="white"/>
</clipPath>
</defs>
<!-- <use xlink:href="clip0" /> -->
</svg>
