<svg width="644" height="493" viewBox="0 0 644 493" fill="none" xmlns="http://www.w3.org/2000/svg">
<path d="M350.757 90.4248H293.243C286.627 90.4248 281.261 84.4697 281.261 77.127V13.2978C281.261 5.95508 286.627 0 293.243 0H350.757C357.373 0 362.739 5.95508 362.739 13.2978V77.127C362.739 84.4697 357.373 90.4248 350.757 90.4248Z" fill="#40617C"/>
<path d="M308.716 65.6216L292.045 47.1203C291.107 46.0796 291.107 44.403 292.045 43.3623L308.716 24.861C309.653 23.8203 311.164 23.8203 312.102 24.861C313.04 25.9017 313.04 27.5784 312.102 28.6191L297.098 45.2702L312.102 61.9213C313.04 62.962 313.04 64.6387 312.102 65.6794C311.164 66.6623 309.653 66.6622 308.716 65.6216Z" fill="white"/>
<path d="M331.898 65.621C330.96 64.5803 330.96 62.9036 331.898 61.8629L346.902 45.2118L331.898 28.5607C330.96 27.52 330.96 25.8433 331.898 24.8026C332.836 23.762 334.347 23.762 335.284 24.8026L351.955 43.3039C352.893 44.3446 352.893 46.0213 351.955 47.0619L335.284 65.5632C334.347 66.6617 332.836 66.6617 331.898 65.621Z" fill="white"/>
<path d="M318.51 66.3153C317.207 66.0262 316.322 64.6387 316.582 63.1932L322.677 26.133C322.938 24.6876 324.188 23.7047 325.49 23.9938C326.793 24.2829 327.678 25.6704 327.418 27.1159L321.323 64.1761C321.062 65.6215 319.812 66.6044 318.51 66.3153Z" fill="#82A6BF"/>
<path d="M255.072 99.4428C258.805 99.4428 260.377 100.7 260.377 102.814V104.471C260.377 106.643 258.608 107.786 254.876 107.786H252.518V113.215H249.866V99.4999H255.072V99.4428ZM254.778 106.357C256.742 106.357 257.626 105.843 257.626 104.529V102.7C257.626 101.443 256.84 100.814 254.974 100.814H252.42V106.357H254.778Z" fill="white"/>
<path d="M267.743 99.4424C271.476 99.4424 272.949 100.528 272.949 102.585V103.728C272.949 105.214 272.065 106.185 270.003 106.528C272.164 106.928 272.949 107.9 272.949 109.385V111.5C272.949 112.128 272.949 112.7 273.441 113.157H270.788C270.494 112.757 270.396 112.414 270.396 111.5V109.328C270.396 107.785 269.119 107.271 266.958 107.271H265.091V113.1H262.439V99.3852H267.743V99.4424ZM267.056 105.9C269.119 105.9 270.396 105.5 270.396 104.014V102.7C270.396 101.442 269.61 100.814 267.645 100.814H265.091V105.9H267.056V105.9Z" fill="white"/>
<path d="M275.503 102.757C275.503 100.643 277.271 99.3285 280.906 99.3285C284.54 99.3285 286.308 100.7 286.308 102.757V109.843C286.308 111.9 284.54 113.272 280.906 113.272C277.271 113.272 275.503 111.9 275.503 109.843V102.757ZM278.155 109.957C278.155 111.215 279.039 111.957 280.906 111.957C282.87 111.957 283.656 111.215 283.656 109.957V102.7C283.656 101.443 282.772 100.7 280.906 100.7C279.039 100.7 278.155 101.443 278.155 102.7V109.957Z" fill="white"/>
<path d="M299.176 102.757V103.957H296.72V102.7C296.72 101.442 295.836 100.7 293.97 100.7C292.104 100.7 291.22 101.442 291.22 102.7V109.957C291.22 111.214 292.104 111.957 293.97 111.957C295.934 111.957 296.72 111.214 296.72 109.957V107.214H294.265V105.843H299.176V109.9C299.176 111.957 297.506 113.328 293.872 113.328C290.237 113.328 288.567 111.957 288.567 109.9V102.814C288.567 100.757 290.237 99.3852 293.872 99.3852C297.506 99.3281 299.176 100.7 299.176 102.757Z" fill="white"/>
<path d="M306.936 99.4424C310.668 99.4424 312.142 100.528 312.142 102.585V103.728C312.142 105.214 311.258 106.185 309.195 106.528C311.356 106.928 312.142 107.9 312.142 109.385V111.5C312.142 112.128 312.142 112.7 312.633 113.157H309.981C309.686 112.757 309.588 112.414 309.588 111.5V109.328C309.588 107.785 308.311 107.271 306.15 107.271H304.284V113.1H301.631V99.3852H306.936V99.4424ZM306.248 105.9C308.311 105.9 309.588 105.5 309.588 104.014V102.7C309.588 101.442 308.802 100.814 306.837 100.814H304.284V105.9H306.248V105.9Z" fill="white"/>
<path d="M317.643 110.414L316.759 113.157H314.303L318.821 99.442H322.652L327.17 113.157H324.518L323.634 110.414H317.643ZM317.937 109.099H323.143L320.491 101.213L317.937 109.099Z" fill="white"/>
<path d="M337.877 113.157H335.323L331.394 102.242V113.157H329.135V99.442H332.769L336.6 110.414L340.333 99.442H343.967V113.157H341.511V102.128L337.877 113.157Z" fill="white"/>
<path d="M355.459 113.157H352.906L348.977 102.242V113.157H346.717V99.442H350.352L354.182 110.414L357.915 99.442H361.549V113.157H359.094V102.128L355.459 113.157Z" fill="white"/>
<path d="M367.05 99.442V113.157H364.398V99.442H367.05Z" fill="white"/>
<path d="M372.06 113.157H369.703V99.442H373.042L378.445 109.328V99.442H380.802V113.157H378.052L372.06 102.071V113.157Z" fill="white"/>
<path d="M393.866 102.757V103.957H391.411V102.7C391.411 101.442 390.526 100.7 388.66 100.7C386.794 100.7 385.91 101.442 385.91 102.7V109.957C385.91 111.214 386.794 111.957 388.66 111.957C390.625 111.957 391.411 111.214 391.411 109.957V107.214H388.955V105.843H393.866V109.9C393.866 111.957 392.196 113.328 388.562 113.328C384.927 113.328 383.258 111.957 383.258 109.9V102.814C383.258 100.757 384.927 99.3852 388.562 99.3852C392.196 99.3281 393.866 100.7 393.866 102.757Z" fill="white"/>
<path d="M485.788 39.3729V56.7178H487.767V39.3729C490.164 38.8526 491.935 36.5399 491.935 33.7648C491.935 30.5849 489.643 28.0409 486.778 28.0409C483.912 28.0409 481.62 30.5849 481.62 33.7648C481.62 36.5399 483.391 38.8526 485.788 39.3729ZM486.778 30.238C488.549 30.238 489.955 31.799 489.955 33.7648C489.955 35.7305 488.549 37.2916 486.778 37.2916C485.006 37.2916 483.6 35.7305 483.6 33.7648C483.6 31.799 485.006 30.238 486.778 30.238Z" fill="#82A6BF"/>
<path d="M476.098 56.7757H478.078V45.6171C478.078 44.9811 477.609 44.5186 477.088 44.5186H470.367C469.899 41.859 467.815 39.8933 465.314 39.8933C462.449 39.8933 460.157 42.4372 460.157 45.6171C460.157 48.797 462.449 51.3409 465.314 51.3409C467.815 51.3409 469.899 49.3752 470.367 46.7156H476.098V56.7757ZM465.314 49.0861C463.543 49.0861 462.136 47.525 462.136 45.5593C462.136 43.5935 463.543 42.0325 465.314 42.0325C467.085 42.0325 468.492 43.5935 468.492 45.5593C468.44 47.525 467.033 49.0861 465.314 49.0861Z" fill="#82A6BF"/>
<path d="M508.241 39.8355C505.74 39.8355 503.656 41.8013 503.188 44.4608H496.467C495.894 44.4608 495.477 44.9811 495.477 45.5593V56.7179H497.457V46.6578H503.188C503.656 49.3174 505.74 51.2831 508.241 51.2831C511.106 51.2831 513.398 48.7392 513.398 45.5593C513.398 42.4372 511.106 39.8355 508.241 39.8355ZM508.241 49.0861C506.47 49.0861 505.063 47.5251 505.063 45.5593C505.063 43.5936 506.47 42.0325 508.241 42.0325C510.012 42.0325 511.419 43.5936 511.419 45.5593C511.419 47.5251 509.96 49.0861 508.241 49.0861Z" fill="#82A6BF"/>
<path d="M480.786 104.301H492.716V116.847H480.786V104.301Z" fill="#82A6BF"/>
<path d="M521.525 109.273H452.03C448.696 109.273 446.039 106.266 446.039 102.624V61.7479C446.039 58.0476 448.748 55.099 452.03 55.099H521.525C524.859 55.099 527.516 58.1054 527.516 61.7479V102.624C527.516 106.324 524.807 109.273 521.525 109.273Z" fill="#40617C"/>
<path d="M523.505 94.0094V61.8057C523.505 60.5916 522.619 59.6087 521.525 59.6087H452.03C450.936 59.6087 450.05 60.5916 450.05 61.8057V94.0094C450.05 95.2235 450.936 96.2064 452.03 96.2064H521.525C522.619 96.2064 523.505 95.2235 523.505 94.0094Z" fill="white"/>
<path d="M497.613 118.466H475.89C475.108 118.466 474.483 117.772 474.483 116.905C474.483 116.037 475.108 115.344 475.89 115.344H497.613C498.395 115.344 499.02 116.037 499.02 116.905C499.072 117.772 498.447 118.466 497.613 118.466Z" fill="#40617C"/>
<path d="M418.126 127.312V141.188H415.871V127.312H418.126Z" fill="white"/>
<path d="M427.816 141.129H425.644L422.303 130.086V141.129H420.382V127.253H423.472L426.73 138.354L429.904 127.253H432.994V141.129H430.906V129.971L427.816 141.129Z" fill="white"/>
<path d="M439.76 127.311C442.934 127.311 444.271 128.583 444.271 130.722V132.399C444.271 134.596 442.767 135.752 439.593 135.752H437.588V141.245H435.333V127.369H439.76V127.311ZM439.593 134.307C441.264 134.307 442.015 133.786 442.015 132.456V130.606C442.015 129.334 441.347 128.698 439.76 128.698H437.588V134.307H439.593Z" fill="white"/>
<path d="M446.108 141.129V127.253H448.363V139.684H454.127V141.072H446.108V141.129Z" fill="white"/>
<path d="M462.813 133.44V134.827H457.885V139.742H463.899V141.129H455.63V127.253H463.899V128.641H457.885V133.382H462.813V133.44Z" fill="white"/>
<path d="M473.421 141.129H471.25L467.909 130.086V141.129H465.987V127.253H469.078L472.335 138.354L475.509 127.253H478.6V141.129H476.512V129.971L473.421 141.129Z" fill="white"/>
<path d="M488.122 133.44V134.827H483.194V139.742H489.208V141.129H480.939V127.253H489.208V128.641H483.194V133.382H488.122V133.44Z" fill="white"/>
<path d="M493.3 141.129H491.296V127.253H494.136L498.813 137.256V127.253H500.818V141.129H498.479L493.384 129.913V141.129H493.3Z" fill="white"/>
<path d="M505.913 141.129V128.698H502.238V127.311H511.844V128.698H508.168V141.129H505.913Z" fill="white"/>
<path d="M514.516 138.354L513.765 141.129H511.677L515.519 127.253H518.776L522.618 141.129H520.363L519.611 138.354H514.516ZM514.85 137.024H519.277L517.022 129.046L514.85 137.024Z" fill="white"/>
<path d="M527.296 141.129V128.698H523.621V127.311H533.226V128.698H529.551V141.129H527.296Z" fill="white"/>
<path d="M536.985 127.311V141.187H534.73V127.311H536.985Z" fill="white"/>
<path d="M539.073 130.665C539.073 128.526 540.577 127.196 543.667 127.196C546.757 127.196 548.261 128.584 548.261 130.665V137.834C548.261 139.916 546.757 141.303 543.667 141.303C540.577 141.303 539.073 139.916 539.073 137.834V130.665ZM541.328 137.892C541.328 139.164 542.08 139.916 543.667 139.916C545.338 139.916 546.006 139.164 546.006 137.892V130.549C546.006 129.277 545.254 128.526 543.667 128.526C542.08 128.526 541.328 129.277 541.328 130.549V137.892Z" fill="white"/>
<path d="M552.354 141.129H550.349V127.253H553.189L557.867 137.256V127.253H559.871V141.129H557.532L552.437 129.913V141.129H552.354Z" fill="white"/>
<path d="M626.185 202.473L618.422 203.456L616.13 208.139L611.233 207.098L601.283 217.332L602.429 222.419L598.001 225.773L594.719 222.94L585.759 229.3L585.446 235.717L579.976 236.411L578.778 229.184L569.661 222.419L566.171 224.443V268.962H630.3V206.231L626.185 202.473Z" fill="#82A6BF"/>
<path d="M635.614 272.72H560.909C559.034 272.72 557.523 271.043 557.523 268.962C557.523 266.88 559.034 265.204 560.909 265.204H635.614C637.489 265.204 639 266.88 639 268.962C639 271.043 637.489 272.72 635.614 272.72Z" fill="#40617C"/>
<path d="M566.171 226.235C562.993 226.235 560.388 223.345 560.388 219.818C560.388 216.291 562.993 213.4 566.171 213.4C569.349 213.4 571.953 216.291 571.953 219.818C571.953 223.345 569.349 226.235 566.171 226.235ZM566.171 216.985C564.764 216.985 563.618 218.257 563.618 219.818C563.618 221.379 564.764 222.651 566.171 222.651C567.577 222.651 568.723 221.379 568.723 219.818C568.776 218.257 567.577 216.985 566.171 216.985Z" fill="#40617C"/>
<path d="M582.216 238.203C579.038 238.203 576.434 235.313 576.434 231.786C576.434 228.259 579.038 225.368 582.216 225.368C585.394 225.368 587.999 228.259 587.999 231.786C587.999 235.313 585.394 238.203 582.216 238.203ZM582.216 228.953C580.81 228.953 579.663 230.225 579.663 231.786C579.663 233.347 580.81 234.619 582.216 234.619C583.623 234.619 584.769 233.347 584.769 231.786C584.769 230.225 583.623 228.953 582.216 228.953Z" fill="#40617C"/>
<path d="M598.262 226.871C595.084 226.871 592.479 223.981 592.479 220.454C592.479 216.927 595.084 214.036 598.262 214.036C601.439 214.036 604.044 216.927 604.044 220.454C604.044 223.981 601.439 226.871 598.262 226.871ZM598.262 217.621C596.855 217.621 595.709 218.893 595.709 220.454C595.709 222.015 596.855 223.287 598.262 223.287C599.668 223.287 600.814 222.015 600.814 220.454C600.814 218.893 599.668 217.621 598.262 217.621Z" fill="#40617C"/>
<path d="M614.307 210.394C611.129 210.394 608.524 207.503 608.524 203.976C608.524 200.449 611.129 197.558 614.307 197.558C617.485 197.558 620.089 200.449 620.089 203.976C620.089 207.503 617.485 210.394 614.307 210.394ZM614.307 201.143C612.9 201.143 611.754 202.415 611.754 203.976C611.754 205.537 612.9 206.809 614.307 206.809C615.713 206.809 616.859 205.537 616.859 203.976C616.859 202.415 615.713 201.143 614.307 201.143Z" fill="#40617C"/>
<path d="M630.3 208.312C627.122 208.312 624.517 205.421 624.517 201.895C624.517 198.368 627.122 195.477 630.3 195.477C633.478 195.477 636.083 198.368 636.083 201.895C636.083 205.421 633.478 208.312 630.3 208.312ZM630.3 199.062C628.894 199.062 627.747 200.334 627.747 201.895C627.747 203.456 628.894 204.728 630.3 204.728C631.707 204.728 632.853 203.456 632.853 201.895C632.905 200.334 631.759 199.062 630.3 199.062Z" fill="#40617C"/>
<path d="M565.389 224.443H567.004V268.962H565.389V224.443Z" fill="#40617C"/>
<path d="M629.519 206.231H631.134V268.962H629.519V206.231Z" fill="#40617C"/>
<path d="M618.35 202.603L626.112 201.603L626.297 203.383L618.534 204.384L618.35 202.603Z" fill="#40617C"/>
<path d="M600.735 216.67L610.627 206.491L611.723 207.807L601.831 217.986L600.735 216.67Z" fill="#40617C"/>
<path d="M585.282 228.59L594.284 222.217L595.15 223.729L586.148 230.103L585.282 228.59Z" fill="#40617C"/>
<path d="M569.219 223.154L570.119 221.667L579.232 228.484L578.332 229.972L569.219 223.154Z" fill="#40617C"/>
<path d="M559.102 292.781L558.219 295.556H555.766L560.279 281.68H564.105L568.618 295.556H565.969L565.086 292.781H559.102ZM559.396 291.451H564.596L561.947 283.472L559.396 291.451Z" fill="white"/>
<path d="M572.935 295.557H570.58V281.681H573.916L579.41 291.683V281.681H581.764V295.557H579.017L573.033 284.34V295.557H572.935Z" fill="white"/>
<path d="M586.964 292.782L586.081 295.557H583.628L588.141 281.681H591.967L596.48 295.557H593.831L592.948 292.782H586.964ZM587.356 291.452H592.556L589.907 283.473L587.356 291.452Z" fill="white"/>
<path d="M598.54 295.557V281.681H601.189V294.111H607.958V295.499H598.54V295.557Z" fill="white"/>
<path d="M611.98 290.585L606.977 281.681H609.724L613.354 288.503L617.082 281.681H619.535L614.531 290.585V295.557H611.98V290.585V290.585Z" fill="white"/>
<path d="M631.699 295.557H621.006V294.169L629.051 283.068H621.399V281.681H631.798V283.068L623.655 294.169H631.699V295.557Z" fill="white"/>
<path d="M642.491 287.81V289.197H636.703V294.112H643.766V295.499H634.054V281.623H643.766V283.011H636.703V287.752H642.491V287.81Z" fill="white"/>
<path d="M518.608 405.582L523.713 376.963L501.104 351.87L475.317 357.536C472.712 358.114 470.576 360.312 469.899 363.202L456.979 417.897C456.823 418.533 456.979 419.226 457.396 419.689C458.073 420.44 459.115 420.44 459.792 419.689L485.684 390.954C484.537 388.352 484.954 385.057 486.986 382.918C489.33 380.432 493.133 380.432 495.478 382.918C498.03 385.577 498.082 390.029 495.582 392.804C493.654 394.943 490.789 395.348 488.445 394.076L462.553 422.811C461.876 423.563 461.876 424.719 462.553 425.47C462.97 425.933 463.595 426.106 464.168 425.933L513.45 411.595C516.107 410.843 518.087 408.53 518.608 405.582Z" fill="#82A6BF"/>
<path d="M524.13 383.496L495.217 351.408C493.863 349.905 493.863 347.418 495.217 345.915L501.937 338.457C503.292 336.954 505.532 336.954 506.886 338.457L535.799 370.545C537.154 372.048 537.154 374.534 535.799 376.038L529.079 383.496C527.724 385.057 525.484 385.057 524.13 383.496Z" fill="#40617C"/>
<path d="M467.88 434.837C471.721 434.837 473.486 436.167 473.486 438.306V445.302C473.486 447.441 471.721 448.713 467.88 448.713H462.067V434.837H467.88ZM467.776 447.325C469.749 447.325 470.683 446.631 470.683 445.359V438.248C470.683 436.976 469.749 436.282 467.673 436.282H464.662V447.325H467.776V447.325Z" fill="white"/>
<path d="M485.007 441.022V442.41H478.883V447.324H486.357V448.712H476.081V434.836H486.357V436.224H478.883V440.965H485.007V441.022Z" fill="white"/>
<path d="M499.643 438.19V438.595H497.048V438.132C497.048 436.86 496.218 436.167 494.246 436.167C492.274 436.167 491.443 436.918 491.443 438.132C491.443 441.254 499.851 441.543 499.851 445.417C499.851 447.499 498.086 448.886 494.246 448.886C490.405 448.886 488.64 447.499 488.64 445.417V444.608H491.235V445.475C491.235 446.747 492.17 447.441 494.142 447.441C496.114 447.441 497.048 446.689 497.048 445.475C497.048 442.411 488.744 442.064 488.744 438.19C488.744 436.051 490.509 434.721 494.246 434.721C497.879 434.721 499.643 436.109 499.643 438.19Z" fill="white"/>
<path d="M504.937 434.836V448.712H502.135V434.836H504.937Z" fill="white"/>
<path d="M518.743 438.19V439.404H516.148V438.132C516.148 436.86 515.214 436.108 513.242 436.108C511.269 436.108 510.335 436.86 510.335 438.132V445.475C510.335 446.747 511.269 447.498 513.242 447.498C515.318 447.498 516.148 446.747 516.148 445.475V442.699H513.553V441.312H518.743V445.417C518.743 447.498 516.978 448.886 513.138 448.886C509.297 448.886 507.532 447.498 507.532 445.417V438.248C507.532 436.166 509.297 434.779 513.138 434.779C516.978 434.721 518.743 436.108 518.743 438.19Z" fill="white"/>
<path d="M523.829 448.712H521.338V434.836H524.867L530.576 444.838V434.836H533.067V448.712H530.161L523.829 437.496V448.712Z" fill="white"/>
<path d="M362.739 441.544V445.359C362.739 447.788 360.967 449.811 358.727 449.811H285.221C283.033 449.811 281.209 447.845 281.209 445.359V442.064C281.209 417.087 299.286 396.447 321.844 396.331C344.453 396.215 362.739 416.509 362.739 441.544Z" fill="#40617C"/>
<path d="M322 412.751C320.906 412.751 319.968 411.768 319.968 410.496V402.922C319.968 401.708 320.854 400.667 322 400.667C323.094 400.667 324.032 401.65 324.032 402.922V410.496C324.032 411.768 323.094 412.751 322 412.751Z" fill="white"/>
<path d="M340.338 421.192C339.556 420.325 339.556 418.937 340.338 418.012L345.13 412.693C345.912 411.826 347.162 411.826 347.996 412.693C348.777 413.56 348.777 414.948 347.996 415.873L343.203 421.192C342.369 422.059 341.119 422.059 340.338 421.192Z" fill="white"/>
<path d="M347.944 441.544C347.944 440.329 348.829 439.289 349.975 439.289H356.8C357.894 439.289 358.831 440.272 358.831 441.544C358.831 442.758 357.946 443.798 356.8 443.798H349.975C348.829 443.798 347.944 442.758 347.944 441.544Z" fill="white"/>
<path d="M285.221 441.544C285.221 440.329 286.106 439.289 287.252 439.289H294.077C295.171 439.289 296.109 440.272 296.109 441.544C296.109 442.758 295.223 443.798 294.077 443.798H287.252C286.158 443.798 285.221 442.758 285.221 441.544Z" fill="white"/>
<path d="M296.004 412.693C296.786 411.826 298.036 411.826 298.87 412.693L303.662 418.012C304.444 418.879 304.444 420.267 303.662 421.192C302.881 422.059 301.631 422.059 300.797 421.192L296.004 415.873C295.223 415.006 295.223 413.56 296.004 412.693Z" fill="white"/>
<path d="M322 442.873C321.844 442.873 321.688 442.815 321.583 442.758C320.958 442.469 320.646 441.717 320.906 441.023L327.574 422.291C327.835 421.597 328.512 421.25 329.137 421.539C329.762 421.828 330.075 422.58 329.814 423.274L323.146 442.006C322.938 442.584 322.469 442.873 322 442.873Z" fill="white"/>
<path d="M326.897 441.543C326.897 442.985 326.381 444.367 325.463 445.386C324.544 446.406 323.299 446.978 322 446.978C320.701 446.978 319.456 446.406 318.537 445.386C317.619 444.367 317.103 442.985 317.103 441.543C317.103 440.102 317.619 438.72 318.537 437.701C319.456 436.681 320.701 436.109 322 436.109C323.299 436.109 324.544 436.681 325.463 437.701C326.381 438.72 326.897 440.102 326.897 441.543Z" fill="#82A6BF"/>
<path d="M282.096 472.707V460.276H277.745V458.888H289.117V460.276H284.766V472.707H282.096Z" fill="white"/>
<path d="M299.401 464.959V466.346H293.567V471.261H300.687V472.648H290.897V458.772H300.687V460.16H293.567V464.901H299.401V464.959Z" fill="white"/>
<path d="M313.444 462.184V462.589H310.971V462.126C310.971 460.854 310.18 460.16 308.301 460.16C306.423 460.16 305.631 460.912 305.631 462.126C305.631 465.248 313.641 465.537 313.641 469.411C313.641 471.492 311.96 472.88 308.301 472.88C304.643 472.88 302.961 471.492 302.961 469.411V468.602H305.434V469.469C305.434 470.741 306.324 471.435 308.203 471.435C310.081 471.435 310.971 470.683 310.971 469.469C310.971 466.405 303.06 466.058 303.06 462.184C303.06 460.045 304.741 458.715 308.301 458.715C311.762 458.715 313.444 460.103 313.444 462.184Z" fill="white"/>
<path d="M319.179 472.705V460.275H314.828V458.887H326.2V460.275H321.849V472.705H319.179Z" fill="white"/>
<path d="M330.65 458.83V472.706H327.98V458.83H330.65Z" fill="white"/>
<path d="M335.792 472.706H333.419V458.83H336.781L342.319 468.832V458.83H344.692V472.706H341.824L335.792 461.489V472.706Z" fill="white"/>
<path d="M357.745 462.184V463.398H355.273V462.126C355.273 460.854 354.383 460.102 352.504 460.102C350.625 460.102 349.735 460.854 349.735 462.126V469.468C349.735 470.74 350.625 471.492 352.504 471.492C354.482 471.492 355.273 470.74 355.273 469.468V466.693H352.801V465.306H357.745V469.411C357.745 471.492 356.064 472.88 352.405 472.88C348.747 472.88 347.065 471.492 347.065 469.411V462.241C347.065 460.16 348.747 458.772 352.405 458.772C356.064 458.715 357.745 460.102 357.745 462.184Z" fill="white"/>
<path d="M170.767 359.56C170.507 357.421 168.683 355.917 166.756 356.264C165.349 356.553 163.891 355.802 163.161 354.356L161.234 350.598C160.504 349.211 160.661 347.476 161.546 346.204C162.797 344.528 162.536 342.041 161.025 340.712C159.098 339.035 157.014 337.705 154.722 336.665C152.899 335.855 150.815 336.838 150.138 338.862C149.617 340.365 148.314 341.348 146.855 341.348H142.948C141.49 341.348 140.187 340.365 139.666 338.862C138.989 336.838 136.905 335.797 135.082 336.665C132.79 337.705 130.706 339.035 128.778 340.712C127.216 342.041 127.007 344.528 128.257 346.204C129.195 347.476 129.299 349.211 128.57 350.598L126.643 354.356C125.913 355.744 124.507 356.496 123.048 356.264C121.12 355.917 119.297 357.363 119.037 359.56C118.88 360.89 118.776 362.219 118.776 363.607C118.776 364.995 118.88 366.324 119.037 367.654C119.297 369.793 121.12 371.297 123.048 370.95C124.455 370.661 125.913 371.412 126.643 372.858L128.57 376.616C129.299 378.003 129.143 379.738 128.257 381.01C127.007 382.686 127.268 385.173 128.778 386.502C130.706 388.179 132.79 389.509 135.082 390.549C136.905 391.359 138.989 390.376 139.666 388.352C140.187 386.849 141.49 385.866 142.948 385.866H146.855C148.314 385.866 149.617 386.849 150.138 388.352C150.815 390.376 152.899 391.417 154.722 390.549C157.014 389.509 159.098 388.179 161.025 386.502C162.588 385.173 162.797 382.686 161.546 381.01C160.609 379.738 160.504 378.003 161.234 376.616L163.161 372.858C163.891 371.47 165.297 370.718 166.756 370.95C168.683 371.297 170.507 369.851 170.767 367.654C170.924 366.324 171.028 364.995 171.028 363.607C171.028 362.277 170.924 360.89 170.767 359.56ZM144.876 379.333C137.062 379.333 130.758 372.337 130.758 363.665C130.758 354.992 137.062 347.997 144.876 347.997C152.69 347.997 158.994 354.992 158.994 363.665C158.994 372.279 152.69 379.333 144.876 379.333Z" fill="#40617C"/>
<path d="M149.331 358.707C149.916 359.357 150.38 360.129 150.696 360.979C151.013 361.828 151.176 362.738 151.176 363.658C151.176 364.577 151.013 365.487 150.696 366.337C150.38 367.186 149.916 367.958 149.331 368.608C148.747 369.258 148.053 369.774 147.289 370.126C146.525 370.478 145.706 370.659 144.879 370.659C144.052 370.659 143.234 370.478 142.47 370.126C141.706 369.774 141.012 369.258 140.427 368.608C139.246 367.295 138.583 365.514 138.583 363.658C138.583 361.801 139.246 360.02 140.427 358.707C141.608 357.394 143.209 356.657 144.879 356.657C146.549 356.657 148.151 357.394 149.331 358.707Z" fill="#82A6BF"/>
<path d="M169.465 426.685C170.819 426.453 171.705 425.066 171.497 423.62C171.34 422.522 171.809 421.423 172.695 420.845L175.039 419.342C175.925 418.764 177.019 418.88 177.748 419.573C178.79 420.498 180.353 420.325 181.186 419.169C182.228 417.723 183.062 416.104 183.687 414.312C184.208 412.924 183.583 411.306 182.28 410.785C181.343 410.38 180.717 409.398 180.717 408.299V405.293C180.717 404.194 181.343 403.153 182.28 402.807C183.531 402.286 184.156 400.667 183.687 399.28C183.062 397.545 182.176 395.926 181.186 394.423C180.353 393.267 178.79 393.036 177.748 394.018C176.967 394.712 175.873 394.828 175.039 394.25L172.695 392.746C171.809 392.168 171.34 391.07 171.497 389.971C171.705 388.468 170.819 387.081 169.465 386.907C168.631 386.791 167.798 386.734 166.964 386.734C166.131 386.734 165.245 386.791 164.464 386.907C163.109 387.138 162.224 388.526 162.432 389.971C162.588 391.07 162.119 392.168 161.234 392.746L158.89 394.25C158.004 394.828 156.91 394.712 156.181 394.018C155.139 393.093 153.576 393.267 152.742 394.423C151.7 395.869 150.867 397.487 150.242 399.28C149.721 400.667 150.346 402.286 151.648 402.807C152.586 403.211 153.211 404.194 153.211 405.293V408.299C153.211 409.398 152.586 410.438 151.648 410.785C150.398 411.306 149.773 412.924 150.242 414.312C150.867 416.046 151.752 417.665 152.742 419.169C153.576 420.325 155.139 420.556 156.181 419.573C156.962 418.88 158.056 418.764 158.89 419.342L161.234 420.845C162.119 421.423 162.588 422.522 162.432 423.62C162.224 425.124 163.109 426.511 164.464 426.685C165.297 426.8 166.131 426.858 166.964 426.858C167.798 426.916 168.631 426.858 169.465 426.685ZM157.17 406.854C157.17 400.899 161.546 396.042 166.912 396.042C172.278 396.042 176.654 400.899 176.654 406.854C176.654 412.809 172.278 417.665 166.912 417.665C161.546 417.665 157.17 412.809 157.17 406.854Z" fill="#40617C"/>
<path d="M170.005 403.432C170.825 404.343 171.286 405.58 171.286 406.869C171.286 408.158 170.825 409.394 170.005 410.305C169.186 411.217 168.074 411.729 166.915 411.729C165.755 411.729 164.643 411.217 163.824 410.305C163.004 409.394 162.543 408.158 162.543 406.869C162.543 405.58 163.004 404.343 163.824 403.432C164.643 402.521 165.755 402.008 166.915 402.008C168.074 402.008 169.186 402.521 170.005 403.432Z" fill="#82A6BF"/>
<path d="M103.565 435.704C106.75 435.704 108.213 437.034 108.213 439.173V446.169C108.213 448.308 106.75 449.58 103.565 449.58H98.7444V435.704H103.565ZM103.565 448.192C105.2 448.192 105.975 447.498 105.975 446.227V439.115C105.975 437.843 105.2 437.149 103.479 437.149H100.982V448.192H103.565V448.192Z" fill="white"/>
<path d="M117.768 441.832V443.22H112.689V448.134H118.887V449.522H110.365V435.646H118.887V437.033H112.689V441.774H117.768V441.832Z" fill="white"/>
<path d="M122.76 435.703L126.117 447.787L129.474 435.703H131.626L127.753 449.579H124.396L120.522 435.703H122.76Z" fill="white"/>
<path d="M140.751 441.832V443.22H135.672V448.134H141.87V449.522H133.348V435.646H141.87V437.033H135.672V441.774H140.751V441.832Z" fill="white"/>
<path d="M143.849 439.057C143.849 436.918 145.399 435.588 148.583 435.588C151.768 435.588 153.318 436.976 153.318 439.057V446.227C153.318 448.308 151.768 449.696 148.583 449.696C145.399 449.696 143.849 448.308 143.849 446.227V439.057ZM146.087 446.342C146.087 447.614 146.862 448.366 148.497 448.366C150.219 448.366 150.908 447.614 150.908 446.342V439C150.908 437.728 150.133 436.976 148.497 436.976C146.862 436.976 146.087 437.728 146.087 439V446.342Z" fill="white"/>
<path d="M159.946 435.703C163.216 435.703 164.594 436.975 164.594 439.114V440.791C164.594 442.988 163.044 444.144 159.773 444.144H157.707V449.637H155.383V435.761H159.946V435.703ZM159.773 442.757C161.495 442.757 162.27 442.236 162.27 440.907V438.999C162.27 437.727 161.581 437.091 159.946 437.091H157.707V442.699H159.773V442.757Z" fill="white"/>
<path d="M174.148 449.579H171.91L168.467 438.536V449.579H166.488V435.703H169.672L173.029 446.804L176.3 435.703H179.485V449.579H177.333V438.421L174.148 449.579Z" fill="white"/>
<path d="M189.298 441.832V443.22H184.22V448.134H190.417V449.522H181.896V435.646H190.417V437.033H184.22V441.774H189.298V441.832Z" fill="white"/>
<path d="M194.549 449.579H192.483V435.703H195.41L200.23 445.705V435.703H202.296V449.579H199.886L194.635 438.363V449.579H194.549Z" fill="white"/>
<path d="M207.633 449.579V437.148H203.846V435.761H213.744V437.148H209.957V449.579H207.633Z" fill="white"/>
<path d="M74.4951 279.369H16.9819C10.3658 279.369 5 273.414 5 266.071V202.184C5 194.841 10.3658 188.886 16.9819 188.886H74.4951C81.1112 188.886 86.4771 194.841 86.4771 202.184V266.013C86.4771 273.414 81.1112 279.369 74.4951 279.369Z" fill="#40617C"/>
<path d="M17.7612 223.343C18.3342 223.979 19.1156 224.326 19.8971 224.326C20.6785 224.326 21.4078 223.979 22.033 223.343L26.3569 218.544L30.6808 223.343C31.2538 223.979 32.0353 224.326 32.8167 224.326C33.5981 224.326 34.3275 223.979 34.9526 223.343C36.0987 222.071 36.0987 219.932 34.9526 218.66L30.6287 213.861L34.9526 209.063C36.0987 207.791 36.0987 205.651 34.9526 204.379C33.8065 203.107 31.879 203.107 30.7329 204.379L26.409 209.178L22.0851 204.379C20.939 203.107 19.0114 203.107 17.8653 204.379C16.7193 205.651 16.7193 207.791 17.8653 209.063L22.1893 213.861L17.8653 218.66C16.6151 219.932 16.6151 222.071 17.7612 223.343Z" fill="#82A6BF"/>
<path d="M68.2437 255.722L72.5676 250.923C73.7137 249.651 73.7137 247.512 72.5676 246.24C71.4215 244.968 69.494 244.968 68.3479 246.24L64.024 251.039L59.7001 246.24C58.554 244.968 56.6265 244.968 55.4804 246.24C54.3343 247.512 54.3343 249.651 55.4804 250.923L59.8043 255.722L55.4804 260.52C54.3343 261.792 54.3343 263.932 55.4804 265.204C56.0534 265.84 56.8348 266.186 57.6163 266.186C58.3977 266.186 59.127 265.84 59.7522 265.204L64.0761 260.405L68.4 265.204C68.9731 265.84 69.7545 266.186 70.5359 266.186C71.3173 266.186 72.0467 265.84 72.6718 265.204C73.8179 263.932 73.8179 261.792 72.6718 260.52L68.2437 255.722Z" fill="#82A6BF"/>
<path d="M64.024 224.327C69.2335 224.327 73.4532 219.644 73.4532 213.863C73.4532 208.081 69.2335 203.398 64.024 203.398C58.8145 203.398 54.5947 208.081 54.5947 213.863C54.5947 219.644 58.8145 224.327 64.024 224.327ZM64.024 210.047C65.8994 210.047 67.4623 211.781 67.4623 213.863C67.4623 215.944 65.8994 217.679 64.024 217.679C62.1486 217.679 60.5857 215.944 60.5857 213.863C60.5857 211.781 62.0965 210.047 64.024 210.047Z" fill="white"/>
<path d="M51.0002 231.265C51.0002 231.208 51.0002 231.15 51.0002 231.15C51.0002 231.092 51.0002 231.034 51.0002 230.976C51.0002 230.919 51.0002 230.861 50.9481 230.803C50.9481 230.745 50.9481 230.687 50.896 230.629C50.896 230.572 50.8439 230.514 50.8439 230.456C50.8439 230.398 50.7918 230.34 50.7918 230.283C50.7918 230.225 50.7397 230.167 50.7397 230.167C50.7397 230.109 50.6876 230.051 50.6876 229.993C50.6876 229.936 50.6355 229.878 50.6355 229.878C50.5834 229.82 50.5834 229.762 50.5313 229.704C50.4792 229.647 50.4792 229.589 50.4271 229.589C50.375 229.531 50.375 229.531 50.323 229.473C50.2709 229.415 50.2188 229.3 50.1146 229.242C50.0625 229.184 49.9583 229.126 49.9062 229.011C49.8541 228.953 49.8541 228.953 49.802 228.895C49.7499 228.837 49.6978 228.837 49.6978 228.779C49.6457 228.721 49.5936 228.721 49.5936 228.721C49.5415 228.721 49.4894 228.664 49.4894 228.664C49.4373 228.664 49.3852 228.606 49.3852 228.606C49.3331 228.606 49.281 228.548 49.2289 228.548C49.1769 228.548 49.1248 228.49 49.1248 228.49C49.0727 228.49 49.0206 228.432 48.9685 228.432C48.9164 228.432 48.8643 228.432 48.8643 228.375C48.8122 228.375 48.7601 228.317 48.708 228.317C48.6559 228.317 48.6038 228.317 48.5517 228.317C48.4996 228.317 48.4475 228.317 48.3954 228.317C48.3433 228.317 48.2391 228.317 48.187 228.317H48.135H35.4237C33.7566 228.317 32.4022 229.82 32.4022 231.67C32.4022 233.52 33.7566 235.023 35.4237 235.023H40.8937L17.7634 260.463C16.6173 261.735 16.6173 263.874 17.7634 265.146C18.3364 265.782 19.1179 266.129 19.8993 266.129C20.6807 266.129 21.4101 265.782 22.0352 265.146L45.0613 239.591V245.662C45.0613 247.512 46.4158 249.015 48.0829 249.015C49.7499 249.015 51.1044 247.512 51.1044 245.662V231.554C51.0002 231.497 51.0002 231.381 51.0002 231.265Z" fill="white"/>
<path d="M5.49658 288.041C9.06153 288.041 10.5626 289.313 10.5626 291.452V293.129C10.5626 295.326 8.87389 296.482 5.30894 296.482H3.0574V301.975H0.524414V288.099H5.49658V288.041ZM5.30894 295.037C7.18523 295.037 8.02957 294.516 8.02957 293.187V291.337C8.02957 290.065 7.27906 289.429 5.49658 289.429H3.0574V295.037H5.30894Z" fill="white"/>
<path d="M12.6267 301.916V288.04H15.1597V300.471H21.6329V301.858H12.6267V301.916Z" fill="white"/>
<path d="M26.0418 299.141L25.1975 301.916H22.8522L27.1676 288.04H30.8264L35.1418 301.916H32.6088L31.7645 299.141H26.0418ZM26.3233 297.811H31.2954L28.7625 289.833L26.3233 297.811Z" fill="white"/>
<path d="M39.2694 301.916H37.0178V288.04H40.2075L45.4611 298.043V288.04H47.7126V301.916H45.0858L39.3632 290.7V301.916H39.2694Z" fill="white"/>
<path d="M52.4036 301.916H50.1521V288.04H53.3418L58.5954 298.043V288.04H60.8469V301.916H58.2201L52.4975 290.7V301.916H52.4036Z" fill="white"/>
<path d="M65.8194 288.04V301.916H63.2864V288.04H65.8194Z" fill="white"/>
<path d="M70.6038 301.916H68.3522V288.04H71.5419L76.7955 298.043V288.04H79.047V301.916H76.4202L70.6976 290.7V301.916H70.6038Z" fill="white"/>
<path d="M91.5245 291.394V292.609H89.1792V291.337C89.1792 290.065 88.3348 289.313 86.5524 289.313C84.7699 289.313 83.9256 290.065 83.9256 291.337V298.679C83.9256 299.951 84.7699 300.703 86.5524 300.703C88.4287 300.703 89.1792 299.951 89.1792 298.679V295.904H86.8338V294.459H91.5245V298.564C91.5245 300.645 89.9297 302.033 86.4585 302.033C82.9874 302.033 81.3926 300.645 81.3926 298.564V291.394C81.3926 289.313 82.9874 287.925 86.4585 287.925C89.8359 287.925 91.5245 289.313 91.5245 291.394Z" fill="white"/>
<path d="M162.588 28.0409C140.083 28.0409 121.85 48.2767 121.85 73.2533C121.85 98.23 140.083 118.466 162.588 118.466C185.094 118.466 203.327 98.23 203.327 73.2533C203.327 48.2767 185.094 28.0409 162.588 28.0409ZM162.588 112.279C142.74 112.279 126.643 94.4141 126.643 72.3861C126.643 50.3581 142.74 32.4928 162.588 32.4928C182.437 32.4928 198.534 50.3581 198.534 72.3861C198.534 94.4141 182.437 112.279 162.588 112.279Z" fill="#40617C"/>
<path d="M200.514 73.2533C200.514 84.4164 196.518 95.1222 189.406 103.016C182.293 110.909 172.647 115.344 162.588 115.344C152.53 115.344 142.883 110.909 135.771 103.016C128.659 95.1222 124.663 84.4164 124.663 73.2533C124.663 62.0903 128.659 51.3845 135.771 43.491C142.883 35.5975 152.53 31.163 162.588 31.163C172.647 31.163 182.293 35.5975 189.406 43.491C196.518 51.3845 200.514 62.0903 200.514 73.2533Z" fill="#82A6BF"/>
<path d="M194.419 73.2533C194.419 77.8924 193.595 82.486 191.996 86.7719C190.396 91.0578 188.051 94.9521 185.096 98.2324C182.14 101.513 178.631 104.115 174.769 105.89C170.907 107.665 166.768 108.579 162.588 108.579C154.146 108.579 146.05 104.857 140.081 98.2324C134.112 91.6075 130.758 82.6223 130.758 73.2533C130.758 68.6143 131.581 64.0206 133.181 59.7347C134.781 55.4488 137.125 51.5545 140.081 48.2742C143.037 44.9939 146.546 42.3918 150.407 40.6165C154.269 38.8413 158.408 37.9275 162.588 37.9275C166.768 37.9275 170.907 38.8413 174.769 40.6165C178.631 42.3918 182.14 44.9939 185.096 48.2742C188.051 51.5545 190.396 55.4488 191.996 59.7347C193.595 64.0206 194.419 68.6143 194.419 73.2533Z" fill="#40617C"/>
<path d="M152.326 94.9923C151.023 94.9923 149.773 94.4719 148.783 93.3734L140.083 83.7181C138.156 81.5789 138.156 78.0521 140.083 75.8551C142.011 73.7159 145.188 73.7159 147.168 75.8551L152.326 81.5789L178.009 53.0754C179.936 50.9362 183.114 50.9362 185.094 53.0754C187.021 55.2146 187.021 58.7414 185.094 60.9385L155.92 93.3156C154.878 94.4719 153.628 94.9923 152.326 94.9923Z" fill="white"/>
<path d="M88.2136 127.42L91.6505 138.787L95.0875 127.42H97.2907L93.325 140.473H89.888L85.9222 127.42H88.2136Z" fill="white"/>
<path d="M100.64 137.862L99.8466 140.472H97.6434L101.697 127.42H105.134L109.188 140.472H106.809L106.016 137.862H100.64ZM100.992 136.611H105.663L103.284 129.106L100.992 136.611Z" fill="white"/>
<path d="M111.039 140.472V127.42H113.418V139.113H119.499V140.418H111.039V140.472Z" fill="white"/>
<path d="M123.553 127.42V140.472H121.173V127.42H123.553Z" fill="white"/>
<path d="M130.868 127.42C134.128 127.42 135.626 128.67 135.626 130.683V137.263C135.626 139.276 134.128 140.472 130.868 140.472H125.932V127.42H130.868ZM130.868 139.167C132.542 139.167 133.335 138.514 133.335 137.318V130.628C133.335 129.432 132.542 128.779 130.779 128.779H128.224V139.167H130.868V139.167Z" fill="white"/>
<path d="M140.297 137.862L139.504 140.472H137.301L141.354 127.42H144.791L148.845 140.472H146.466L145.673 137.862H140.297ZM140.561 136.611H145.232L142.853 129.106L140.561 136.611Z" fill="white"/>
<path d="M153.693 140.472V128.779H149.815V127.474H159.95V128.779H156.072V140.472H153.693Z" fill="white"/>
<path d="M163.915 127.42V140.472H161.623V127.42H163.915Z" fill="white"/>
<path d="M166.207 130.575C166.207 128.562 167.793 127.312 171.054 127.312C174.315 127.312 175.901 128.617 175.901 130.575V137.319C175.901 139.276 174.315 140.582 171.054 140.582C167.793 140.582 166.207 139.276 166.207 137.319V130.575ZM168.498 137.427C168.498 138.624 169.291 139.331 170.966 139.331C172.728 139.331 173.433 138.624 173.433 137.427V130.52C173.433 129.324 172.64 128.617 170.966 128.617C169.291 128.617 168.498 129.324 168.498 130.52V137.427Z" fill="white"/>
<path d="M180.218 140.472H178.103V127.42H181.099L186.034 136.828V127.42H188.149V140.472H185.682L180.306 129.921V140.472H180.218Z" fill="white"/>
<path d="M197.491 137.862L196.698 140.472H194.495L198.548 127.42H201.985L206.039 140.472H203.66L202.867 137.862H197.491ZM197.843 136.611H202.514L200.135 129.106L197.843 136.611Z" fill="white"/>
<path d="M210.006 140.472H207.891V127.42H210.887L215.822 136.828V127.42H217.937V140.472H215.381L210.006 129.921V140.472Z" fill="white"/>
<path d="M225.163 127.42C228.424 127.42 229.922 128.67 229.922 130.683V137.263C229.922 139.276 228.424 140.472 225.163 140.472H220.228V127.42H225.163ZM225.163 139.167C226.838 139.167 227.631 138.514 227.631 137.318V130.628C227.631 129.432 226.838 128.779 225.075 128.779H222.519V139.167H225.163V139.167Z" fill="white"/>
<path d="M101.433 145.15L104.87 156.517L108.306 145.15H110.51L106.544 158.203H103.107L99.1413 145.15H101.433Z" fill="white"/>
<path d="M119.851 150.915V152.22H114.652V156.843H120.997V158.148H112.272V145.096H120.997V146.401H114.652V150.861H119.851V150.915Z" fill="white"/>
<path d="M127.871 145.15C131.22 145.15 132.541 146.183 132.541 148.141V149.229C132.541 150.643 131.748 151.568 129.898 151.894C131.836 152.275 132.541 153.199 132.541 154.613V156.626C132.541 157.224 132.541 157.768 132.982 158.203H130.603C130.338 157.822 130.25 157.496 130.25 156.626V154.559C130.25 153.09 129.104 152.601 127.166 152.601H125.491V158.148H123.112V145.096H127.871V145.15ZM127.254 151.296C129.104 151.296 130.25 150.915 130.25 149.501V148.25C130.25 147.054 129.545 146.455 127.783 146.455H125.491V151.296H127.254V151.296Z" fill="white"/>
<path d="M137.389 145.15V158.203H135.009V145.15H137.389Z" fill="white"/>
<path d="M147.082 151.241V152.547H142.235V158.203H139.856V145.15H148.228V146.455H142.147V151.187H147.082V151.241Z" fill="white"/>
<path d="M152.459 145.15V158.203H150.079V145.15H152.459Z" fill="white"/>
<path d="M164.179 148.305V149.501H161.976V148.25C161.976 147.054 161.183 146.347 159.508 146.347C157.834 146.347 157.041 147.054 157.041 148.25V155.103C157.041 156.299 157.834 157.006 159.508 157.006C161.271 157.006 161.976 156.299 161.976 155.103V153.417H164.179V155.048C164.179 157.006 162.681 158.312 159.42 158.312C156.16 158.312 154.661 157.006 154.661 155.048V148.305C154.661 146.347 156.16 145.041 159.42 145.041C162.681 145.041 164.179 146.347 164.179 148.305Z" fill="white"/>
<path d="M168.762 155.538L167.968 158.148H165.765L169.819 145.096H173.256L177.31 158.148H174.93L174.137 155.538H168.762ZM169.026 154.341H173.697L171.317 146.836L169.026 154.341Z" fill="white"/>
<path d="M182.157 158.203V146.51H178.28V145.205H188.414V146.51H184.537V158.203H182.157Z" fill="white"/>
<path d="M192.381 145.15V158.203H190.001V145.15H192.381Z" fill="white"/>
<path d="M194.672 148.305C194.672 146.292 196.258 145.041 199.519 145.041C202.779 145.041 204.366 146.347 204.366 148.305V155.048C204.366 157.006 202.779 158.312 199.519 158.312C196.258 158.312 194.672 157.006 194.672 155.048V148.305ZM196.963 155.103C196.963 156.299 197.756 157.006 199.43 157.006C201.193 157.006 201.898 156.299 201.898 155.103V148.196C201.898 146.999 201.105 146.292 199.43 146.292C197.756 146.292 196.963 146.999 196.963 148.196V155.103Z" fill="white"/>
<path d="M208.684 158.203H206.569V145.15H209.565L214.5 154.559V145.15H216.615V158.203H214.148L208.772 147.652V158.203H208.684Z" fill="white"/>
<path d="M328.356 126.56C328.356 128.431 327.686 130.225 326.494 131.548C325.302 132.87 323.686 133.614 322 133.614C320.314 133.614 318.698 132.87 317.506 131.548C316.314 130.225 315.644 128.431 315.644 126.56C315.644 124.689 316.314 122.895 317.506 121.572C318.698 120.25 320.314 119.506 322 119.506C323.686 119.506 325.302 120.25 326.494 121.572C327.686 122.895 328.356 124.689 328.356 126.56Z" fill="white"/>
<path d="M168.84 173.507C168.84 175.378 168.17 177.172 166.978 178.495C165.786 179.817 164.17 180.56 162.484 180.56C160.798 180.56 159.182 179.817 157.99 178.495C156.798 177.172 156.128 175.378 156.128 173.507C156.128 171.636 156.798 169.842 157.99 168.519C159.182 167.196 160.798 166.453 162.484 166.453C164.17 166.453 165.786 167.196 166.978 168.519C168.17 169.842 168.84 171.636 168.84 173.507Z" fill="white"/>
<path d="M493.133 154.543C493.133 156.414 492.464 158.208 491.272 159.531C490.08 160.854 488.463 161.597 486.778 161.597C485.092 161.597 483.475 160.854 482.283 159.531C481.092 158.208 480.422 156.414 480.422 154.543C480.422 152.672 481.092 150.878 482.283 149.555C483.475 148.233 485.092 147.49 486.778 147.49C488.463 147.49 490.08 148.233 491.272 149.555C492.464 150.878 493.133 152.672 493.133 154.543Z" fill="white"/>
<path d="M604.617 308.797C604.617 309.723 604.453 310.641 604.133 311.496C603.814 312.352 603.346 313.13 602.756 313.785C602.165 314.44 601.465 314.959 600.694 315.314C599.923 315.668 599.096 315.851 598.262 315.851C596.576 315.851 594.959 315.108 593.767 313.785C592.576 312.462 591.906 310.668 591.906 308.797C591.906 306.926 592.576 305.132 593.767 303.809C594.959 302.487 596.576 301.744 598.262 301.744C599.096 301.744 599.923 301.926 600.694 302.28C601.465 302.635 602.165 303.154 602.756 303.809C603.346 304.464 603.814 305.242 604.133 306.098C604.453 306.954 604.617 307.871 604.617 308.797Z" fill="white"/>
<path d="M503.239 461.953C503.239 462.879 503.075 463.796 502.756 464.652C502.436 465.508 501.968 466.285 501.378 466.94C500.788 467.595 500.087 468.115 499.316 468.469C498.545 468.824 497.719 469.006 496.884 469.006C495.198 469.006 493.582 468.263 492.39 466.94C491.198 465.618 490.528 463.823 490.528 461.953C490.528 460.082 491.198 458.288 492.39 456.965C493.582 455.642 495.198 454.899 496.884 454.899C497.719 454.899 498.545 455.082 499.316 455.436C500.087 455.791 500.788 456.31 501.378 456.965C501.968 457.62 502.436 458.398 502.756 459.253C503.075 460.109 503.239 461.026 503.239 461.953Z" fill="white"/>
<path d="M328.356 485.946C328.356 487.817 327.686 489.611 326.494 490.934C325.302 492.257 323.686 493 322 493C320.314 493 318.698 492.257 317.506 490.934C316.314 489.611 315.644 487.817 315.644 485.946C315.644 484.076 316.314 482.282 317.506 480.959C318.698 479.636 320.314 478.893 322 478.893C323.686 478.893 325.302 479.636 326.494 480.959C327.686 482.282 328.356 484.076 328.356 485.946Z" fill="white"/>
<path d="M157.9 462.82C157.9 464.691 157.23 466.485 156.038 467.808C154.846 469.13 153.23 469.874 151.544 469.874C149.858 469.874 148.242 469.13 147.05 467.808C145.858 466.485 145.188 464.691 145.188 462.82C145.188 460.949 145.858 459.155 147.05 457.832C148.242 456.509 149.858 455.766 151.544 455.766C153.23 455.766 154.846 456.509 156.038 457.832C157.23 459.155 157.9 460.949 157.9 462.82Z" fill="white"/>
<path d="M52.0942 315.157C52.0942 316.083 51.9298 317 51.6104 317.856C51.291 318.712 50.8228 319.49 50.2327 320.144C49.6425 320.799 48.9418 321.319 48.1707 321.673C47.3996 322.028 46.5732 322.21 45.7386 322.21C44.0529 322.21 42.4364 321.467 41.2444 320.144C40.0525 318.822 39.3829 317.028 39.3829 315.157C39.3829 313.286 40.0525 311.492 41.2444 310.169C42.4364 308.846 44.0529 308.103 45.7386 308.103C46.5732 308.103 47.3996 308.286 48.1707 308.64C48.9418 308.995 49.6425 309.514 50.2327 310.169C50.8228 310.824 51.291 311.602 51.6104 312.458C51.9298 313.313 52.0942 314.231 52.0942 315.157Z" fill="white"/>
<path d="M321.615 160C320.729 160 320 159.635 320 159.192V129.808C320 129.365 320.729 129 321.615 129C322.501 129 323.23 129.365 323.23 129.808V159.192C323.23 159.635 322.501 160 321.615 160Z" fill="white"/>
<path d="M219.32 222.824H162.484C161.598 222.824 160.869 222.015 160.869 221.032V173.565C160.869 172.582 161.598 171.772 162.484 171.772C163.37 171.772 164.099 172.582 164.099 173.565V219.24H219.32C220.206 219.24 220.935 220.049 220.935 221.032C220.935 222.015 220.206 222.824 219.32 222.824Z" fill="white"/>
<path d="M199.316 316.949H45.7385C44.8529 316.949 44.1236 316.14 44.1236 315.157C44.1236 314.174 44.8529 313.365 45.7385 313.365H199.316C200.201 313.365 200.93 314.174 200.93 315.157C200.93 316.14 200.201 316.949 199.316 316.949Z" fill="white"/>
<path d="M242.19 464.612H151.544C150.658 464.612 149.929 463.803 149.929 462.82C149.929 461.837 150.658 461.028 151.544 461.028H240.575V322.153C240.575 321.17 241.304 320.36 242.19 320.36C243.076 320.36 243.805 321.17 243.805 322.153V462.82C243.805 463.803 243.076 464.612 242.19 464.612Z" fill="white"/>
<path d="M373.574 487.739H322C321.114 487.739 320.385 486.929 320.385 485.946C320.385 484.964 321.114 484.154 322 484.154H371.959V322.153C371.959 321.17 372.689 320.36 373.574 320.36C374.46 320.36 375.189 321.17 375.189 322.153V485.946C375.189 486.929 374.46 487.739 373.574 487.739Z" fill="white"/>
<path d="M496.884 463.745H403.633C402.748 463.745 402.018 462.936 402.018 461.953V322.153C402.018 321.17 402.748 320.36 403.633 320.36C404.519 320.36 405.248 321.17 405.248 322.153V460.16H496.884C497.77 460.16 498.499 460.97 498.499 461.953C498.499 462.936 497.77 463.745 496.884 463.745Z" fill="white"/>
<path d="M598.261 310.589H443.278C442.392 310.589 441.663 309.78 441.663 308.797C441.663 307.814 442.392 307.005 443.278 307.005H598.261C599.147 307.005 599.876 307.814 599.876 308.797C599.876 309.78 599.147 310.589 598.261 310.589Z" fill="white"/>
<path d="M486.777 227.218H422.596C421.71 227.218 420.981 226.409 420.981 225.426C420.981 224.443 421.71 223.634 422.596 223.634H485.162V154.543C485.162 153.56 485.892 152.751 486.777 152.751C487.663 152.751 488.392 153.56 488.392 154.543V225.426C488.392 226.409 487.663 227.218 486.777 227.218Z" fill="white"/>
<path d="M331.471 309.5C331.326 310.741 330.643 311.931 329.491 312.852C328.182 313.899 326.388 314.5 324.5 314.5H320.5C318.612 314.5 316.818 313.899 315.509 312.852C314.357 311.931 313.674 310.741 313.529 309.5H331.471Z" fill="#82A6BF" stroke="white"/>
<path d="M331.433 304.5H313.567C313.277 304.5 313.003 304.39 312.805 304.199C312.607 304.01 312.5 303.758 312.5 303.5C312.5 303.242 312.607 302.99 312.805 302.801C313.003 302.61 313.277 302.5 313.567 302.5H331.433C331.723 302.5 331.997 302.61 332.195 302.801C332.393 302.99 332.5 303.242 332.5 303.5C332.5 303.758 332.393 304.01 332.195 304.199C331.997 304.39 331.723 304.5 331.433 304.5Z" fill="#82A6BF" stroke="white"/>
<path d="M336.377 297.5H308.623C308.313 297.5 308.023 297.386 307.815 297.193C307.608 297.002 307.5 296.752 307.5 296.5C307.5 296.248 307.608 295.998 307.815 295.807C308.023 295.614 308.313 295.5 308.623 295.5H336.377C336.687 295.5 336.977 295.614 337.185 295.807C337.392 295.998 337.5 296.248 337.5 296.5C337.5 296.752 337.392 297.002 337.185 297.193C336.977 297.386 336.687 297.5 336.377 297.5Z" fill="#82A6BF" stroke="white"/>
<path d="M281.394 218C281.006 218 280.631 217.89 280.339 217.688L266.551 208.216C266.392 208.107 266.262 207.974 266.168 207.826C266.074 207.677 266.018 207.515 266.004 207.35C265.989 207.184 266.017 207.018 266.084 206.86C266.151 206.703 266.257 206.558 266.396 206.433C266.535 206.308 266.703 206.205 266.892 206.131C267.081 206.058 267.287 206.014 267.498 206.003C267.708 205.992 267.919 206.013 268.119 206.066C268.319 206.12 268.504 206.203 268.662 206.312L282.45 215.785C282.697 215.954 282.871 216.178 282.951 216.427C283.031 216.677 283.012 216.94 282.898 217.18C282.783 217.421 282.577 217.629 282.309 217.775C282.04 217.922 281.721 218 281.394 218H281.394Z" fill="white"/>
<path d="M321.5 202C321.102 202 320.721 201.873 320.439 201.647C320.158 201.421 320 201.115 320 200.796V180.204C320 179.885 320.158 179.579 320.439 179.353C320.721 179.127 321.102 179 321.5 179C321.898 179 322.279 179.127 322.561 179.353C322.842 179.579 323 179.885 323 180.204V200.796C323 201.115 322.842 201.421 322.561 201.647C322.279 201.873 321.898 202 321.5 202Z" fill="white"/>
<path d="M363.606 218C363.279 218 362.96 217.922 362.692 217.775C362.423 217.629 362.217 217.421 362.102 217.18C361.988 216.939 361.969 216.677 362.049 216.427C362.129 216.178 362.303 215.953 362.55 215.784L376.339 206.311C376.66 206.091 377.079 205.98 377.504 206.003C377.928 206.026 378.324 206.18 378.604 206.433C378.884 206.685 379.025 207.014 378.996 207.349C378.968 207.683 378.772 207.994 378.451 208.215L364.662 217.688C364.37 217.89 363.994 218 363.606 218Z" fill="white"/>
<path d="M336.343 291C336.215 291 336.089 290.98 335.971 290.942C335.853 290.904 335.746 290.848 335.656 290.777C335.565 290.707 335.494 290.623 335.445 290.53C335.396 290.438 335.371 290.339 335.371 290.239V284.82C335.371 278.45 343.395 272.504 349.254 268.162C349.741 267.801 350.213 267.451 350.667 267.111C358.772 261.044 363.056 252.802 363.056 243.275C363.056 225.469 345.242 211.522 322.5 211.522C322.462 211.522 322.423 211.522 322.385 211.522C311.683 211.531 301.42 214.858 293.842 220.775C286.263 226.691 281.985 234.717 281.943 243.096V243.273C281.943 252.604 286.457 261.29 294.328 267.107C294.726 267.402 295.14 267.706 295.566 268.017C301.5 272.368 309.629 278.326 309.629 284.82V290.239C309.629 290.441 309.526 290.635 309.344 290.777C309.162 290.92 308.915 291 308.657 291C308.399 291 308.152 290.92 307.97 290.777C307.788 290.635 307.686 290.441 307.686 290.239V284.82C307.686 278.985 299.913 273.288 294.238 269.128C293.811 268.815 293.395 268.51 292.994 268.214C284.736 262.11 280 253.021 280 243.275V243.093C280.065 224.827 299.068 210 322.382 210C322.424 210 322.461 210 322.502 210C328.092 209.978 333.631 210.823 338.8 212.487C343.97 214.151 348.666 216.601 352.618 219.696C356.57 222.79 359.699 226.467 361.825 230.515C363.95 234.562 365.029 238.899 364.999 243.275C364.999 253.227 360.508 261.85 352.01 268.21C351.554 268.552 351.079 268.904 350.59 269.266C344.987 273.418 337.314 279.105 337.314 284.82V290.239C337.314 290.339 337.289 290.438 337.24 290.53C337.191 290.623 337.12 290.707 337.03 290.777C336.939 290.848 336.832 290.904 336.714 290.942C336.596 290.98 336.47 291 336.343 291Z" fill="white"/>
<path d="M336.333 291V285.545C336.333 278.955 345.423 272.72 351.319 268.273C359.631 262.007 364 253.589 364 243.727C364 235.063 359.643 226.753 351.886 220.618C344.128 214.483 333.602 211.024 322.615 211C311.629 210.976 301.078 214.388 293.277 220.489C285.476 226.59 281.061 234.881 281 243.545C281 243.606 281 243.667 281 243.727C281 253.236 285.557 262.225 293.681 268.273C299.545 272.639 308.667 278.886 308.667 285.545V291" fill="#82A6BF"/>
</svg>
